<?xml version="1.0" encoding="UTF-8"?>
<svg id="Camada_1" data-name="Camada 1" xmlns="http://www.w3.org/2000/svg" viewBox="0 0 132.22 130.5">
  <defs>
    <style>
      .cls-1 {
        fill: #fe6ec6;
      }

      .cls-2 {
        fill: #fd6dc6;
      }
    </style>
  </defs>
  <path class="cls-1" d="M132.22,4.43l-4.48,92.31-33.63-26.14c1.06-1.23,1.19-1.33,1.96-2.3l15.01,11.54,13.29,10.23,3.36-63.39-61.07,70.05L5.6,26.67l3.36,63.39,28.1-22.69,1.99,2.22L5.6,96.73,0,4.43l66.67,75.59L132.22,4.43Z"/>
  <polygon class="cls-1" points="66.59 33.33 59.42 18.26 66.67 0 73.76 18.27 66.59 33.33"/>
  <path class="cls-2" d="M66.69,41.82l13.74,14.13c-.58.65-1.31,1.41-1.97,2.15l-11.77-12.35-13.4,12.35c-.65-.66-1.4-1.47-2.01-2.08l15.41-14.2Z"/>
  <g>
    <path class="cls-1" d="M18.61,110.44v19.92h-1.22l-13.84-17.3v17.3h-1.48v-19.92h1.25l13.81,17.3v-17.3h1.48Z"/>
    <path class="cls-1" d="M38.02,123.27h-13.02c.15,3.53,2.78,5.92,6.41,5.92,1.91,0,3.68-.68,4.84-2.08l.84.94c-1.33,1.59-3.42,2.42-5.71,2.42-4.58,0-7.8-3.13-7.8-7.54s3.1-7.54,7.25-7.54,7.22,3.07,7.22,7.48c0,.11-.03.26-.03.4ZM25.02,122.16h11.6c-.2-3.21-2.58-5.52-5.8-5.52s-5.57,2.28-5.8,5.52Z"/>
    <path class="cls-1" d="M63.89,115.5l-5.74,14.85h-1.36l-5.11-12.89-5.13,12.89h-1.33l-5.74-14.85h1.39l5.05,13.26,5.16-13.26h1.25l5.13,13.23,5.1-13.23h1.33Z"/>
    <path class="cls-1" d="M65.52,120.4c0-5.81,4.5-10.1,10.53-10.1,2.87,0,5.45.91,7.22,2.76l-.93.94c-1.74-1.68-3.86-2.36-6.24-2.36-5.19,0-9.11,3.76-9.11,8.77s3.92,8.76,9.11,8.76c2.38,0,4.5-.71,6.24-2.39l.93.94c-1.77,1.85-4.35,2.79-7.22,2.79-6.03,0-10.53-4.3-10.53-10.1Z"/>
    <path class="cls-1" d="M98.44,120.94v9.42h-1.39v-2.65c-.96,1.71-2.81,2.76-5.45,2.76-3.39,0-5.45-1.71-5.45-4.24,0-2.25,1.45-4.16,5.66-4.16h5.19v-1.2c0-2.76-1.54-4.24-4.5-4.24-2.09,0-3.97.77-5.22,1.88l-.73-1.02c1.51-1.31,3.71-2.11,6.06-2.11,3.74,0,5.83,1.88,5.83,5.55ZM96.99,125.97v-2.79h-5.16c-3.13,0-4.23,1.28-4.23,2.99,0,1.94,1.54,3.13,4.21,3.13s4.32-1.2,5.19-3.33Z"/>
    <path class="cls-1" d="M102.18,128.56l.67-1.14c1.16.97,3.22,1.79,5.45,1.79,3.19,0,4.47-1.11,4.47-2.79,0-4.33-10.04-1.14-10.04-6.97,0-2.25,1.91-4.07,5.74-4.07,1.91,0,4,.57,5.19,1.45l-.67,1.14c-1.28-.91-2.93-1.34-4.55-1.34-2.96,0-4.26,1.2-4.26,2.79,0,4.47,10.04,1.31,10.04,6.97,0,2.42-2.12,4.07-5.98,4.07-2.49,0-4.87-.83-6.06-1.91Z"/>
    <path class="cls-1" d="M131.07,123.27h-13.02c.14,3.53,2.78,5.92,6.41,5.92,1.92,0,3.68-.68,4.84-2.08l.84.94c-1.33,1.59-3.42,2.42-5.71,2.42-4.58,0-7.8-3.13-7.8-7.54s3.1-7.54,7.25-7.54,7.22,3.07,7.22,7.48c0,.11-.03.26-.03.4ZM118.08,122.16h11.6c-.2-3.21-2.58-5.52-5.8-5.52s-5.57,2.28-5.8,5.52Z"/>
  </g>
</svg>