<?xml version="1.0" encoding="UTF-8"?>
<svg id="Camada_1" data-name="Camada 1" xmlns="http://www.w3.org/2000/svg" viewBox="0 0 64.09 64.09">
  <defs>
    <style>
      .cls-1 {
        fill: #495a94;
      }
    </style>
  </defs>
  <path class="cls-1" d="M31.71,40.98v23.11H6.95Q0,64.09.02,55.83C0,45.35,0,18.67,0,7.62,0-.02,0,.03,6.94.02,20.86,0,45.75.03,56.5,0c7.59-.02,7.42,0,7.48,8.36.11,13.21.08,31.69.11,45.52q.02,10.21-7.62,10.21h-14.86v-23.11l9.57-.32.33-9.59h-9.9c-.51-9.94-.8-11.7,9.62-11.57v-7.84c-5.81-1.49-19.52.39-19.52,8.52v10.9h-7.27c-.02,9.76,0,0-.09,4.96.06,4.8.09-4.96.06,4.8"/>
</svg>