<?xml version="1.0" encoding="UTF-8"?>
<svg id="Camada_1" data-name="Camada 1" xmlns="http://www.w3.org/2000/svg" xmlns:xlink="http://www.w3.org/1999/xlink" viewBox="0 0 64.04 64.02">
  <defs>
    <style>
      .cls-1 {
        fill: #e24d62;
      }

      .cls-2 {
        fill: #fcf5f8;
      }

      .cls-3 {
        fill: url(#Gradiente_sem_nome_120);
      }

      .cls-4 {
        fill: #e65856;
      }

      .cls-5 {
        fill: url(#Gradiente_sem_nome_122);
      }

      .cls-6 {
        fill: #fefdfd;
      }

      .cls-7 {
        fill: #fefefe;
      }

      .cls-8 {
        fill: #b63990;
      }

      .cls-9 {
        fill: #d04674;
      }
    </style>
    <linearGradient id="Gradiente_sem_nome_120" data-name="Gradiente sem nome 120" x1="-880.75" y1="584.47" x2="-864.41" y2="668.99" gradientTransform="translate(686.25 -438.75) scale(.75)" gradientUnits="userSpaceOnUse">
      <stop offset="0" stop-color="#9d379f"/>
      <stop offset=".37" stop-color="#d64170"/>
      <stop offset=".77" stop-color="#ed6b42"/>
      <stop offset=".87" stop-color="#ed6d40"/>
      <stop offset="1" stop-color="#e04666"/>
    </linearGradient>
    <linearGradient id="Gradiente_sem_nome_122" data-name="Gradiente sem nome 122" x1="-854.9" y1="606.67" x2="-889.76" y2="649.12" gradientTransform="translate(686.25 -438.75) scale(.75)" gradientUnits="userSpaceOnUse">
      <stop offset="0" stop-color="#d82f7c"/>
      <stop offset="1" stop-color="#f17835"/>
    </linearGradient>
  </defs>
  <path class="cls-3" d="M25.5,0c7.51.21,15.42-.05,23.12.19,10.29.53,13.56,5.08,14.76,14.93.86,10.69.76,21.72.39,32.58-1.12,11.73-5.43,14.84-16.16,15.66-7.91.6-32.54,1.58-39.04-1.28-3.71-1.63-6.3-5.01-7.3-8.91C-.58,46-.45,16.85,1.91,9.93,5.25.14,15.81.27,25.5,0Z"/>
  <g>
    <path class="cls-7" d="M21.77,8.34c6.57-.93,13.49-.71,20.13,0,11.29.83,13.45,6.85,14.12,17.28.43,6.75.64,20.89-4.03,25.85-5.19,5.51-19.99,4.88-27.23,4.41-5.54-.36-10.27-.51-13.35-5.51-2.15-3.48-1.97-3.59-2.4-8.1-.41-3.75-.52-5.89-.46-10.31-.17-4.12.17-7.57.46-11.41,1.3-8.32,4.08-11.62,12.75-12.22Z"/>
    <path class="cls-8" d="M41.9,8.34c-5.78-.42-14.34-.4-20.13,0,.7-1.12,2.55-.68,3.68-.69,5.3-.06,11.37-.5,16.45.69Z"/>
    <g>
      <path class="cls-5" d="M35.86,12.41l8.05.68c4.36.93,6.64,2.11,7.32,7.19.62,4.63.5,23.29-1.37,27.01-1.02,2.03-3.49,3.44-5.68,3.76-3.81.55-22.5.56-25.59-.46-2.37-.78-4.18-2.85-4.92-5.21-1.14-3.66-1.14-21.49-.34-25.53s2.93-6.31,7.09-6.75c4.76-.68,5.37-.68,7.38-.68,2.63-.16,5.41-.01,8.05,0Z"/>
      <path class="cls-9" d="M43.92,13.09c-2.54-.34-6.01.81-8.05-.68,3.24.02,4.91,0,8.05.68Z"/>
      <ellipse class="cls-2" cx="44.76" cy="19.2" rx="2.84" ry="2.87"/>
      <g>
        <ellipse class="cls-6" cx="32.26" cy="31.92" rx="12.06" ry="12.19"/>
        <path class="cls-4" d="M37.88,36.84c-6.97,8.14-18.23-2.28-11.41-10.18,3.93-1.74,12.37,6.08,11.41,10.18Z"/>
        <path class="cls-1" d="M37.88,36.84c-2.27-4.16-6.82-8.7-11.41-10.18,6.51-7.55,18.58,1.81,11.41,10.18Z"/>
      </g>
    </g>
  </g>
</svg>