<?xml version="1.0" encoding="UTF-8"?>
<svg id="Camada_1" data-name="Camada 1" xmlns="http://www.w3.org/2000/svg" viewBox="0 0 129.03 100.33">
  <defs>
    <style>
      .cls-1 {
        fill: #fe6ec6;
      }

      .cls-2 {
        fill: #fd6dc6;
      }
    </style>
  </defs>
  <path class="cls-1" d="M106.06,2.96l-3,61.77-22.5-17.5c.71-.82.8-.89,1.31-1.54l10.05,7.72,8.89,6.85,2.25-42.42-40.87,46.88L21.32,17.85l2.25,42.43,18.81-15.19,1.33,1.49-22.39,18.16L17.57,2.96l44.62,50.59L106.06,2.96Z"/>
  <polygon class="cls-1" points="62.13 22.31 57.32 12.22 62.18 0 66.92 12.23 62.13 22.31"/>
  <path class="cls-2" d="M62.2,27.99l9.2,9.45c-.39.43-.87.94-1.32,1.44l-7.88-8.26-8.97,8.26c-.43-.44-.94-.98-1.34-1.39l10.31-9.51h0Z"/>
  <g>
    <path class="cls-1" d="M16.53,80.26v19.92h-1.22L1.48,82.88v17.3H0v-19.92h1.25l13.81,17.3v-17.3h1.48-.01Z"/>
    <path class="cls-1" d="M35.94,93.1h-13.02c.15,3.53,2.78,5.92,6.41,5.92,1.91,0,3.68-.68,4.84-2.08l.84.94c-1.33,1.59-3.42,2.42-5.71,2.42-4.58,0-7.8-3.13-7.8-7.54s3.1-7.54,7.25-7.54,7.22,3.07,7.22,7.48c0,.11-.03.26-.03.4ZM22.95,91.98h11.6c-.2-3.21-2.58-5.52-5.8-5.52s-5.57,2.28-5.8,5.52Z"/>
    <path class="cls-1" d="M61.81,85.33l-5.74,14.85h-1.36l-5.11-12.89-5.13,12.89h-1.33l-5.74-14.85h1.39l5.05,13.26,5.16-13.26h1.25l5.13,13.23,5.1-13.23h1.33Z"/>
    <path class="cls-1" d="M63.44,90.22c0-5.81,4.5-10.1,10.53-10.1,2.87,0,5.45.91,7.22,2.76l-.93.94c-1.74-1.68-3.86-2.36-6.24-2.36-5.19,0-9.11,3.76-9.11,8.77s3.92,8.76,9.11,8.76c2.38,0,4.5-.71,6.24-2.39l.93.94c-1.77,1.85-4.35,2.79-7.22,2.79-6.03,0-10.53-4.3-10.53-10.1h0Z"/>
    <path class="cls-1" d="M96.37,90.76v9.42h-1.39v-2.65c-.96,1.71-2.81,2.76-5.45,2.76-3.39,0-5.45-1.71-5.45-4.24,0-2.25,1.45-4.16,5.66-4.16h5.19v-1.2c0-2.76-1.54-4.24-4.5-4.24-2.09,0-3.97.77-5.22,1.88l-.73-1.02c1.51-1.31,3.71-2.11,6.06-2.11,3.74,0,5.83,1.88,5.83,5.55h0ZM94.91,95.8v-2.79h-5.16c-3.13,0-4.23,1.28-4.23,2.99,0,1.94,1.54,3.13,4.21,3.13s4.32-1.2,5.19-3.33h0Z"/>
    <path class="cls-1" d="M100.11,98.39l.67-1.14c1.16.97,3.22,1.79,5.45,1.79,3.19,0,4.47-1.11,4.47-2.79,0-4.33-10.04-1.14-10.04-6.97,0-2.25,1.91-4.07,5.74-4.07,1.91,0,4,.57,5.19,1.45l-.67,1.14c-1.28-.91-2.93-1.34-4.55-1.34-2.96,0-4.26,1.2-4.26,2.79,0,4.47,10.04,1.31,10.04,6.97,0,2.42-2.12,4.07-5.98,4.07-2.49,0-4.87-.83-6.06-1.91h0Z"/>
    <path class="cls-1" d="M129,93.1h-13.02c.14,3.53,2.78,5.92,6.41,5.92,1.92,0,3.68-.68,4.84-2.08l.84.94c-1.33,1.59-3.42,2.42-5.71,2.42-4.58,0-7.8-3.13-7.8-7.54s3.1-7.54,7.25-7.54,7.22,3.07,7.22,7.48c0,.11-.03.26-.03.4h0ZM116,91.98h11.6c-.2-3.21-2.58-5.52-5.8-5.52s-5.57,2.28-5.8,5.52Z"/>
  </g>
</svg>