<?xml version="1.0" encoding="UTF-8"?>
<!DOCTYPE svg PUBLIC "-//W3C//DTD SVG 1.1//EN" "http://www.w3.org/Graphics/SVG/1.1/DTD/svg11.dtd">
<!-- Creator: CorelDRAW -->
<svg xmlns="http://www.w3.org/2000/svg" xml:space="preserve" width="9mm" height="5mm" version="1.1" shape-rendering="geometricPrecision" text-rendering="geometricPrecision" image-rendering="optimizeQuality" fill-rule="evenodd" clip-rule="evenodd"
viewBox="0 0 900 500"
 xmlns:xlink="http://www.w3.org/1999/xlink"
 xmlns:xodm="http://www.corel.com/coreldraw/odm/2003">
 <g id="Camada_x0020_1">
  <metadata id="CorelCorpID_0Corel-Layer"/>
 </g>
 <g id="Camada_x0020_5">
  <metadata id="CorelCorpID_1Corel-Layer"/>
 </g>
 <g id="Camada_x0020_1_3">
  <metadata id="CorelCorpID_2Corel-Layer"/>
  <path fill="black" d="M151.35 403.06c-1.36,0.63 -50.3,0.83 -54.83,0.25 -0.84,-2.47 -0.78,-65.85 0.03,-68.01 4.02,-0.43 51.73,-0.48 52.75,0.4 9.85,-0.99 24.31,2.94 30.41,7.52 12.41,9.35 15.84,27.51 9.26,41.35 -1.86,3.91 -5.21,8.42 -8.16,10.59 -6.69,4.94 -18.56,9.05 -29.46,7.9zm-3.76 -91.29c-0.95,0.92 -4.27,0.56 -5.94,0.56 -9.64,-0.01 -40.26,0.46 -45.12,-0.12 -0.79,-2.22 -0.79,-57.5 0,-59.73 4.31,-0.54 43.56,-0.53 45.2,0.25 7.93,-0.86 23.63,1.44 29.39,4.94 16.4,9.96 16.56,36.43 3.48,46.73 -5.58,4.4 -17.68,8.57 -27.01,7.37zm-77.34 114.59c11.12,0.77 24.83,0.07 36.1,0.07 19.29,0 52.02,1.18 69.33,-2.87 19.86,-4.64 32.22,-14.11 39.67,-33.08 7.31,-18.62 4.7,-40.95 -9.64,-55.4 -7.21,-7.27 -11.92,-9.12 -23.1,-13.48 1.34,-1.3 3.14,-1.94 4.87,-3.01 4.83,-3.01 9.56,-6.98 12.88,-11.53 17.2,-23.6 8.34,-53.67 -11.5,-67.12 -15.44,-10.46 -32.47,-10.58 -53.75,-10.58 -10.75,0 -21.49,0 -32.24,0 -10.19,0 -22.55,-0.63 -32.47,0.07l-0.15 196.93z"/>
  <path fill="black" d="M484.41 341.32c1.61,-52.15 76.61,-57.12 79.32,-0.01l-79.32 0.01zm104.1 42.04l-25.15 -3.25c-2.47,10.07 -9.85,19.21 -16.04,23.35 -17.34,11.58 -43.06,6.73 -55.33,-11.69 -4.87,-7.32 -9.07,-19.69 -8.93,-30.39 4.95,-0.56 44.4,-0.11 52.97,-0.11 6.93,0 50.41,0.67 53.31,-0.32 2.97,-36.56 -14.17,-74.2 -53.91,-79.71 -39.93,-5.53 -69.97,17.56 -76.08,57.4 -6.64,43.26 9.88,77.93 43.73,87.78 18.18,5.28 40.9,3.85 56.36,-4.3 7.91,-4.18 13.49,-9.37 18.15,-15.41 3.43,-4.44 10.09,-15.91 10.92,-23.35z"/>
  <polygon fill="black" points="879.86,45.28 856.33,45.28 856.33,434 879.86,434 "/>
  <polygon fill="black" points="8.3,45.28 8.3,434 31.4,434 31.4,45.28 "/>
  <path fill="black" d="M351.49 362.53c-1.25,15.83 -5.03,26.2 -13.15,35.02 -20.13,21.87 -75.09,18.76 -70.45,-49.99 1.06,-15.76 5.14,-26.05 13.08,-34.84 20.11,-22.25 75.86,-17.75 70.52,49.81zm-49.79 -81.6c-44.7,4.54 -61.35,40.97 -58.68,82.11 1.11,17.01 5.59,32.72 16.31,45.24 1.48,1.73 3.14,3.07 4.56,4.58 12.2,12.88 34.95,18.18 53.66,16.24 21.22,-2.19 37.2,-13.06 45.85,-24.8 10.73,-14.57 14.26,-35.09 13.08,-57.46 -2.27,-42.63 -31.63,-70.3 -74.78,-65.91z"/>
  <path fill="black" d="M748.82 300.98c15.6,-1.89 27.95,5.43 34.43,13.06 7.8,9.18 11.56,20.06 12.22,35.86 2.88,68.98 -53.57,68.54 -71.86,46.45 -7.64,-9.22 -11.39,-20.35 -12.08,-35.99 -0.63,-14.36 1.23,-30.27 7.84,-40.66 5.88,-9.22 14.67,-16.94 29.45,-18.72zm-3.87 -19.99c-41.79,5.15 -61.4,36.9 -58.07,83.31 1.29,18.08 7.86,38.07 21.36,49.14 15.36,12.61 32.15,17.96 53.64,15.59 21.77,-2.4 36.54,-13.18 45.58,-25.17 18.44,-24.45 19.32,-83.12 -8.76,-107.02 -14.96,-12.73 -32.79,-18.43 -53.75,-15.85z"/>
  <path fill="black" d="M688.15 216.55c1.34,0.71 40.42,0.73 41.57,0 0.85,-4.07 0.24,-167.65 0.24,-171.27l-41.84 0 0.03 171.27z"/>
  <path fill="black" d="M68.12 216.55c1.35,0.76 40.28,0.74 41.68,0l0.04 -171.27 -41.83 0 0.11 171.27z"/>
  <path fill="black" d="M289.15 216.55c1.15,0.72 40.23,0.72 41.59,0l0.04 -171.27 -41.84 0 0.21 171.27z"/>
  <path fill="black" d="M623.36 248.36l-0.07 35.17 -17.84 0.04 0.02 18.67 17.76 0.15c0.8,14.13 0.07,30.53 0.07,44.89 0,14.89 -0.23,29.96 0.09,44.82 0.34,15.83 1.79,25.69 12.78,31.97 10.54,6.03 26.57,4.85 38.91,2.17l-3.22 -21.29c-6.15,-0.3 -12.7,2.54 -18.7,-0.92 -5.3,-3.07 -5.56,-8.49 -5.56,-16.22l0.04 -85.35 24.13 -0.11 0.04 -18.58 -24.09 -0.24 -0.12 -49.63c-1.44,0.4 -22.69,13.1 -24.24,14.46z"/>
  <polygon fill="black" points="36.63,434 49.7,434 49.7,45.28 36.63,45.28 "/>
  <polygon fill="black" points="404.36,426.4 428.56,426.42 428.66,229.47 404.55,229.36 "/>
  <path fill="black" d="M146.68 216.55c1.6,0.97 21.76,0.8 23.28,0l0.02 -171.27 -23.54 0c0,3.62 -0.61,167.23 0.24,171.27z"/>
  <path fill="black" d="M457.71 216.55c1.07,0.61 22.13,0.66 23.18,0 0.85,-4.07 0.24,-167.65 0.24,-171.27l-23.54 0 0.12 171.27z"/>
  <path fill="black" d="M635.59 216.55c1.05,0.65 22.11,0.62 23.22,0l0.11 -171.27 -23.53 0 0.2 171.27z"/>
  <path fill="black" d="M540.11 216.55c1.34,0.82 21.78,0.87 23.18,0l0.2 -171.27 -23.53 0 0.15 171.27z"/>
  <path fill="black" d="M766.76 216.55c1.01,0.63 22.12,0.63 23.13,0l0.2 -171.27 -23.53 0 0.2 171.27z"/>
  <path fill="black" d="M367.86 216.55c1.27,0.68 21.79,0.66 23.03,0l0.03 -171.27 -23.1 0 0.04 171.27z"/>
  <path fill="black" d="M229.31 216.55c1.62,0.91 21.32,0.89 22.99,0l0.04 -171.27 -23.1 0 0.07 171.27z"/>
  <path fill="black" d="M568.48 216.55c1.09,0.68 11.93,0.72 13.08,0 0.84,-4.07 0.23,-167.65 0.23,-171.27l-13.51 0 0.2 171.27z"/>
  <path fill="black" d="M412.94 216.55c1.17,0.72 11.97,0.68 13.08,0l0.2 -171.27 -13.51 0c0,3.62 -0.61,167.23 0.23,171.27z"/>
  <path fill="black" d="M122.71 216.55c1.15,0.72 11.98,0.68 13.07,0l0.21 -171.27 -13.51 0c0,3.62 -0.61,167.23 0.23,171.27z"/>
  <path fill="black" d="M343.65 216.55c1.14,0.72 11.98,0.68 13.08,0l0.2 -171.27 -13.51 0c0,3.62 -0.61,167.23 0.23,171.27z"/>
  <path fill="black" d="M663.92 216.55c1.12,0.7 11.98,0.7 13.11,0l0.2 -171.27 -13.51 0 0.2 171.27z"/>
  <path fill="black" d="M191.97 216.55c1.13,0.7 11.98,0.7 13.11,0l0.19 -171.27 -13.5 0 0.2 171.27z"/>
  <path fill="black" d="M742.67 216.55c1.3,0.73 11.64,0.7 12.96,0l0.04 -171.27 -13.08 0 0.08 171.27z"/>
  <path fill="black" d="M598.45 216.55c1.32,0.74 11.65,0.68 12.95,0l0.02 -171.27 -13.07 0 0.1 171.27z"/>
  <path fill="black" d="M502.97 216.55c1.32,0.7 11.61,0.73 12.92,0l0.1 -171.27 -13.08 0 0.06 171.27z"/>
  <path fill="black" d="M257.62 216.55c1.33,0.7 11.62,0.73 12.92,0l0.1 -171.27 -13.07 0 0.05 171.27z"/>
  <path fill="black" d="M811.98 216.55c1.27,0.71 11.61,0.71 12.88,0l0.1 -171.27 -13.08 0 0.1 171.27z"/>
  <path fill="black" d="M616.89 216.55c1.12,0.71 9.03,0.61 10.1,0l0.12 -171.27 -10.46 0c0,3.62 -0.61,167.23 0.24,171.27z"/>
  <path fill="black" d="M521.42 216.55c1.02,0.63 8.96,0.67 10.02,0 0.85,-4.07 0.24,-167.65 0.24,-171.27l-10.46 0 0.2 171.27z"/>
  <path fill="black" d="M830.36 216.55c1.03,0.64 9.01,0.66 10.09,0l0.2 -171.27 -10.46 0 0.17 171.27z"/>
  <path fill="black" d="M210.54 216.55c1.56,0.83 8.39,0.86 9.92,0l0.07 -171.27 -10.02 0 0.03 171.27z"/>
  <path fill="black" d="M431.55 216.55c1.54,0.87 8.36,0.83 9.85,0l0.07 -171.27 -10.03 0 0.11 171.27z"/>
  <path fill="#7D7D7D" d="M151.35 403.06l-54.74 -0.06 0.09 -67.34 52.6 0.04c-1.02,-0.88 -48.73,-0.83 -52.75,-0.4 -0.81,2.16 -0.87,65.54 -0.03,68.01 4.53,0.58 53.47,0.38 54.83,-0.25z"/>
  <path fill="#7D7D7D" d="M147.59 311.77l-50.98 0.1 0 -59.08 45.12 -0.06c-1.64,-0.78 -40.89,-0.79 -45.2,-0.25 -0.79,2.23 -0.79,57.51 0,59.73 4.86,0.58 35.48,0.11 45.12,0.12 1.67,0 4.99,0.36 5.94,-0.56z"/>
 </g>
</svg>
