<?xml version="1.0" encoding="UTF-8"?>
<!DOCTYPE svg PUBLIC "-//W3C//DTD SVG 1.1//EN" "http://www.w3.org/Graphics/SVG/1.1/DTD/svg11.dtd">
<!-- Creator: CorelDRAW -->
<svg xmlns="http://www.w3.org/2000/svg" xml:space="preserve" width="18mm" height="14mm" version="1.1" shape-rendering="geometricPrecision" text-rendering="geometricPrecision" image-rendering="optimizeQuality" fill-rule="evenodd" clip-rule="evenodd"
viewBox="0 0 1800 1400"
 xmlns:xlink="http://www.w3.org/1999/xlink"
 xmlns:xodm="http://www.corel.com/coreldraw/odm/2003">
 <g id="Camada_x0020_1">
  <metadata id="CorelCorpID_0Corel-Layer"/>
  <g id="_2620984330080">
   <path fill="#F89833" fill-opacity="0.800000" d="M1231.13 38.53c298.26,0 540.06,241.79 540.06,540.06 0,298.27 -241.8,540.06 -540.06,540.06 -298.27,0 -540.07,-241.79 -540.07,-540.06 0,-298.27 241.8,-540.06 540.07,-540.06z"/>
   <circle fill="#ED3237" cx="557.06" cy="578.59" r="540.06"/>
   <path fill="#FAA831" fill-opacity="0.800000" d="M1231.13 38.53c298.26,0 540.06,241.79 540.06,540.06 0,298.27 -241.8,540.06 -540.06,540.06 -298.27,0 -540.07,-241.79 -540.07,-540.06 0,-298.27 241.8,-540.06 540.07,-540.06z"/>
  </g>
  <path fill="#373435" fill-rule="nonzero" d="M129.37 1201.18l35.65 0 0 20.04c12.78,-15.42 28.02,-23.15 45.7,-23.15 9.39,0 17.54,1.93 24.43,5.8 6.93,3.86 12.59,9.71 16.98,17.54 6.46,-7.83 13.44,-13.68 20.89,-17.54 7.45,-3.87 15.42,-5.8 23.91,-5.8 10.75,0 19.85,2.17 27.35,6.55 7.45,4.39 13.01,10.8 16.69,19.29 2.69,6.22 4.01,16.36 4.01,30.37l0 93.75 -38.76 0 0 -83.8c0,-14.57 -1.32,-23.96 -4.01,-28.15 -3.59,-5.52 -9.15,-8.3 -16.6,-8.3 -5.42,0 -10.57,1.65 -15.38,4.95 -4.76,3.35 -8.25,8.2 -10.37,14.57 -2.12,6.41 -3.16,16.51 -3.16,30.32l0 70.41 -38.76 0 0 -80.36c0,-14.24 -0.71,-23.48 -2.08,-27.59 -1.37,-4.15 -3.49,-7.26 -6.41,-9.29 -2.88,-2.02 -6.84,-3.01 -11.79,-3.01 -5.99,0 -11.37,1.6 -16.13,4.81 -4.81,3.25 -8.21,7.87 -10.28,13.96 -2.08,6.08 -3.11,16.17 -3.11,30.22l0 71.26 -38.77 0 0 -146.85z"/>
  <path id="_1" fill="#373435" fill-rule="nonzero" d="M412.65 1246.45l-35.08 -6.22c3.96,-14.34 10.8,-24.95 20.46,-31.84 9.67,-6.88 24.05,-10.32 43.11,-10.32 17.3,0 30.23,2.02 38.71,6.13 8.45,4.1 14.43,9.29 17.88,15.61 3.44,6.32 5.18,17.87 5.18,34.75l-0.56 45.27c0,12.88 0.61,22.4 1.84,28.53 1.22,6.14 3.53,12.69 6.93,19.67l-38.48 0c-0.99,-2.55 -2.26,-6.32 -3.73,-11.32 -0.61,-2.31 -1.08,-3.82 -1.36,-4.53 -6.61,6.51 -13.68,11.37 -21.23,14.62 -7.54,3.26 -15.56,4.91 -24.09,4.91 -15.05,0 -26.93,-4.1 -35.61,-12.31 -8.68,-8.16 -13.01,-18.53 -13.01,-31.08 0,-8.25 1.98,-15.65 5.94,-22.16 3.96,-6.46 9.48,-11.46 16.65,-14.9 7.12,-3.45 17.4,-6.46 30.84,-9.06 18.11,-3.39 30.7,-6.6 37.68,-9.52l0 -3.92c0,-7.54 -1.84,-12.92 -5.52,-16.17 -3.73,-3.21 -10.71,-4.81 -20.94,-4.81 -6.93,0 -12.31,1.36 -16.18,4.15 -3.91,2.73 -7.02,7.59 -9.43,14.52zm52.07 31.41c-4.96,1.65 -12.83,3.63 -23.63,5.94 -10.75,2.31 -17.83,4.57 -21.13,6.74 -5.04,3.64 -7.59,8.16 -7.59,13.68 0,5.47 2.03,10.14 6.08,14.1 4.06,3.96 9.2,5.94 15.47,5.94 6.98,0 13.68,-2.31 20.04,-6.88 4.67,-3.54 7.79,-7.78 9.25,-12.88 0.99,-3.3 1.51,-9.62 1.51,-18.91l0 -7.73z"/>
  <path id="_2" fill="#373435" fill-rule="nonzero" d="M527.3 1306.72l39.04 -5.94c1.66,7.5 5,13.2 10.1,17.07 5.04,3.91 12.16,5.85 21.27,5.85 10.04,0 17.59,-1.84 22.68,-5.52 3.39,-2.59 5.09,-6.08 5.09,-10.42 0,-2.93 -0.94,-5.38 -2.78,-7.31 -1.93,-1.84 -6.27,-3.59 -12.97,-5.14 -31.36,-6.94 -51.21,-13.25 -59.61,-18.96 -11.65,-7.97 -17.45,-19.01 -17.45,-33.11 0,-12.78 5.05,-23.48 15.09,-32.16 10.05,-8.67 25.61,-13.01 46.69,-13.01 20.09,0 35.04,3.3 44.8,9.85 9.76,6.6 16.51,16.32 20.19,29.19l-36.51 6.79c-1.55,-5.75 -4.57,-10.18 -8.96,-13.25 -4.38,-3.06 -10.65,-4.57 -18.81,-4.57 -10.28,0 -17.64,1.41 -22.12,4.29 -2.97,2.03 -4.43,4.67 -4.43,7.88 0,2.78 1.27,5.14 3.87,7.07 3.53,2.59 15.65,6.22 36.4,10.94 20.75,4.72 35.23,10.47 43.43,17.31 8.16,6.88 12.22,16.55 12.22,28.91 0,13.44 -5.61,25.04 -16.88,34.7 -11.23,9.67 -27.87,14.53 -49.94,14.53 -20,0 -35.85,-4.06 -47.54,-12.12 -11.65,-8.07 -19.29,-19.01 -22.87,-32.87z"/>
  <path id="_3" fill="#373435" fill-rule="nonzero" d="M765.59 1201.18l0 30.84 -26.6 0 0 59.47c0,12.07 0.24,19.1 0.76,21.08 0.52,1.98 1.65,3.63 3.49,4.95 1.79,1.27 3.96,1.93 6.55,1.93 3.63,0 8.82,-1.22 15.66,-3.72l3.25 30.18c-9,3.86 -19.19,5.8 -30.6,5.8 -6.98,0 -13.25,-1.18 -18.87,-3.54 -5.61,-2.36 -9.71,-5.42 -12.3,-9.15 -2.64,-3.77 -4.44,-8.82 -5.47,-15.23 -0.81,-4.53 -1.23,-13.68 -1.23,-27.49l0 -64.28 -17.83 0 0 -30.84 17.83 0 0 -29.14 38.76 -22.92 0 52.06 26.6 0z"/>
  <path id="_4" fill="#373435" fill-rule="nonzero" d="M877.64 1301.63l38.76 6.5c-4.95,14.2 -12.83,25 -23.53,32.45 -10.75,7.4 -24.19,11.13 -40.27,11.13 -25.52,0 -44.43,-8.35 -56.64,-25.04 -9.67,-13.4 -14.53,-30.28 -14.53,-50.7 0,-24.33 6.37,-43.43 19.06,-57.2 12.68,-13.82 28.76,-20.7 48.19,-20.7 21.79,0 39,7.21 51.64,21.64 12.59,14.43 18.63,36.55 18.06,66.35l-97.05 0c0.28,11.51 3.4,20.47 9.38,26.88 5.95,6.42 13.4,9.62 22.26,9.62 6.09,0 11.18,-1.65 15.28,-4.95 4.15,-3.3 7.27,-8.63 9.39,-15.98zm2.26 -39.33c-0.28,-11.27 -3.16,-19.86 -8.68,-25.71 -5.51,-5.89 -12.21,-8.81 -20.13,-8.81 -8.44,0 -15.42,3.11 -20.94,9.29 -5.52,6.17 -8.21,14.62 -8.11,25.23l57.86 0z"/>
  <path id="_5" fill="#373435" fill-rule="nonzero" d="M987.19 1348.03l-38.77 0 0 -146.85 35.94 0 0 20.84c6.18,-9.85 11.74,-16.31 16.69,-19.38 4.96,-3.06 10.57,-4.57 16.84,-4.57 8.86,0 17.4,2.45 25.61,7.31l-12.03 33.86c-6.55,-4.25 -12.64,-6.37 -18.25,-6.37 -5.47,0 -10.09,1.51 -13.86,4.48 -3.78,3.02 -6.75,8.39 -8.92,16.22 -2.17,7.83 -3.25,24.24 -3.25,49.19l0 45.27z"/>
  <path id="_6" fill="#373435" fill-rule="nonzero" d="M1188.13 1244.75l-38.2 6.79c-1.28,-7.59 -4.2,-13.29 -8.77,-17.16 -4.58,-3.82 -10.47,-5.75 -17.74,-5.75 -9.66,0 -17.4,3.34 -23.15,10.04 -5.75,6.7 -8.63,17.87 -8.63,33.58 0,17.45 2.92,29.75 8.77,36.97 5.85,7.21 13.68,10.8 23.49,10.8 7.35,0 13.39,-2.12 18.06,-6.32 4.71,-4.2 8.01,-11.41 9.95,-21.69l38.2 6.5c-3.96,17.55 -11.56,30.8 -22.78,39.76 -11.22,8.96 -26.27,13.44 -45.18,13.44 -21.41,0 -38.53,-6.79 -51.26,-20.33 -12.78,-13.58 -19.15,-32.35 -19.15,-56.35 0,-24.29 6.42,-43.15 19.2,-56.69 12.78,-13.53 30.08,-20.27 51.92,-20.27 17.82,0 32.02,3.86 42.58,11.55 10.52,7.69 18.06,19.38 22.69,35.13z"/>
  <path id="_7" fill="#373435" fill-rule="nonzero" d="M1246.46 1246.45l-35.08 -6.22c3.96,-14.34 10.8,-24.95 20.46,-31.84 9.67,-6.88 24.05,-10.32 43.11,-10.32 17.3,0 30.23,2.02 38.71,6.13 8.45,4.1 14.43,9.29 17.88,15.61 3.44,6.32 5.18,17.87 5.18,34.75l-0.56 45.27c0,12.88 0.61,22.4 1.84,28.53 1.22,6.14 3.53,12.69 6.93,19.67l-38.48 0c-0.99,-2.55 -2.26,-6.32 -3.73,-11.32 -0.61,-2.31 -1.08,-3.82 -1.36,-4.53 -6.61,6.51 -13.68,11.37 -21.23,14.62 -7.54,3.26 -15.56,4.91 -24.09,4.91 -15.05,0 -26.93,-4.1 -35.61,-12.31 -8.68,-8.16 -13.01,-18.53 -13.01,-31.08 0,-8.25 1.98,-15.65 5.94,-22.16 3.96,-6.46 9.48,-11.46 16.65,-14.9 7.12,-3.45 17.4,-6.46 30.84,-9.06 18.11,-3.39 30.7,-6.6 37.68,-9.52l0 -3.92c0,-7.54 -1.84,-12.92 -5.52,-16.17 -3.73,-3.21 -10.71,-4.81 -20.94,-4.81 -6.93,0 -12.31,1.36 -16.18,4.15 -3.91,2.73 -7.02,7.59 -9.43,14.52zm52.07 31.41c-4.96,1.65 -12.83,3.63 -23.63,5.94 -10.75,2.31 -17.83,4.57 -21.13,6.74 -5.04,3.64 -7.59,8.16 -7.59,13.68 0,5.47 2.03,10.14 6.08,14.1 4.06,3.96 9.2,5.94 15.47,5.94 6.98,0 13.68,-2.31 20.04,-6.88 4.67,-3.54 7.79,-7.78 9.25,-12.88 0.99,-3.3 1.51,-9.62 1.51,-18.91l0 -7.73z"/>
  <path id="_8" fill="#373435" fill-rule="nonzero" d="M1412.04 1348.03l-38.77 0 0 -146.85 35.94 0 0 20.84c6.18,-9.85 11.74,-16.31 16.69,-19.38 4.96,-3.06 10.57,-4.57 16.84,-4.57 8.86,0 17.4,2.45 25.61,7.31l-12.03 33.86c-6.55,-4.25 -12.64,-6.37 -18.25,-6.37 -5.47,0 -10.09,1.51 -13.86,4.48 -3.78,3.02 -6.75,8.39 -8.92,16.22 -2.17,7.83 -3.25,24.24 -3.25,49.19l0 45.27z"/>
  <path id="_9" fill="#373435" fill-rule="nonzero" d="M1619.77 1348.03l-35.94 0 0 -21.55c-5.99,8.39 -13.11,14.66 -21.27,18.91 -8.15,4.2 -16.41,6.32 -24.71,6.32 -16.93,0 -31.4,-6.79 -43.48,-20.42 -12.02,-13.63 -18.06,-32.59 -18.06,-56.97 0,-24.9 5.85,-43.86 17.59,-56.82 11.74,-12.97 26.55,-19.43 44.47,-19.43 16.41,0 30.65,6.83 42.63,20.46l0 -73.09 38.77 0 0 202.59zm-103.56 -76.26c0,15.71 2.17,27.07 6.46,34.1 6.27,10.19 14.99,15.28 26.22,15.28 8.91,0 16.5,-3.82 22.73,-11.46 6.27,-7.64 9.38,-19 9.38,-34.19 0,-16.93 -3.02,-29.1 -9.1,-36.55 -6.08,-7.45 -13.82,-11.17 -23.3,-11.17 -9.19,0 -16.88,3.67 -23.1,11.03 -6.18,7.36 -9.29,18.35 -9.29,32.96z"/>
  <polygon id="_10" fill="#373435" fill-rule="nonzero" points="1657.64,1348.03 1657.64,1309.27 1696.4,1309.27 1696.4,1348.03 "/>
 </g>
</svg>
