<?xml version="1.0" encoding="UTF-8"?>
<!DOCTYPE svg PUBLIC "-//W3C//DTD SVG 1.1//EN" "http://www.w3.org/Graphics/SVG/1.1/DTD/svg11.dtd">
<!-- Creator: CorelDRAW -->
<svg xmlns="http://www.w3.org/2000/svg" xml:space="preserve" width="29mm" height="11mm" version="1.1" shape-rendering="geometricPrecision" text-rendering="geometricPrecision" image-rendering="optimizeQuality" fill-rule="evenodd" clip-rule="evenodd"
viewBox="0 0 2900 1100"
 xmlns:xlink="http://www.w3.org/1999/xlink"
 xmlns:xodm="http://www.corel.com/coreldraw/odm/2003">
 <g id="Camada_x0020_1">
  <metadata id="CorelCorpID_0Corel-Layer"/>
  <g id="_2619740268800">
   <path fill="#32BBAD" d="M3.39 565.85c0,15.54 1.35,28.03 5.09,40.83 4.42,15.11 6.87,19.4 13.55,32.36 17.51,34 120,122.64 132.03,140.62 43.59,-3.63 82.43,4.32 115.3,-12.41 22.14,-11.26 50.08,-43.2 68.01,-61.14l96.86 -96.85c12.72,-12.76 21.22,-17.76 43.5,-21.15 8.04,-1.22 20,0.8 27.01,3.02 8.96,2.83 14.85,6.28 21.62,11.38 21.79,16.41 142.26,146.2 163.2,159.66 40.74,26.2 85.23,11.33 111.66,17.49l44.12 -44.85c21.94,-21.93 71.65,-68.35 85.87,-92.07 27.34,-45.59 27.9,-103.21 0.68,-148.73 -20.35,-34.03 -119.61,-121.15 -130.67,-137.66 -45.54,3.78 -74.22,-5.57 -110.06,16.21l-57.13 53.36c-2.23,2.36 -1.13,1.79 -4.2,4.41 -2.71,2.33 -1.69,0.84 -4.49,4.12 -1.83,2.15 -0.6,1.39 -3.31,3.86 -2.54,2.32 -1.75,0.79 -4.66,3.95l-86.51 87.12c-11.75,10.05 -28.71,19.25 -45.33,19.25 -36.47,0 -51.41,-21.99 -69.95,-40.54 -21.67,-21.67 -121.92,-125.33 -139.61,-135.9 -33.32,-19.93 -55.23,-14.44 -96.08,-14.41 -31.66,0.02 -20.28,-6.27 -39.82,13.27 -18.77,18.77 -36.48,36.48 -55.25,55.25 -35.6,35.6 -81.43,69.52 -81.43,139.55z"/>
   <path fill="#32BBAD" d="M195.67 818.4c1.81,6.76 56.01,58.15 62.06,64.21 21.4,21.4 41.74,41.74 63.14,63.14 48.47,48.47 83.46,96.5 157.49,96.5 20.66,0 37.67,-4.47 52.91,-10.23 39.57,-14.93 73.14,-56.28 103.14,-86.27l110.49 -110.49c4.57,-4.58 13.03,-10.6 14.71,-16.86 -84.53,0 -101.58,-27.68 -153.9,-80l-87.53 -87.53c-9.17,-9.18 -18.33,-23.32 -35.52,-23.32 -14.37,0 -26.76,15.99 -34.8,24.04l-119.1 119.1c-45.09,45.09 -70.65,47.71 -133.09,47.71z"/>
   <path fill="#32BBAD" d="M195.67 317.6c20.73,0 39.53,-0.73 56.35,2.49 15.81,3.02 31.66,9.59 43.52,16.75 21.92,13.23 97.86,93.11 121.47,116.72 10.4,10.4 19.74,19.74 30.14,30.14 42.42,42.42 43.22,29.24 99.73,-27.27 22.2,-22.19 99.39,-102.52 118.58,-115.31 31.64,-21.09 55.32,-23.52 94.15,-23.52 -1.81,-6.76 -54.57,-56.72 -60.63,-62.78l-124.9 -124.77c-10.83,-9.11 -23.46,-18.37 -37.48,-24.22 -55.21,-23.03 -108.33,-13.68 -154.6,23.58 -10.13,8.15 -147.7,147.41 -171.62,171.33 -4.58,4.58 -13.03,10.6 -14.71,16.86z"/>
   <path fill="#939598" d="M1165.7 387.91l0 585.46c0,22.65 31.05,25.76 36.51,4.94 2.7,-10.32 0.8,-521.96 0.8,-568.87 0,-43.21 1.87,-63.81 20.08,-100.46 12.34,-24.86 34.45,-48.34 57.12,-63.41 12.49,-8.31 24.31,-14.88 39.9,-20.36 12.9,-4.53 34.28,-9.49 50.79,-9.49l185.1 0c88.8,0 169.33,81.88 169.33,166.46l0 142.05c0,37.36 -21.36,85.38 -45.54,109.44 -28.29,28.14 -59.17,48.89 -101.42,55 -32.68,4.72 -216.28,0.87 -269.27,1.93 -28.83,0.58 -26.29,37.4 -1.34,37.4l239.63 0c37.25,0 60.17,-6.95 87.13,-17.63 13.69,-5.43 22.78,-11.17 34.28,-18.81l21.71 -17.03c3.37,-3.28 4.55,-3.53 7.91,-6.45 5.19,-4.52 7.26,-8.65 12.2,-13.62 28.95,-29.06 52.01,-88.48 52.01,-133.1l0 -136.32c0,-41.01 -14.8,-78.52 -33.96,-109.53 -36.62,-59.24 -108.8,-97.1 -179.84,-97.1l-173.63 0c-34.54,0 -60.54,8.9 -85.49,19.26 -29.41,12.21 -53.4,33.2 -74.13,56.45 -29.35,32.92 -49.88,86.91 -49.88,133.79z"/>
   <path fill="#939598" d="M2071.15 707.91c0,9.62 7.77,18.65 17.22,18.65 56.55,0 109.83,6.85 159.21,-23.02 24.01,-14.52 34.31,-27.72 54.24,-47.65l101.16 -101.16c11.59,-11.59 22.13,-22.13 33.72,-33.73 10.65,-10.65 23.36,-26.9 41.98,-26.9 20.23,0 32.04,15.54 42.68,26.19 26.11,26.1 154.07,156.26 173.79,172.03 47.9,38.31 96.07,34.24 156.61,34.24 23.31,0 25.79,-27.34 12.09,-35.05 -14.05,-7.9 -80.31,7.27 -123.29,-14.46 -30.71,-15.52 -58.43,-47.65 -84.31,-73.54 -16.56,-16.55 -121.67,-124.92 -138.52,-135.55 -21.15,-13.33 -55.52,-13.33 -76.67,0 -14.05,8.86 -49.35,46.38 -62.47,59.5 -27.38,27.38 -53.7,53.7 -81.08,81.08 -28.56,28.56 -53.17,59.15 -89.2,72.94 -55.92,21.4 -137.16,-10.57 -137.16,26.43z"/>
   <path fill="#939598" d="M2071.15 195.63c0,5.6 3,11.06 5.98,14.11 4.43,4.52 6.87,4.66 15.49,4.6 71.53,-0.47 115.5,-7.31 163.99,41.2 14.23,14.23 27.4,27.39 41.62,41.61 27.85,27.86 54.66,54.66 82.51,82.51 15.42,15.42 46.13,49.86 64.44,58.97 31.46,15.68 65.4,8.64 89.82,-15.92 13.7,-13.78 26.43,-26.44 40.17,-40.18l119.1 -119.1c14.68,-14.68 25.23,-25.36 45.07,-35.29 31.5,-15.76 68,-12.66 108.15,-12.38 8.11,0.05 11.83,0.1 17.01,-3.08 12.14,-7.46 10.59,-34.27 -11.31,-34.27 -66.9,0 -105.01,-5.93 -159.91,35.24 -10.59,7.94 -149.73,148.85 -169.05,168.16 -18,18.01 -22.49,27.63 -48.43,27.63 -17.35,0 -30.4,-16.77 -39.82,-26.19l-132.73 -132.73c-30.71,-30.71 -50.91,-55.72 -98.92,-67.54 -31.15,-7.66 -81.5,-4.57 -117.4,-4.57 -8.18,0 -15.78,9.82 -15.78,17.22z"/>
   <path fill="#939598" d="M1774.12 194.2c0,17.53 8.98,21.59 25.78,21.57 17.34,-0.02 72.45,-1.81 85.27,2.26 20.73,6.57 37.13,24.16 41.7,45.83 2.62,12.42 0.91,383.21 0.73,441.23 -0.11,36.4 37.36,28.91 37.36,8.56l0 -441.97c0,-12.66 -4.63,-27.96 -9.06,-36.85 -3.03,-6.07 -4.82,-9.28 -8.41,-14.55l-10.81 -13.58c-15.05,-15.06 -42.72,-28.29 -64.99,-28.29l-80.35 0c-7.74,0 -17.22,7.73 -17.22,15.79z"/>
   <path fill="#32BBAD" d="M1890.34 76.53c0,19.49 7.05,20.68 24.04,37.67 16.7,16.69 28.54,34.24 49.52,12.92l27.97 -27.99c22.27,-22.01 5.72,-32.3 -12.2,-50.22 -16.98,-16.99 -18.18,-24.04 -37.67,-24.04 -10.1,0 -22.84,16.39 -29.05,22.6 -6.22,6.22 -22.61,18.95 -22.61,29.06z"/>
   <path fill="#939598" d="M2046.75 960.46l-11.48 0 0 -17.22c15.68,0 37.31,-3.33 37.31,8.61 0,9.04 -18.44,8.61 -25.83,8.61zm11.49 -30.14l-22.97 0 0 -15.78c13,0 20.69,-1.1 31.58,1.44 0.66,2.88 5.37,14.34 -8.61,14.34zm-40.19 38.75c0,6.62 8.07,4.3 24.4,4.3 7.88,0 24.26,-0.58 30.74,-2.26 15,-3.88 27.09,-22.67 3.7,-35.05 6.27,-8.55 8.61,-2.05 8.61,-18.65 0,-21.35 -45.5,-15.79 -67.45,-15.79l0 67.45z"/>
   <path fill="#939598" d="M2434.19 934.63l0 8.61c0,15.67 13.1,30.13 28.7,30.13 7.13,0 41.62,1.13 41.62,-7.17l0 -10.05c-11.66,0 -34.82,9.61 -46.38,-0.97 -11.48,-10.51 -10.5,-40.64 14.8,-40.64l30.14 0 0 -12.92c-10.8,-2.51 -17.26,-1.43 -30.14,-1.43 -22.94,0 -38.74,11.78 -38.74,34.44z"/>
   <path fill="#939598" d="M2544.68 928.89l2.87 0c8.14,0 13.71,2.35 14.35,10.04l-31.57 0c0.64,-7.69 6.22,-10.04 14.35,-10.04zm-31.57 15.78c0,30.54 20.55,28.7 37.31,28.7 27.94,0 25.83,-3.94 25.83,-14.35 -14.93,0.34 -44.34,10.31 -45.92,-8.61l47.35 0c0,-33.25 -12.73,-31.57 -40.17,-31.57 -13.84,0 -24.4,12.13 -24.4,25.83z"/>
   <path fill="#939598" d="M2784.32 956.15c0,-8.46 19.21,-5.74 31.57,-5.74 0,12.35 -2.18,11.48 -25.83,11.48 -3.36,0 -5.74,-2.38 -5.74,-5.74zm-7.18 -28.7c0,5.94 3.28,2.71 21.59,2.8 9.62,0.05 16.42,1.25 17.16,10.12 -13.48,-1.35 -47.36,-5.43 -47.36,15.78 0,21.87 26.9,18.37 41.29,15.32 13.61,-2.89 3.45,1.9 17.54,1.9 7.19,0 4.31,-12.23 4.31,-31.56 0,-28.6 -23.9,-22.97 -54.53,-22.97l0 8.61z"/>
   <path fill="#939598" d="M2118.5 951.85c10.8,-2.52 17.26,-1.44 30.13,-1.44l0 10.05c-13.53,0 -15.07,3.5 -30.13,0l0 -8.61zm-8.61 -28.7l0 7.17c20.58,0 37.62,-3.53 38.74,10.05 -19.13,-1.91 -45.91,-5.88 -45.91,18.65 0,23.42 42.36,11.48 45.91,11.48 2.22,0 15.79,7.66 15.79,-1.43 0,-52.28 4.38,-50.23 -50.22,-50.23 -3.31,0 -4.31,1 -4.31,4.31z"/>
   <path fill="#939598" d="M2352.4 930.32c12.11,0 19.05,3.85 19.76,14.6 1.53,23.28 -36.2,22.66 -37.73,2.28 -0.89,-11.84 5.54,-16.88 17.97,-16.88zm-34.44 15.79c0,30.35 27.56,27.26 44.48,27.26 32.96,0 37.2,-54.53 -1.43,-54.53 -16.88,0 -43.05,-2.94 -43.05,27.27z"/>
   <path fill="#939598" d="M2596.34 920.28l-4.3 0 0 48.79c0,5.43 3.34,4.3 11.47,4.3 6.99,0 4.45,-15.53 4.22,-28.78 -0.16,-9.8 -4.09,-12.83 23.05,-12.83 3.87,0 3.95,0.69 7.17,1.44 7.63,15.89 -3.01,40.17 7.18,40.17 14.7,0 11.48,4.51 11.48,-34.44 0,-25.82 -27.63,-20.86 -43.89,-17.94 -6.34,1.14 -9.4,-0.71 -16.38,-0.71z"/>
   <path fill="#939598" d="M2185.95 920.28l-4.31 0 0 48.79c0,7.38 11.7,3.82 15.79,2.87 0,-10.05 -0.25,-20.31 -0.17,-30.3 0.07,-7.89 -2.25,-9.88 23.13,-9.88 3.87,0 3.95,0.69 7.17,1.44 10.94,22.79 -11.53,45.77 18.65,38.74 0,-18.29 5.63,-53.1 -17.22,-53.1 -16.58,0 -11.11,-0.64 -26.66,2.15 -6.35,1.14 -9.41,-0.71 -16.38,-0.71z"/>
   <path fill="#939598" d="M2257.69 944.67c0,29.49 17.5,28.7 34.44,28.7 22.4,0 20.09,-5.45 20.09,-14.35 -6.38,0 -16.34,2.13 -21.75,2.32 -17.59,0.62 -15.56,-11.2 -15.56,-18.1 0,-23.57 35.87,-2.96 35.87,-15.79 0,-10.88 2.43,-8.61 -27.26,-8.61 -14.37,0 -25.83,11.46 -25.83,25.83z"/>
   <path fill="#939598" d="M2675.26 920.28l-10.04 0 0 11.48 10.04 0c0,44.84 3.59,42.98 37.31,40.18l0 -11.48c-22.68,0 -21.53,4.81 -21.53,-28.7l20.1 0 0 -11.48c-23.5,0 -20.1,3.17 -20.1,-15.79l-14.34 0c0,7.96 -1.3,9.55 -1.44,15.79z"/>
   <path fill="#939598" d="M1467.04 973.37c7.75,-1.8 5.12,-2.83 12.93,-18.63 1.85,-3.75 2.8,-6.83 4.76,-11.03 2.16,-4.63 4.09,-6.93 5.27,-11.95 7.48,5.48 15.29,36.48 22.95,41.61 7.45,-1.99 8.79,-13.66 13.86,-24.89 4.29,-9.5 7.45,-19.65 11.97,-28.2l-8.61 0c-1.54,3.21 -2.38,6.65 -3.87,10.47l-11.91 31.14c-3.85,-4.43 -17.81,-37.99 -18.66,-41.61l-8.6 0c-2.13,9.12 -14.36,29.3 -17.22,41.61 -2,-2.29 -1.4,-1.61 -2.71,-4.46l-14.51 -37.15 -8.61 0c1.45,6.24 18.62,48.98 22.96,53.09z"/>
   <path fill="#939598" d="M1878.87 966.2c-8.66,0 -18.33,0.73 -25.83,-2.87l0 -34.44c12.49,-1.04 8.15,-2.87 30.13,-2.87 19.05,0 23.47,40.18 -4.3,40.18zm-33.01 2.87c0,7.76 0.19,1.7 8,2.11 6.45,0.33 52.27,12.49 52.27,-23.64 0,-39.47 -31.16,-27.65 -53.09,-25.83 0,-23.18 2.73,-24.17 -7.18,-24.39l0 71.75z"/>
   <path fill="#939598" d="M1738.24 947.54c0,-23.38 18.15,-24.64 37.22,-21.43 11.52,1.94 8.7,1.56 8.7,32.91 0,7.66 -22.33,7.18 -30.13,7.18 -10.05,0 -15.79,-8.28 -15.79,-18.66zm45.92 -45.92l0 18.66c-17.86,0 -49.5,-10.8 -54.04,23.55 -0.76,5.72 1.82,16.53 4.34,20.41 8.87,13.59 31.86,8.99 44.35,6.41 12.26,-2.53 0.45,3.85 12.53,1.29l0 -57.41c0.09,-16.7 1.6,-13.93 -2.88,-17.21 -3.19,0.85 -4.3,0.34 -4.3,4.3z"/>
   <path fill="#939598" d="M1574.66 924.59c13.62,0 22.95,3.17 22.95,17.22l-43.04 0c0.28,-12.57 9.96,-17.22 20.09,-17.22zm-28.7 18.65c0,28.73 11.55,30.13 35.87,30.13 8.52,0 14.7,-1.28 21.53,-2.87l0 -7.17c-13.95,3.24 -17.52,2.87 -31.58,2.87 -13.96,0 -16.01,-5.91 -18.65,-17.22l43.18 0.12c5.34,0.04 9.91,1.11 9.91,-4.43 0,-27.71 -20.57,-25.83 -35.87,-25.83 -14.11,0 -24.39,10.28 -24.39,24.4z"/>
   <path fill="#939598" d="M1335.02 966.2c-9.06,0 -20.85,0.89 -28.7,-2.87l0 -34.44c10.39,-0.86 34.62,-8.55 42.53,3.39 6.51,9.81 4.11,33.92 -13.83,33.92zm-35.87 -45.92l0 70.31 7.17 0 0 -20.09c9.75,4.68 53.1,8.61 53.1,-21.52 0,-27.41 -8.97,-30.14 -31.57,-30.14 -6.83,0 -8.11,0.67 -14,1.89 -8.77,1.8 -6.3,-0.26 -14.7,-0.45z"/>
   <path fill="#939598" d="M1688.02 924.59c13.66,0 22.65,3.52 22.96,17.22l-44.49 0c1.6,-3.33 2.7,-17.22 21.53,-17.22zm-28.7 15.78c0,30.16 8.05,33 35.87,33 8.52,0 14.7,-1.28 21.53,-2.87l0 -7.17c-13.95,3.24 -17.52,2.87 -31.57,2.87 -12.1,0 -17.72,-5.99 -18.66,-17.22l43.18 0.12c7.58,0.06 9.92,0.98 9.92,-5.86 0,-32.48 -43.48,-26.5 -52.76,-18.32 -2.87,2.52 -7.51,10.54 -7.51,15.45z"/>
   <path fill="#939598" d="M1402.46 924.59c36.32,0 25.54,32.55 21.97,36.31 -6.96,7.31 -48.23,13.18 -45.78,-17.19 0.56,-6.9 2.64,-11.34 6.92,-14.5 2.92,-2.15 12.37,-4.62 16.89,-4.62zm-31.56 18.65c0,32.59 19.53,30.13 43.04,30.13 28.13,0 33.2,-54.53 -1.43,-54.53 -15.05,0 -41.61,-2.86 -41.61,24.4z"/>
   <path fill="#939598" d="M2848.89 969.07c0,6.56 15.79,6.56 15.79,0l0 -67.45c0,-5.86 -4.5,-4.3 -15.79,-4.3l0 71.75z"/>
   <path fill="#939598" d="M1937.7 971.94c0,2.88 -5.45,9.66 -7.52,11.14 -11.17,8 -17.22,-5.51 -18.31,7.51 4.11,2.31 7.25,1.44 14.35,1.44 13.7,0 20.9,-21.71 25.83,-31.57 3.7,-7.4 18.06,-33.06 18.65,-40.18 -10.01,0 -7.66,0.98 -16.26,18.18 -3.13,6.26 -9.59,17.35 -11,23.43l-2.87 0c-2.49,-10.67 -18.46,-34.61 -20.09,-41.61l-8.61 0c1.1,4.7 3.57,9.03 5.8,12.85l20.03 38.81z"/>
   <path fill="#939598" d="M2729.79 920.28l-5.74 0 0 48.79c0,5.43 3.35,4.3 11.48,4.3 6.98,0 4.45,-15.53 4.22,-28.78 -0.18,-10.39 -3.82,-12.83 24.48,-12.83l0 -12.92 -19.75 1.89c-7.46,1.46 -6.24,-0.45 -14.69,-0.45z"/>
   <path fill="#939598" d="M1622.01 920.28l-0.14 43.19c-0.04,8.37 -1.11,8.27 5.88,9.9 3.95,-8.23 1.44,-32.88 1.44,-44.48 5.81,-0.49 8.51,-2.4 14.47,-2.74 9.48,-0.55 11.14,2.61 11.35,-7.31l-19.73 1.88c-7,1.26 -4.83,-0.44 -13.27,-0.44z"/>
  </g>
 </g>
</svg>
