<?xml version="1.0" encoding="UTF-8"?>
<svg id="Camada_1" data-name="Camada 1" xmlns="http://www.w3.org/2000/svg" viewBox="0 0 64 64.08">
  <defs>
    <style>
      .cls-1 {
        fill: #1fa016;
      }
    </style>
  </defs>
  <path class="cls-1" d="M.13,63.89c-.63-.58,3.63-12.73,3.61-15.28-.02-3.13-3.08-7.88-3.53-12.16C-3.34,2.67,39.08-13.32,58.04,13.5c16.1,22.78-2.54,53.44-30.46,50.32-3.58-.4-9.14-3.47-11.43-3.5-2.73-.03-14.74,4.76-16.02,3.57ZM7.95,56.79c2.86-.2,6.07-2.3,8.87-2.18s6.67,3.1,10.03,3.54c33.08,4.34,42.79-38.57,16.14-50.22C22.69-.95.89,16.83,6.14,38.34c.66,2.72,2.85,5.98,3.19,8.19.6,3.92-1.63,6.51-1.38,10.25Z"/>
  <path class="cls-1" d="M23.48,17.83c.34.21,2.92,6.56,2.95,7.43.11,2.91-3.98,2.75-1.02,7.34,1.17,1.82,6.59,6.56,8.65,7.01,4.55.99,3.5-3.17,6.27-3.45.82-.08,7.11,2.64,7.32,2.98,2.43,3.88-3.33,8.4-7.34,8.42-9.59.04-25.97-14.39-24.5-24.47.5-3.46,4.27-7.38,7.67-5.26Z"/>
</svg>