<?xml version="1.0" encoding="UTF-8"?>
<svg id="Camada_1" data-name="Camada 1" xmlns="http://www.w3.org/2000/svg" viewBox="0 0 64.01 64.02">
  <defs>
    <style>
      .cls-1 {
        fill: #fefefe;
      }
    </style>
  </defs>
  <path class="cls-1" d="M0,63.96l5.46-16.36C-8.96,22.33,13.95-7.17,42.73,1.57c34.36,10.43,25.61,65.2-15.59,60.25-3.24-.39-7.9-3.27-9.91-3.31-2.58-.05-16.68,6.16-17.24,5.46ZM9.14,54.98c.36.37,7.35-2.6,8.93-2.6.98,0,6.98,3.39,9.88,3.8,21.3,3.04,37.62-17.81,27.71-36.91C43.01-5.14,2.95,5.04,7.21,35.79c.5,3.58,4.42,9.55,4.47,10.53.07,1.53-3.31,7.85-2.54,8.65Z"/>
  <path class="cls-1" d="M21.6,15.71c2.13-.45,3.22-.15,4.25,1.76.43.8,2.25,6.14,2.22,6.78-.07,1.67-2.77,3.29-2.64,4.71.24,2.78,9.67,11.19,12.21,9.52,1.34-.89,1.78-3.49,3.46-3.54.81-.02,6.95,3.06,7.47,3.76,2.61,3.45-3.04,7.83-6.76,8.03-10.7.56-28.32-15.9-24.39-26.79.54-1.5,2.53-3.87,4.18-4.22Z"/>
</svg>