<?xml version="1.0" encoding="UTF-8"?>
<!DOCTYPE svg PUBLIC "-//W3C//DTD SVG 1.1//EN" "http://www.w3.org/Graphics/SVG/1.1/DTD/svg11.dtd">
<!-- Creator: CorelDRAW -->
<svg xmlns="http://www.w3.org/2000/svg" xml:space="preserve" width="64px" height="64px" version="1.1" style="shape-rendering:geometricPrecision; text-rendering:geometricPrecision; image-rendering:optimizeQuality; fill-rule:evenodd; clip-rule:evenodd"
viewBox="0 0 64 64"
 xmlns:xlink="http://www.w3.org/1999/xlink"
 xmlns:xodm="http://www.corel.com/coreldraw/odm/2003">
 <defs>
  <style type="text/css">
   <![CDATA[
    .fil0 {fill:#FF6EC7}
   ]]>
  </style>
 </defs>
 <g id="Camada_x0020_1">
  <metadata id="CorelCorpID_0Corel-Layer"/>
  <path class="fil0" d="M5.238 51.204c-0.502,-9.54 -1.578,-29.078 -1.594,-30.84l28.698 33.613 18.674 -22.044 9.767 -11.622 -0.944 15.807c-0.776,14.608 0,0.897 -0.777,15.505 -4.187,-3.265 -7.805,-6.666 -13.014,-11.037 -0.975,1.157 0.168,-0.2 -0.807,0.957l15.334 12.817 2.169 -43.707 -11.02 12.872 -19.484 23.071 -30.843 -35.906 2.523 43.462 15.358 -12.711c-0.97,-1.131 0.113,0.132 -0.905,-1.055 -4.194,3.541 -7.935,6.463 -13.135,10.818z"/>
  <path class="fil0" d="M32.292 30.332l6.475 5.605c0.806,-0.956 0,0 0.806,-0.956 -2.421,-2.146 -5.3,-4.884 -7.38,-6.676 -2.397,2.1 -4.942,4.475 -7.313,6.526 0.905,1.056 0,0 0.905,1.056l6.507 -5.555z"/>
  <path class="fil0" d="M32.184 8.255c-3.433,8.618 0,0 -3.433,8.618 3.435,7.275 0.112,0.116 3.435,7.275 3.614,-7.267 0,0 3.614,-7.267 -3.616,-8.626 0,0 -3.616,-8.626z"/>
 </g>
</svg>
