<?xml version="1.0" encoding="UTF-8"?>
<!DOCTYPE svg PUBLIC "-//W3C//DTD SVG 1.1//EN" "http://www.w3.org/Graphics/SVG/1.1/DTD/svg11.dtd">
<!-- Creator: CorelDRAW -->
<svg xmlns="http://www.w3.org/2000/svg" xml:space="preserve" width="66.1458mm" height="66.1458mm" version="1.1" style="shape-rendering:geometricPrecision; text-rendering:geometricPrecision; image-rendering:optimizeQuality; fill-rule:evenodd; clip-rule:evenodd"
viewBox="0 0 6614.58 6614.58"
 xmlns:xlink="http://www.w3.org/1999/xlink"
 xmlns:xodm="http://www.corel.com/coreldraw/odm/2003">
 <defs>
  <style type="text/css">
   <![CDATA[
    .fil1 {fill:white;fill-rule:nonzero}
    .fil0 {fill:url(#id0);fill-rule:nonzero}
   ]]>
  </style>
  <radialGradient id="id0" gradientUnits="userSpaceOnUse" gradientTransform="matrix(15.2219 -0 -0 15.2219 -39949 -42935)" cx="2808.94" cy="3018.91" r="613.09" fx="2808.94" fy="3018.91">
   <stop offset="0" style="stop-opacity:1; stop-color:#9CD4F6"/>
   <stop offset="0.0784314" style="stop-opacity:1; stop-color:#97D3F4"/>
   <stop offset="0.160784" style="stop-opacity:1; stop-color:#89CDF2"/>
   <stop offset="0.258824" style="stop-opacity:1; stop-color:#70C6EF"/>
   <stop offset="0.360784" style="stop-opacity:1; stop-color:#4DBAE9"/>
   <stop offset="0.458824" style="stop-opacity:1; stop-color:#23ACE2"/>
   <stop offset="0.501961" style="stop-opacity:1; stop-color:#0CA5DF"/>
   <stop offset="1" style="stop-opacity:1; stop-color:#2D77BC"/>
  </radialGradient>
 </defs>
 <g id="Camada_x0020_1">
  <metadata id="CorelCorpID_0Corel-Layer"/>
  <g id="_2619741044720">
   <path class="fil0" d="M3807.16 2810.94l-1218.94 0 0 1223.34 1218.94 0 0 -403.73c4.84,-7 7.23,-15.96 7.23,-26.9 0,-12.53 -2.39,-20.29 -7.23,-26.83l0 -765.88z"/>
   <path class="fil1" d="M2698.1 3340.3l-23.45 -57.14 -23.32 57.14 46.77 0zm516.59 -22.75l0 0c-4.71,2.85 -10.28,2.95 -16.95,2.95l-41.62 0 0 -31.84 42.19 0c5.97,0 12.2,0.27 16.24,2.59 4.45,2.09 7.2,6.53 7.2,12.67 0,6.27 -2.62,11.31 -7.06,13.63zm296.91 22.75l0 0 -23.7 -57.14 -23.58 57.14 47.28 0zm-553.46 61.85l0 0 -35.13 0 -0.13 -112.26 -49.68 112.26 -30.08 0 -49.8 -112.36 0 112.36 -69.69 0 -13.16 -31.97 -71.34 0 -13.3 31.97 -37.21 0 61.35 -143.34 50.9 0 58.28 135.71 0 -135.71 55.91 0 44.84 97.24 41.19 -97.24 57.04 0 0 143.34 0.01 0zm139.98 0l0 0 -114.45 0 0 -143.34 114.45 0 0 29.85 -80.19 0 0 25.84 78.27 0 0 29.38 -78.27 0 0 28.62 80.19 0 0 29.65zm161.37 -104.73l0 0c0,22.85 -15.25,34.66 -24.14,38.2 7.5,2.86 13.9,7.9 16.95,12.07 4.83,7.13 5.67,13.5 5.67,26.3l0 28.16 -34.56 0 -0.13 -18.08c0,-8.62 0.83,-21.02 -5.41,-27.92 -5,-5.04 -12.63,-6.13 -24.96,-6.13l-36.78 0 0 52.13 -34.26 0 0 -143.34 78.8 0c17.51,0 30.41,0.47 41.48,6.87 10.84,6.4 17.34,15.75 17.34,31.74zm54.83 104.73l0 0 -34.96 0 0 -143.34 34.96 0 0 143.34zm405.56 0l0 0 -48.55 0 -64.94 -107.58 0 107.58 -69.77 0 -13.34 -31.97 -71.17 0 -12.93 31.97 -40.09 0c-16.66,0 -37.74,-3.68 -49.68,-15.85 -12.04,-12.18 -18.31,-28.66 -18.31,-54.73 0,-21.25 3.75,-40.69 18.47,-56.04 11.08,-11.44 28.42,-16.72 52.03,-16.72l33.17 0 0 30.72 -32.47 0c-12.5,0 -19.56,1.86 -26.36,8.49 -5.85,6.03 -9.85,17.44 -9.85,32.47 0,15.35 3.05,26.43 9.42,33.66 5.27,5.67 14.86,7.39 23.88,7.39l15.38 0 48.29 -112.72 51.34 0 58 135.57 0 -135.57 52.16 0 60.23 99.83 0 -99.83 35.09 0 0 143.33zm-1131.66 28.15l0 0 58.54 0 13.2 -31.83 29.55 0 13.16 31.83 115.18 0 0 -24.34 10.28 24.44 59.8 0 10.28 -24.8 0 24.7 286.23 0 -0.13 -52.26 5.54 0c3.87,0.14 5.01,0.5 5.01,6.9l0 45.36 148.04 0 0 -12.16c11.94,6.39 30.52,12.16 54.96,12.16l62.27 0 13.33 -31.83 29.55 0 13.04 31.83 120.02 0 0 -30.24 18.18 30.24 96.17 0 0 -199.91 -95.18 0 0 23.61 -13.33 -23.61 -97.67 0 0 23.61 -12.24 -23.61 -131.92 0c-22.09,0 -41.5,3.09 -57.18,11.68l0 -11.68 -91.04 0 0 11.68c-9.98,-8.86 -23.58,-11.68 -38.69,-11.68l-332.61 0 -22.31 51.64 -22.92 -51.64 -104.77 0 0 23.61 -11.5 -23.61 -89.35 0 -41.49 95.05 0 104.86 0 0z"/>
   <path class="fil1" d="M3807.16 3536.03l-62.44 0c-6.23,0 -10.38,0.23 -13.87,2.59 -3.61,2.32 -5,5.77 -5,10.31 0,5.42 3.05,9.09 7.49,10.68 3.61,1.26 7.5,1.62 13.2,1.62l18.57 0.5c18.74,0.47 31.25,3.69 38.87,11.55 1.39,1.09 2.22,2.32 3.18,3.54l0 -40.79zm0 94.52l0 0c-8.32,12.17 -24.54,18.34 -46.49,18.34l-66.17 0 0 -30.74 65.9 0c6.53,0 11.11,-0.86 13.86,-3.56 2.39,-2.21 4.06,-5.44 4.06,-9.34 0,-4.18 -1.67,-7.49 -4.19,-9.49 -2.48,-2.18 -6.1,-3.18 -12.07,-3.18 -32.17,-1.09 -72.3,1 -72.3,-44.37 0,-20.8 13.2,-42.69 49.15,-42.69l68.25 0 0 -28.52 -63.41 0c-19.13,0 -33.04,4.58 -42.88,11.71l0 -11.71 -93.78 0c-15,0 -32.61,3.71 -40.93,11.71l0 -11.71 -167.48 0 0 11.71c-13.33,-9.62 -35.82,-11.71 -46.2,-11.71l-110.47 0 0 11.71c-10.54,-10.22 -33.99,-11.71 -48.29,-11.71l-123.63 0 -28.29 30.62 -26.5 -30.62 -184.68 0 0 200.04 181.21 0 29.15 -31.09 27.46 31.09 111.7 0.11 0 -47.06 10.98 0c14.82,0.23 32.3,-0.37 47.72,-7.04l0 53.99 92.13 0 0 -52.14 4.44 0c5.67,0 6.23,0.24 6.23,5.91l0 46.23 279.88 0c17.77,0 36.34,-4.55 46.62,-12.8l0 12.8 88.78 0c18.47,0 36.52,-2.59 50.24,-9.23l0 -37.26zm-136.66 -57.27l0 0c6.67,6.9 10.24,15.61 10.24,30.37 0,30.84 -19.27,45.24 -53.82,45.24l-66.73 0 0 -30.74 66.46 0c6.5,0 11.11,-0.86 14,-3.56 2.35,-2.21 4.05,-5.44 4.05,-9.34 0,-4.18 -1.83,-7.5 -4.19,-9.49 -2.62,-2.18 -6.23,-3.18 -12.2,-3.18 -32.04,-1.09 -72.16,1 -72.16,-44.37 0,-20.8 13.06,-42.69 48.98,-42.69l68.69 0 0 30.52 -62.85 0c-6.23,0 -10.28,0.23 -13.73,2.59 -3.75,2.32 -5.14,5.76 -5.14,10.31 0,5.41 3.19,9.09 7.5,10.68 3.61,1.26 7.49,1.62 13.33,1.62l18.44 0.5c18.6,0.46 31.37,3.68 39.13,11.54zm-309.16 -8.86l0 0c-4.58,2.72 -10.25,2.95 -16.91,2.95l-41.62 0 0 -32.2 42.18 0c6.1,0 12.21,0.13 16.35,2.59 4.45,2.32 7.1,6.77 7.1,12.9 0,6.13 -2.65,11.07 -7.1,13.76zm20.7 17.84l0 0c7.62,2.82 13.86,7.86 16.78,12.04 4.84,7 5.54,13.53 5.67,26.17l0 28.42 -34.39 0 0 -17.94c0,-8.62 0.83,-21.4 -5.54,-28.06 -5,-5.14 -12.63,-6.37 -25.14,-6.37l-36.61 0 0 52.37 -34.43 0 0 -143.37 79.1 0c17.35,0 29.98,0.76 41.23,6.77 10.81,6.53 17.61,15.47 17.61,31.83 0,22.88 -15.27,34.56 -24.28,38.14zm43.28 -76.74l0 0 114.34 0 0 29.65 -80.23 0 0 26.06 78.28 0 0 29.26 -78.28 0 0 28.52 80.23 0.13 0 29.75 -114.34 0 0 -143.37zm-231.16 66.16l0 0 -44.27 0 0 -36.51 44.67 0c12.37,0 20.95,5.04 20.95,17.58 0,12.4 -8.18,18.93 -21.35,18.93zm-78.39 64.17l0 0 -52.61 -58.4 52.61 -56.54 0 114.94zm-135.85 -16.84l0 0 -84.23 0 0 -28.52 75.21 0 0 -29.26 -75.21 0 0 -26.06 85.89 0 37.48 41.78 -39.14 42.06zm272.38 -66.26l0 0c0,39.83 -29.71,48.05 -59.66,48.05l-42.75 0 0 48.09 -66.6 0 -42.18 -47.46 -43.84 47.46 -135.71 0 0 -143.37 137.79 0 42.16 46.99 43.57 -46.99 109.48 0c27.19,0 57.74,7.53 57.74,47.23z"/>
  </g>
 </g>
</svg>
