<?xml version="1.0" encoding="UTF-8"?>
<!DOCTYPE svg PUBLIC "-//W3C//DTD SVG 1.1//EN" "http://www.w3.org/Graphics/SVG/1.1/DTD/svg11.dtd">
<!-- Creator: CorelDRAW -->
<svg xmlns="http://www.w3.org/2000/svg" xml:space="preserve" width="66.1458mm" height="66.1458mm" version="1.1" style="shape-rendering:geometricPrecision; text-rendering:geometricPrecision; image-rendering:optimizeQuality; fill-rule:evenodd; clip-rule:evenodd"
viewBox="0 0 6614.58 6614.58"
 xmlns:xlink="http://www.w3.org/1999/xlink"
 xmlns:xodm="http://www.corel.com/coreldraw/odm/2003">
 <defs>
  <style type="text/css">
   <![CDATA[
    .fil2 {fill:black}
    .fil3 {fill:#7D7D7D}
    .fil0 {fill:#FEFEFE}
    .fil1 {fill:white}
   ]]>
  </style>
 </defs>
 <g id="Camada_x0020_1">
  <metadata id="CorelCorpID_0Corel-Layer"/>
  <g id="_2619740244656">
   <path class="fil0" d="M2084.41 2901.22l2235.43 0c21.93,0 39.71,18.32 39.71,40.91l0 992.83c0,22.59 -17.78,40.91 -39.71,40.91l-2235.43 0c-21.93,0 -39.71,-18.32 -39.71,-40.91l0 -992.83c0,-22.59 17.78,-40.91 39.71,-40.91z"/>
   <path class="fil1" d="M3097.69 3415.06l59.63 0.28 -0.25 487.21 -59.87 -0.05 0.49 -487.44zm842.07 127.74c51.85,-6.39 95.95,7.71 132.95,39.2 69.47,59.13 67.28,204.26 21.67,264.75 -22.35,29.64 -58.89,56.32 -112.76,62.26 -53.16,5.86 -94.68,-7.37 -132.69,-38.56 -33.39,-27.4 -49.63,-76.84 -52.84,-121.58 -8.24,-114.81 40.29,-193.34 143.67,-206.07zm-1096.51 -0.16c106.74,-10.86 179.38,57.58 184.98,163.05 2.93,55.33 -5.81,106.1 -32.35,142.14 -21.4,29.04 -60.93,55.92 -113.42,61.35 -46.28,4.79 -102.55,-8.31 -132.73,-40.18 -3.52,-3.72 -7.62,-7.05 -11.29,-11.33 -26.52,-30.97 -37.61,-69.84 -40.34,-111.91 -6.6,-101.76 34.57,-191.88 145.15,-203.12zm709.51 253.38c-2.05,18.41 -18.53,46.78 -27.01,57.77 -11.55,14.95 -25.33,27.78 -44.91,38.11 -38.25,20.18 -94.45,23.72 -139.43,10.64 -83.73,-24.35 -124.6,-110.13 -108.18,-217.15 15.12,-98.54 89.43,-155.67 188.22,-141.98 98.31,13.62 140.71,106.73 133.35,197.19 -7.17,2.45 -114.73,0.77 -131.86,0.77 -21.21,0 -118.81,-1.11 -131.04,0.28 -0.35,26.47 10.05,57.08 22.09,75.17 30.34,45.58 93.97,57.57 136.88,28.93 15.31,-10.23 33.55,-32.85 39.66,-57.75l62.23 8.02zm86.21 -333.95c3.84,-3.36 56.4,-34.79 59.95,-35.76l0.31 122.77 59.59 0.59 -0.09 45.97 -59.7 0.26 -0.1 211.14c0,19.12 0.63,32.52 13.75,40.11 14.85,8.58 31.04,1.54 46.25,2.28l7.97 52.68c-30.53,6.61 -70.17,9.53 -96.25,-5.37 -27.19,-15.53 -30.77,-39.92 -31.61,-79.09 -0.79,-36.77 -0.23,-74.04 -0.23,-110.87 0,-35.54 1.81,-76.09 -0.17,-111.06l-43.92 -0.37 -0.07 -46.17 44.13 -0.12 0.19 -86.99zm-1367.9 -46.84c24.55,-1.72 55.11,-0.17 80.32,-0.17 26.59,0 53.18,0 79.77,0 52.62,0 94.76,0.3 132.95,26.18 49.09,33.27 71.01,107.65 28.45,166.05 -8.2,11.25 -19.9,21.07 -31.86,28.51 -4.29,2.66 -8.72,4.23 -12.04,7.46 27.65,10.78 39.3,15.34 57.15,33.33 35.45,35.75 41.91,91 23.83,137.05 -18.43,46.93 -49,70.35 -98.14,81.84 -42.8,10.01 -123.78,7.09 -171.49,7.09 -27.89,0 -61.81,1.74 -89.31,-0.17l0.37 -487.17zm1904.91 -31.86c-2.65,1.65 -22.39,1.59 -24.94,0l-13.62 0c-3.13,1.77 -28.72,1.76 -31.85,0l-54.64 0c-2.5,1.56 -54.72,1.56 -57.22,0l-27.54 0c-3.26,1.74 -28.85,1.81 -32.05,0l-32.04 0c-2.86,1.82 -99.52,1.77 -102.83,0l-27.53 0c-2.78,1.74 -29.64,1.74 -32.43,0l-12.64 0c-2.74,1.55 -54.83,1.62 -57.43,0l-21.27 0c-2.65,1.52 -22.23,1.76 -25,0l-13.58 0c-3.2,1.7 -28.76,1.85 -32.03,0l-41.79 0c-2.83,1.78 -29.66,1.69 -32.34,0l-12.85 0c-3.46,2.15 -54.01,2.05 -57.33,0l-21.45 0c-2.63,1.67 -22.26,1.58 -24.8,0l-13.68 0c-3.22,1.82 -28.68,1.75 -31.96,0l-54.61 0c-2.59,1.65 -54.69,1.52 -57.35,0l-40.35 0c-3.67,2.07 -20.56,2.15 -24.37,0l-13.68 0c-2.73,1.7 -29.45,1.79 -32.34,0l-54.54 0c-3.08,1.65 -53.85,1.68 -56.99,0l-27.53 0c-2.72,1.7 -29.52,1.78 -32.34,0l-31.94 0c-3.37,1.8 -100.04,1.8 -102.9,0l-46.02 0c-3.22,1.82 -28.68,1.74 -31.97,0l-13.15 0c-4.15,2.22 -52.88,2.25 -56.87,0l-21.91 0c-3.78,2.14 -20.67,2.06 -24.53,0l-13.52 0c-2.79,1.74 -29.62,1.74 -32.43,0l-54.45 0c-3.76,2 -53.63,2.41 -57.58,0l-26.95 0c-2.72,1.7 -29.51,1.78 -32.34,0l-31.93 0c-3.48,1.85 -99.78,1.9 -103.11,0l-26.29 -0.12c-10.23,0.08 -6.34,3.22 -6.34,38.93l0 501.28 1969.54 0 0 -494.81c0,-11.83 -0.17,-23.79 0.03,-35.61 0.21,-12.07 3.64,-9.67 -26.4,-9.67z"/>
   <path class="fil2" d="M2471.32 3844.76c-3.37,1.57 -124.43,2.06 -135.64,0.63 -2.07,-6.11 -1.91,-162.92 0.08,-168.25 9.95,-1.07 127.96,-1.19 130.5,0.99 24.36,-2.45 60.14,7.26 75.21,18.6 30.72,23.13 39.19,68.05 22.91,102.29 -4.6,9.68 -12.88,20.83 -20.17,26.2 -16.56,12.21 -45.92,22.38 -72.89,19.54zm-9.29 -225.84c-2.36,2.28 -10.57,1.4 -14.7,1.4 -23.85,-0.03 -99.59,1.13 -111.61,-0.29 -1.95,-5.51 -1.97,-142.25 -0.01,-147.78 10.66,-1.33 107.75,-1.31 111.81,0.64 19.62,-2.13 58.45,3.56 72.72,12.22 40.57,24.63 40.95,90.11 8.59,115.6 -13.79,10.87 -43.73,21.2 -66.8,18.21zm-191.33 283.48c27.5,1.91 61.42,0.17 89.31,0.17 47.71,0 128.69,2.92 171.49,-7.09 49.14,-11.49 79.71,-34.91 98.14,-81.84 18.08,-46.05 11.62,-101.3 -23.83,-137.05 -17.85,-17.99 -29.5,-22.55 -57.15,-33.33 3.32,-3.23 7.75,-4.8 12.04,-7.46 11.96,-7.44 23.66,-17.26 31.86,-28.51 42.56,-58.4 20.64,-132.78 -28.45,-166.05 -38.19,-25.88 -80.33,-26.18 -132.95,-26.18 -26.59,0 -53.18,0 -79.77,0 -25.21,0 -55.77,-1.55 -80.32,0.17l-0.37 487.17z"/>
   <path class="fil2" d="M3295.24 3692.02c3.98,-128.99 189.5,-141.29 196.21,-0.01l-196.21 0.01zm257.52 104l-62.23 -8.02c-6.11,24.9 -24.35,47.52 -39.66,57.75 -42.91,28.64 -106.54,16.65 -136.88,-28.93 -12.04,-18.09 -22.44,-48.7 -22.09,-75.17 12.23,-1.39 109.83,-0.28 131.04,-0.28 17.13,0 124.69,1.68 131.86,-0.77 7.36,-90.46 -35.04,-183.57 -133.35,-197.19 -98.79,-13.69 -173.1,43.44 -188.22,141.98 -16.42,107.02 24.45,192.8 108.18,217.15 44.98,13.08 101.18,9.54 139.43,-10.64 19.58,-10.33 33.36,-23.16 44.91,-38.11 8.48,-10.99 24.96,-39.36 27.01,-57.77z"/>
   <polygon class="fil2" points="4273.49,2959.71 4215.28,2959.71 4215.28,3921.31 4273.49,3921.31 "/>
   <polygon class="fil2" points="2117.46,2959.71 2117.46,3921.31 2174.6,3921.31 2174.6,2959.71 "/>
   <path class="fil2" d="M2966.43 3744.51c-3.09,39.16 -12.46,64.8 -32.54,86.62 -49.8,54.09 -185.75,46.42 -174.28,-123.66 2.63,-39 12.72,-64.45 32.36,-86.18 49.76,-55.05 187.67,-43.92 174.46,123.22zm-123.18 -201.87c-110.58,11.24 -151.75,101.36 -145.15,203.12 2.73,42.07 13.82,80.94 40.34,111.91 3.67,4.28 7.77,7.61 11.29,11.33 30.18,31.87 86.45,44.97 132.73,40.18 52.49,-5.43 92.02,-32.31 113.42,-61.35 26.54,-36.04 35.28,-86.81 32.35,-142.14 -5.6,-105.47 -78.24,-173.91 -184.98,-163.05z"/>
   <path class="fil2" d="M3949.32 3592.23c38.58,-4.66 69.15,13.45 85.17,32.31 19.29,22.71 28.6,49.63 30.23,88.71 7.13,170.65 -132.52,169.55 -177.77,114.9 -18.88,-22.8 -28.17,-50.33 -29.87,-89.03 -1.57,-35.5 3.04,-74.87 19.4,-100.56 14.53,-22.83 36.28,-41.91 72.84,-46.33zm-9.56 -49.43c-103.38,12.73 -151.91,91.26 -143.67,206.07 3.21,44.74 19.45,94.18 52.84,121.58 38.01,31.19 79.53,44.42 132.69,38.56 53.87,-5.94 90.41,-32.62 112.76,-62.26 45.61,-60.49 47.8,-205.62 -21.67,-264.75 -37,-31.49 -81.1,-45.59 -132.95,-39.2z"/>
   <path class="fil0" d="M3949.32 3592.23c-36.56,4.42 -58.31,23.5 -72.84,46.33 -16.36,25.69 -20.97,65.06 -19.4,100.56 1.7,38.7 10.99,66.23 29.87,89.03 45.25,54.65 184.9,55.75 177.77,-114.9 -1.63,-39.08 -10.94,-66 -30.23,-88.71 -16.02,-18.86 -46.59,-36.97 -85.17,-32.31z"/>
   <path class="fil0" d="M2966.43 3744.51c13.21,-167.14 -124.7,-178.27 -174.46,-123.22 -19.64,21.73 -29.73,47.18 -32.36,86.18 -11.47,170.08 124.48,177.75 174.28,123.66 20.08,-21.82 29.45,-47.46 32.54,-86.62z"/>
   <path class="fil2" d="M3799.25 3383.37c3.31,1.77 99.97,1.82 102.83,0 2.1,-10.05 0.58,-414.71 0.58,-423.66l-103.49 0 0.08 423.66z"/>
   <path class="fil2" d="M2265.44 3383.37c3.33,1.9 99.63,1.85 103.11,0l0.09 -423.66 -103.49 0 0.29 423.66z"/>
   <path class="fil2" d="M2812.2 3383.37c2.86,1.8 99.53,1.8 102.9,0l0.09 -423.66 -103.49 0 0.5 423.66z"/>
   <path class="fil0" d="M2471.32 3844.76c26.97,2.84 56.33,-7.33 72.89,-19.54 7.29,-5.37 15.57,-16.52 20.17,-26.2 16.28,-34.24 7.81,-79.16 -22.91,-102.29 -15.07,-11.34 -50.85,-21.05 -75.21,-18.6l-130.13 -0.09 -0.23 166.58 135.42 0.14z"/>
   <path class="fil2" d="M3638.97 3462.07l-0.19 86.99 -44.13 0.12 0.07 46.17 43.92 0.37c1.98,34.97 0.17,75.52 0.17,111.06 0,36.83 -0.56,74.1 0.23,110.87 0.84,39.17 4.42,63.56 31.61,79.09 26.08,14.9 65.72,11.98 96.25,5.37l-7.97 -52.68c-15.21,-0.74 -31.4,6.3 -46.25,-2.28 -13.12,-7.59 -13.75,-20.99 -13.75,-40.11l0.1 -211.14 59.7 -0.26 0.09 -45.97 -59.59 -0.59 -0.31 -122.77c-3.55,0.97 -56.11,32.4 -59.95,35.76z"/>
   <polygon class="fil2" points="2187.53,3921.31 2219.87,3921.31 2219.87,2959.71 2187.53,2959.71 "/>
   <path class="fil0" d="M2462.03 3618.92c23.07,2.99 53.01,-7.34 66.8,-18.21 32.36,-25.49 31.98,-90.97 -8.59,-115.6 -14.27,-8.66 -53.1,-14.35 -72.72,-12.22l-111.61 0.14 0 146.16 126.12 -0.27z"/>
   <polygon class="fil2" points="3097.2,3902.5 3157.07,3902.55 3157.32,3415.34 3097.69,3415.06 "/>
   <path class="fil2" d="M2459.77 3383.37c3.95,2.41 53.82,2 57.58,0l0.05 -423.66 -58.21 0c0,8.94 -1.51,413.68 0.58,423.66z"/>
   <path class="fil2" d="M3229.18 3383.37c2.66,1.52 54.76,1.65 57.35,0 2.1,-10.05 0.58,-414.71 0.58,-423.66l-58.21 0 0.28 423.66z"/>
   <path class="fil2" d="M3669.22 3383.37c2.6,1.62 54.69,1.55 57.43,0l0.29 -423.66 -58.21 0 0.49 423.66z"/>
   <path class="fil2" d="M3433.03 3383.37c3.32,2.05 53.87,2.15 57.33,0l0.49 -423.66 -58.21 0 0.39 423.66z"/>
   <path class="fil2" d="M3993.71 3383.37c2.5,1.56 54.72,1.56 57.22,0l0.49 -423.66 -58.21 0 0.5 423.66z"/>
   <path class="fil2" d="M3006.91 3383.37c3.14,1.68 53.91,1.65 56.99,0l0.06 -423.66 -57.14 0 0.09 423.66z"/>
   <path class="fil2" d="M2664.19 3383.37c3.99,2.25 52.72,2.22 56.87,0l0.09 -423.66 -57.14 0 0.18 423.66z"/>
   <path class="fil0" d="M3295.24 3692.02l196.21 -0.01c-6.71,-141.28 -192.23,-128.98 -196.21,0.01z"/>
   <path class="fil2" d="M3503.21 3383.37c2.68,1.69 29.51,1.78 32.34,0 2.1,-10.05 0.58,-414.71 0.58,-423.66l-33.42 0 0.5 423.66z"/>
   <path class="fil2" d="M3118.44 3383.37c2.89,1.79 29.61,1.7 32.34,0l0.5 -423.66 -33.42 0c0,8.94 -1.51,413.68 0.58,423.66z"/>
   <path class="fil2" d="M2400.48 3383.37c2.83,1.78 29.62,1.7 32.34,0l0.5 -423.66 -33.42 0c0,8.94 -1.51,413.68 0.58,423.66z"/>
   <path class="fil2" d="M2947.04 3383.37c2.82,1.78 29.62,1.7 32.34,0l0.5 -423.66 -33.42 0c0,8.94 -1.51,413.68 0.58,423.66z"/>
   <path class="fil2" d="M3739.29 3383.37c2.79,1.74 29.65,1.74 32.43,0l0.5 -423.66 -33.42 0 0.49 423.66z"/>
   <path class="fil2" d="M2571.8 3383.37c2.81,1.74 29.64,1.74 32.43,0l0.49 -423.66 -33.41 0 0.49 423.66z"/>
   <path class="fil2" d="M3934.12 3383.37c3.2,1.81 28.79,1.74 32.05,0l0.09 -423.66 -32.34 0 0.2 423.66z"/>
   <path class="fil2" d="M3577.34 3383.37c3.27,1.85 28.83,1.7 32.03,0l0.06 -423.66 -32.33 0 0.24 423.66z"/>
   <path class="fil2" d="M3341.14 3383.37c3.28,1.75 28.74,1.82 31.96,0l0.25 -423.66 -32.34 0 0.13 423.66z"/>
   <path class="fil2" d="M2734.21 3383.37c3.29,1.74 28.75,1.82 31.97,0l0.25 -423.66 -32.35 0 0.13 423.66z"/>
   <path class="fil2" d="M4105.57 3383.37c3.13,1.76 28.72,1.77 31.85,0l0.25 -423.66 -32.35 0 0.25 423.66z"/>
   <path class="fil2" d="M3622.95 3383.37c2.77,1.76 22.35,1.52 25,0l0.3 -423.66 -25.88 0c0,8.94 -1.51,413.68 0.58,423.66z"/>
   <path class="fil2" d="M3386.78 3383.37c2.54,1.58 22.17,1.67 24.8,0 2.1,-10.05 0.58,-414.71 0.58,-423.66l-25.87 0 0.49 423.66z"/>
   <path class="fil2" d="M4151.04 3383.37c2.55,1.59 22.29,1.65 24.94,0l0.5 -423.66 -25.88 0 0.44 423.66z"/>
   <path class="fil2" d="M2617.75 3383.37c3.86,2.06 20.75,2.14 24.53,0l0.17 -423.66 -24.79 0 0.09 423.66z"/>
   <path class="fil2" d="M3164.46 3383.37c3.81,2.15 20.7,2.07 24.37,0l0.18 -423.66 -24.8 0 0.25 423.66z"/>
   <path class="fil3" d="M2471.32 3844.76l-135.42 -0.14 0.23 -166.58 130.13 0.09c-2.54,-2.18 -120.55,-2.06 -130.5,-0.99 -1.99,5.33 -2.15,162.14 -0.08,168.25 11.21,1.43 132.27,0.94 135.64,-0.63z"/>
   <path class="fil3" d="M2462.03 3618.92l-126.12 0.27 0 -146.16 111.61 -0.14c-4.06,-1.95 -101.15,-1.97 -111.81,-0.64 -1.96,5.53 -1.94,142.27 0.01,147.78 12.02,1.42 87.76,0.26 111.61,0.29 4.13,0 12.34,0.88 14.7,-1.4z"/>
  </g>
 </g>
</svg>
