<?xml version="1.0" encoding="UTF-8"?>
<!DOCTYPE svg PUBLIC "-//W3C//DTD SVG 1.1//EN" "http://www.w3.org/Graphics/SVG/1.1/DTD/svg11.dtd">
<!-- Creator: CorelDRAW -->
<svg xmlns="http://www.w3.org/2000/svg" xml:space="preserve" width="66.1458mm" height="66.1458mm" version="1.1" style="shape-rendering:geometricPrecision; text-rendering:geometricPrecision; image-rendering:optimizeQuality; fill-rule:evenodd; clip-rule:evenodd"
viewBox="0 0 6614.58 6614.58"
 xmlns:xlink="http://www.w3.org/1999/xlink"
 xmlns:xodm="http://www.corel.com/coreldraw/odm/2003">
 <defs>
  <style type="text/css">
   <![CDATA[
    .fil0 {fill:black;fill-rule:nonzero}
    .fil1 {fill:#2556A0;fill-rule:nonzero}
    .fil2 {fill:white;fill-rule:nonzero}
   ]]>
  </style>
 </defs>
 <g id="Camada_x0020_1">
  <metadata id="CorelCorpID_0Corel-Layer"/>
  <g id="_2620984336656">
   <path class="fil0" d="M2470.33 3619.46l89.27 0c79.43,0 100.84,55.6 100.84,91.86 0,69.77 -47.51,126.91 -149.04,126.91l-87.37 0 0 -5.53c16.92,-3.1 22.1,-4.14 27.97,-25.55l41.13 -145.9c1.03,-3.8 3.8,-14.51 3.8,-21.41 0,-11.75 -8.98,-13.47 -26.6,-14.85l0 -5.53z"/>
   <path class="fil0" d="M2735.67 3802.66c-13.47,20.38 -28.66,39.37 -48,39.37 -16.23,0 -16.23,-15.2 -16.23,-21.41 0,-16.23 27.28,-101.88 27.28,-111.55 0,-7.25 -2.76,-8.98 -21.76,-8.98l0 -5.53c13.12,-0.69 41.79,-6.22 55.26,-8.63l1.03 0.69 -30.39 111.2c-1.38,4.84 -5.52,18.65 -5.52,22.8 0,2.42 2.41,5.18 5.52,5.18 4.15,0 14.16,-6.91 28.32,-26.94l4.49 3.8z"/>
   <path class="fil0" d="M2728.76 3648.98c-8.63,0 -16.58,-5.87 -16.58,-17.96 0,-12.09 7.95,-18.65 16.24,-18.65 11.39,0 17.26,11.4 17.26,18.99 0,6.91 -5.52,17.62 -16.92,17.62z"/>
   <path class="fil0" d="M2897.97 3802.31c-17.27,23.14 -29.36,39.03 -48.01,39.03 -15.88,0 -16.57,-10.36 -16.57,-20.38 0,-8.29 25.55,-92.55 25.55,-106.37 0,-6.21 -2.07,-11.05 -8.63,-11.05 -16.58,0 -38.34,29.7 -50.77,49.04 -15.89,23.83 -20.37,38.68 -34.53,85.65l-25.91 0c10.71,-39.02 33.85,-119.84 33.85,-127.09 0,-5.18 -3.46,-8.98 -22.1,-8.98l0 -5.53c18.64,-3.45 37.29,-6.9 55.94,-10.7l1.04 0.69 -22.1 72.18 0.69 0.69c16.23,-25.56 48,-73.56 76.67,-73.56 15.88,0 23.82,8.29 23.82,22.79 0,14.85 -27.62,100.15 -27.62,110.51 0,5.19 4.83,5.87 5.52,5.87 6.91,0 15.54,-11.05 28.32,-27.28l4.84 4.49z"/>
   <path class="fil0" d="M3019.88 3804.73c-3.8,5.53 -35.23,37.3 -69.76,37.3 -36.27,0 -47.32,-26.94 -47.32,-48.7 0,-49.38 54.57,-107.4 103.27,-107.4 17.61,0 28.31,8.29 28.31,23.48 0,27.28 -32.46,55.26 -88.41,63.2l-9.67 1.38c-1.72,7.26 -3.45,14.16 -3.45,21.07 0,23.48 17.96,31.43 32.46,31.43 18.65,0 33.16,-11.75 50.42,-25.9l4.15 4.14z"/>
   <path class="fil0" d="M3031.24 3838.23l27.97 -100.84c3.45,-12.78 5.53,-24.52 5.53,-27.63 0,-4.84 -1.73,-10.36 -12.43,-10.36 -3.8,0 -7.6,1.03 -11.4,1.72l0 -5.87c17.61,-2.41 37.99,-6.91 53.53,-9.32l1.03 0.69 -16.92 68.72 0.69 0.7 2.77 -6.91c11.39,-22.79 37.64,-63.2 59.4,-63.2 7.94,0 16.57,5.18 16.57,16.92 0,17.96 -12.43,17.96 -16.23,17.96 -14.85,0 -9.67,-12.43 -17.96,-12.43 -10.7,0 -31.42,38.33 -34.19,43.51 -13.12,24.87 -17.96,40.41 -32.11,86.34l-26.25 0z"/>
   <path class="fil0" d="M3142.33 3787.81c2.42,15.19 7.94,46.97 35.92,46.97 19.34,0 24.86,-16.58 24.86,-27.98 0,-22.79 -41.09,-55.95 -41.09,-82.54 0,-10.7 4.83,-38.33 41.44,-38.33 15.54,0 22.45,5.87 32.81,5.87 5.87,0 7.94,-3.46 9.67,-6.22l4.83 0 -6.9 48.01 -5.53 0c-1.73,-19.69 -10.02,-39.72 -32.47,-39.72 -7.59,0 -18.64,3.11 -18.64,20.03 0,21.76 42.13,52.49 42.13,81.85 0,37.64 -32.12,46.28 -51.46,46.28 -10.36,0 -24.17,-6.56 -34.19,-6.56 -4.83,0 -6.21,3.45 -8.29,7.25l-5.52 0 6.91 -54.91 5.52 0z"/>
   <path class="fil0" d="M3522.15 3676.6c-0.69,-9.66 -3.8,-55.94 -53.19,-55.94 -69.07,0 -104.29,83.57 -104.29,134.34 0,45.24 18.99,73.9 60.09,73.9 39.02,0 63.2,-24.51 79.77,-40.75l5.88 4.84c-12.78,15.19 -43.52,51.45 -93.94,51.45 -40.06,0 -90.48,-24.17 -90.48,-93.24 0,-66.65 61.12,-142.97 140.21,-142.97 24.87,0 45.93,8.28 53.88,8.28 10.01,0 12.08,-4.14 13.81,-7.59l7.25 0 -12.78 68.72 -6.21 -1.04z"/>
   <path class="fil0" d="M3600.57 3798.86c-17.61,26.59 -31.08,43.17 -52.49,43.17 -15.2,0 -16.58,-11.74 -16.58,-21.41 0,-7.26 50.08,-187.53 50.08,-194.78 0,-8.98 -14.51,-8.98 -23.48,-8.64l0 -5.52c17.95,-2.07 35.91,-5.18 53.87,-9.33l1.73 1.73 -52.15 199.96c-0.69,3.11 -3.45,12.43 -3.45,16.23 0,2.07 0,6.91 5.17,6.91 8.64,0 15.89,-9.67 32.81,-31.43l4.49 3.11z"/>
   <path class="fil0" d="M3757.1 3800.93c-21.76,31.43 -30.74,40.41 -48.01,40.41 -15.54,0 -16.23,-12.78 -16.23,-17.96 0,-6.22 6.91,-35.23 14.85,-63.55l-1.04 0c-23.48,39.03 -49.03,82.2 -80.12,82.2 -12.43,0 -18.99,-5.18 -18.99,-20.38 0,-15.19 26.25,-102.22 26.25,-111.54 0,-10.02 -6.57,-10.02 -20.72,-10.02l0 -4.84c17.26,-2.07 34.53,-5.18 51.8,-9.32l1.03 0.69 -31.42 125.36c-1.04,4.49 0,11.74 7.25,11.74 14.85,0 36.6,-32.46 48.35,-50.42 16.92,-25.55 24.52,-47.31 37.99,-84.26l25.55 0 -27.28 103.26c-2.07,6.91 -6.56,22.1 -6.56,27.28 0,1.73 0.34,5.52 4.14,5.52 6.56,0 16.24,-12.08 28.32,-27.28l4.84 3.11z"/>
   <path class="fil0" d="M3788.87 3610.3c17.27,-2.07 34.88,-4.49 52.84,-7.95l1.73 1.73c-7.6,28.32 -18.09,66.92 -29.83,105.95l0.69 0.34c11.39,-17.95 29.1,-35.23 60.19,-35.23 24.17,0 39.74,27.37 39.74,52.58 0,54.56 -57.67,114.31 -110.51,114.31 -18.3,0 -44.89,-10.71 -44.89,-18.31l0 -1.38 46.96 -173.02c2.42,-9.67 5.53,-18.3 5.53,-23.14 0,-7.94 -2.42,-9.67 -22.45,-10.01l0 -5.87z"/>
   <path class="fil0" d="M2353.88 4098.45c16.92,-3.11 22.1,-4.14 27.97,-25.56l41.13 -144.55c2.07,-6.91 3.8,-15.19 3.8,-21.41 0,-12.09 -9.32,-13.12 -24.17,-14.85l0 -5.52 85.3 0 0 5.52c-16.92,3.11 -22.45,3.8 -28.32,25.56l-41.13 144.89c-2.07,6.91 -3.8,13.82 -3.8,22.11 0,11.05 8.64,12.08 23.49,13.81l0 5.53 -84.27 0 0 -5.53z"/>
   <path class="fil0" d="M2619.06 4068.06c-17.26,23.14 -29.35,39.02 -48,39.02 -15.88,0 -16.58,-10.36 -16.58,-20.37 0,-8.29 25.56,-92.56 25.56,-106.37 0,-6.22 -2.07,-11.05 -8.63,-11.05 -16.58,0 -38.34,29.7 -50.77,49.04 -15.89,23.83 -20.38,38.68 -34.53,85.65l-25.91 0c10.71,-39.03 33.85,-119.84 33.85,-127.09 0,-5.18 -3.45,-8.98 -22.1,-8.98l0 -5.53c18.65,-3.45 37.3,-6.91 55.94,-10.7l1.04 0.69 -22.1 72.18 0.69 0.69c16.23,-25.56 48,-73.56 76.66,-73.56 15.89,0 23.83,8.28 23.83,22.79 0,14.85 -27.62,100.15 -27.62,110.51 0,5.18 4.83,5.87 5.52,5.87 6.91,0 15.54,-11.05 28.32,-27.28l4.83 4.49z"/>
   <path class="fil0" d="M2711 3967.22l-29.01 0 -30.39 115c-0.35,1.03 -0.35,1.73 -0.35,2.76 0,3.11 1.73,5.87 5.53,5.87 6.91,0 18.99,-16.23 27.63,-27.28l4.49 2.42c-17.62,26.59 -31.09,41.78 -49.04,41.78 -6.91,0 -16.58,-3.45 -16.58,-13.81 0,-5.18 6.56,-26.25 7.94,-31.77l24.87 -94.97 -25.56 0c-0.34,-2.08 -0.34,-3.8 0.69,-5.53 2.07,-3.11 11.74,-5.53 17.62,-8.63 11.39,-5.87 27.97,-21.42 37.64,-33.5 1.38,-1.73 2.76,-4.84 5.87,-4.15 2.42,-0.69 3.11,2.42 2.42,5.18l-9.67 35.57 27.63 0 -1.73 11.06z"/>
   <path class="fil0" d="M2818.04 4070.48c-3.8,5.52 -35.23,37.29 -69.76,37.29 -36.26,0 -47.32,-26.93 -47.32,-48.69 0,-49.39 54.57,-107.4 103.27,-107.4 17.61,0 28.31,8.28 28.31,23.48 0,27.28 -32.46,55.26 -88.41,63.2l-9.67 1.38c-1.72,7.25 -3.45,14.16 -3.45,21.07 0,23.48 17.96,31.42 32.46,31.42 18.65,0 33.16,-11.74 50.42,-25.9l4.15 4.15z"/>
   <path class="fil0" d="M2830.75 4103.98l27.97 -100.85c3.46,-12.78 5.53,-24.52 5.53,-27.63 0,-4.83 -1.73,-10.36 -12.44,-10.36 -3.8,0 -7.59,1.04 -11.39,1.73l0 -5.87c17.61,-2.42 37.99,-6.91 53.53,-9.32l1.03 0.69 -16.92 68.72 0.69 0.69 2.76 -6.91c11.4,-22.79 37.65,-63.19 59.41,-63.19 7.94,0 16.57,5.18 16.57,16.92 0,17.96 -12.43,17.96 -16.23,17.96 -14.85,0 -9.67,-12.44 -17.96,-12.44 -10.7,0 -31.42,38.34 -34.19,43.52 -13.12,24.86 -17.96,40.4 -32.12,86.34l-26.24 0z"/>
   <path class="fil0" d="M3107.82 4068.06c-17.27,23.14 -29.36,39.02 -48.01,39.02 -15.88,0 -16.58,-10.36 -16.58,-20.37 0,-8.29 25.56,-92.56 25.56,-106.37 0,-6.22 -2.07,-11.05 -8.63,-11.05 -16.58,0 -38.34,29.7 -50.77,49.04 -15.89,23.83 -20.38,38.68 -34.54,85.65l-25.9 0c10.71,-39.03 33.85,-119.84 33.85,-127.09 0,-5.18 -3.46,-8.98 -22.11,-8.98l0 -5.53c18.65,-3.45 37.3,-6.91 55.95,-10.7l1.04 0.69 -22.1 72.18 0.69 0.69c16.23,-25.56 48,-73.56 76.66,-73.56 15.89,0 23.83,8.28 23.83,22.79 0,14.85 -27.63,100.15 -27.63,110.51 0,5.18 4.84,5.87 5.53,5.87 6.91,0 15.54,-11.05 28.32,-27.28l4.84 4.49z"/>
   <path class="fil0" d="M3266.33 4069.44c-20.72,25.56 -32.46,37.99 -47.31,37.99 -14.51,0 -14.51,-8.98 -14.51,-14.85 0,-7.94 1.73,-15.54 7.26,-36.61l-0.69 -0.69c-28.67,42.13 -46.97,52.49 -67.69,52.49 -34.54,0 -35.57,-30.73 -35.57,-40.75 0,-50.76 52.84,-115.34 98.77,-115.34 14.85,0 26.24,8.97 27.28,18.65l0.69 0 3.46 -15.2 1.03 -1.04 21.07 -2.41 2.41 1.03c-1.03,4.15 -32.8,121.91 -32.8,132.62 0,2.41 2.07,4.49 4.83,4.49 5.18,0 12.09,-8.64 27.63,-23.83l4.14 3.45z"/>
   <path class="fil0" d="M3353.53 3967.22l-29.01 0 -30.39 115c-0.35,1.03 -0.35,1.73 -0.35,2.76 0,3.11 1.73,5.87 5.53,5.87 6.9,0 18.99,-16.23 27.63,-27.28l4.49 2.42c-17.62,26.59 -31.09,41.78 -49.05,41.78 -6.9,0 -16.57,-3.45 -16.57,-13.81 0,-5.18 6.56,-26.25 7.94,-31.77l24.87 -94.97 -25.56 0c-0.34,-2.08 -0.34,-3.8 0.69,-5.53 2.07,-3.11 11.74,-5.53 17.61,-8.63 11.4,-5.87 27.98,-21.42 37.65,-33.5 1.38,-1.73 2.76,-4.84 5.87,-4.15 2.42,-0.69 3.11,2.42 2.42,5.18l-9.67 35.57 27.63 0 -1.73 11.06z"/>
   <path class="fil0" d="M3426.09 4068.4c-13.47,20.38 -28.67,39.37 -48.01,39.37 -16.23,0 -16.23,-15.19 -16.23,-21.41 0,-16.23 27.28,-101.88 27.28,-111.55 0,-7.25 -2.76,-8.97 -21.75,-8.97l0 -5.53c13.12,-0.69 41.78,-6.22 55.25,-8.63l1.04 0.69 -30.39 111.2c-1.38,4.83 -5.53,18.65 -5.53,22.79 0,2.42 2.42,5.18 5.53,5.18 4.14,0 14.16,-6.9 28.32,-26.93l4.49 3.79z"/>
   <path class="fil0" d="M3419.18 3914.72c-8.63,0 -16.58,-5.87 -16.58,-17.95 0,-12.09 7.95,-18.66 16.23,-18.66 11.4,0 17.27,11.4 17.27,19 0,6.91 -5.52,17.61 -16.92,17.61z"/>
   <path class="fil0" d="M3583.61 4002.79c0,42.47 -47.31,104.98 -100.15,104.98 -36.61,0 -52.15,-21.06 -52.15,-49.73 0,-50.76 51.11,-106.36 101.54,-106.36 40.06,0 50.76,28.31 50.76,51.11z"/>
   <path class="fil0" d="M3732.72 4068.06c-17.26,23.14 -29.35,39.02 -48,39.02 -15.89,0 -16.58,-10.36 -16.58,-20.37 0,-8.29 25.56,-92.56 25.56,-106.37 0,-6.22 -2.07,-11.05 -8.64,-11.05 -16.57,0 -38.33,29.7 -50.76,49.04 -15.89,23.83 -20.38,38.68 -34.54,85.65l-25.9 0c10.71,-39.03 33.85,-119.84 33.85,-127.09 0,-5.18 -3.46,-8.98 -22.11,-8.98l0 -5.53c18.65,-3.45 37.3,-6.91 55.95,-10.7l1.03 0.69 -22.1 72.18 0.69 0.69c16.24,-25.56 48.01,-73.56 76.67,-73.56 15.89,0 23.83,8.28 23.83,22.79 0,14.85 -27.63,100.15 -27.63,110.51 0,5.18 4.84,5.87 5.53,5.87 6.91,0 15.54,-11.05 28.32,-27.28l4.83 4.49z"/>
   <path class="fil0" d="M3892.59 4069.44c-20.72,25.56 -32.46,37.99 -47.31,37.99 -14.51,0 -14.51,-8.98 -14.51,-14.85 0,-7.94 1.73,-15.54 7.26,-36.61l-0.7 -0.69c-28.66,42.13 -46.96,52.49 -67.68,52.49 -34.54,0 -35.57,-30.73 -35.57,-40.75 0,-50.76 52.84,-115.34 98.77,-115.34 14.85,0 26.24,8.97 27.28,18.65l0.69 0 3.45 -15.2 1.04 -1.04 21.06 -2.41 2.42 1.03c-1.03,4.15 -32.81,121.91 -32.81,132.62 0,2.41 2.08,4.49 4.84,4.49 5.18,0 12.09,-8.64 27.63,-23.83l4.14 3.45z"/>
   <path class="fil0" d="M3958.47 4074.05c-17.61,26.59 -24.34,33.72 -45.75,33.72 -15.19,0 -16.57,-11.74 -16.57,-21.41 0,-7.25 50.07,-187.52 50.07,-194.78 0,-8.98 -14.5,-8.98 -23.48,-8.63l0 -5.53c17.95,-2.07 35.91,-5.18 53.87,-9.32l1.73 1.73 -52.15 199.96c-0.69,3.1 -3.45,12.43 -3.45,16.23 0,2.07 0,6.9 5.18,6.9 8.63,0 9.14,-0.22 26.06,-21.98l4.49 3.11z"/>
   <path class="fil1" d="M3367.02 3541.65c188.59,0 341.48,-152.89 341.48,-341.48 0,-188.59 -152.89,-341.49 -341.48,-341.49l-431.67 0c-188.59,0 -341.48,152.9 -341.48,341.49 0,188.59 152.89,341.48 341.48,341.48l431.67 0z"/>
   <g>
    <path class="fil2" d="M2935.35 3534.02c184.38,0 333.85,-149.47 333.85,-333.85 0,-184.38 -149.47,-333.85 -333.85,-333.85 -184.38,0 -333.85,149.47 -333.85,333.85 0,184.38 149.47,333.85 333.85,333.85z"/>
   </g>
   <path class="fil1" d="M2867.96 3007.43c-79.62,27.84 -136.74,103.62 -136.74,192.74 0,89.27 57.32,165.17 137.16,192.88l-0.42 -385.62z"/>
   <path class="fil1" d="M3139.47 3200.17c0,89.27 -57.31,165.17 -137.15,192.88l0.42 -385.62c79.62,27.84 136.73,103.62 136.73,192.74z"/>
   <path class="fil2" d="M2493.1 3782.28c-3.11,11.4 -7.6,26.59 -7.6,32.12 0,11.4 8.29,13.47 24.52,13.47 108.79,0 112.09,-99.62 112.09,-120.69 0,-34.88 -5,-77.36 -66.13,-77.36 -19.68,0 -21.06,5.18 -22.45,10.02l-40.43 142.44z"/>
   <path class="fil2" d="M2938.72 3766.39c71.14,-14.5 72.87,-55.94 72.87,-58.7 0,-7.26 -3.45,-13.82 -12.09,-13.82 -18.65,0 -42.13,26.59 -54.91,57.33l-5.87 15.19z"/>
   <path class="fil2" d="M3861.02 3693.41c-37.99,0 -67.73,67.93 -72.49,129.28 -0.19,2.41 0,11.4 16.23,11.4 47.31,0 80.12,-72.88 80.12,-101.88 0,-10.71 -2.1,-38.8 -23.86,-38.8z"/>
   <path class="fil2" d="M2736.88 4032.14c71.14,-14.5 72.87,-55.94 72.87,-58.71 0,-7.25 -3.45,-13.81 -12.09,-13.81 -18.65,0 -42.13,26.59 -54.91,57.33l-5.87 15.19z"/>
   <path class="fil2" d="M3157.55 4090.85c36.6,0 70.45,-74.59 70.45,-108.44 0,-16.57 -9.67,-23.14 -19.68,-23.14 -40.41,0 -71.49,75.98 -71.49,107.06 0,18.31 11.39,24.52 20.72,24.52z"/>
   <path class="fil2" d="M3460.32 4068.4c0,19.69 10.36,32.12 27.63,32.12 39.37,0 66.66,-71.49 66.66,-108.44 0,-17.96 -7.61,-33.15 -24.18,-33.15 -38.68,0 -70.11,68.72 -70.11,109.47z"/>
   <path class="fil2" d="M3783.81 4090.85c36.6,0 70.45,-74.59 70.45,-108.44 0,-16.57 -9.67,-23.14 -19.69,-23.14 -40.4,0 -71.49,75.98 -71.49,107.06 0,18.31 11.4,24.52 20.73,24.52z"/>
  </g>
 </g>
</svg>
