<?xml version="1.0" encoding="UTF-8"?>
<!DOCTYPE svg PUBLIC "-//W3C//DTD SVG 1.1//EN" "http://www.w3.org/Graphics/SVG/1.1/DTD/svg11.dtd">
<!-- Creator: CorelDRAW -->
<svg xmlns="http://www.w3.org/2000/svg" xml:space="preserve" width="66.1458mm" height="66.1458mm" version="1.1" style="shape-rendering:geometricPrecision; text-rendering:geometricPrecision; image-rendering:optimizeQuality; fill-rule:evenodd; clip-rule:evenodd"
viewBox="0 0 6614.58 6614.58"
 xmlns:xlink="http://www.w3.org/1999/xlink"
 xmlns:xodm="http://www.corel.com/coreldraw/odm/2003">
 <defs>
  <style type="text/css">
   <![CDATA[
    .fil0 {fill:#373435}
    .fil3 {fill:#00A7E1;fill-rule:nonzero}
    .fil4 {fill:#EF4C36;fill-rule:nonzero}
    .fil1 {fill:#FEFEFE;fill-rule:nonzero}
    .fil2 {fill:#FFCC29;fill-rule:nonzero}
   ]]>
  </style>
 </defs>
 <g id="Camada_x0020_1">
  <metadata id="CorelCorpID_0Corel-Layer"/>
  <g id="_2619739541552">
   <circle class="fil0" cx="3172.59" cy="3445.46" r="579.67"/>
   <g>
    <path class="fil1" d="M2703.99 3592.25c-4.4,-7.14 -10.38,-18.55 -13.99,-26.94 -21.28,-49.41 -22.3,-100.54 -4.33,-149.63 19.77,-53.83 57.52,-95.05 106.29,-116.03 61.32,-26.39 129.14,-21.19 187.92,13.68 37.33,21.42 63.8,54.49 83.9,101.26 2.56,5.98 4.81,12.38 7.01,17.81l-366.8 159.85zm122.48 -213.28l0 0c-43.54,18.71 -65.99,59.56 -61.38,107.46l184.48 -79.4c-31.72,-37.27 -73.01,-49.63 -123.1,-28.06zm146.1 172.74l0 0c-0.04,0.03 -0.07,0.07 -0.11,0.1l-3.82 -2.57c-11.01,17.86 -28.18,32.33 -49.86,41.73 -41.23,17.93 -79.44,13.32 -106.89,-10.75l-2.52 3.84c-0.03,-0.05 -0.04,-0.08 -0.08,-0.08l-46.8 70.01c11.62,8.08 24.09,14.91 37.19,20.38 51.7,21.47 104.6,20.49 156.7,-2.18 37.7,-16.33 67.27,-41.24 87.48,-72.81l-71.29 -47.67z"/>
    <path class="fil1" d="M3199 3196.53l0 389.25 60.51 24.53 -34.38 80.24 -66.8 -27.82c-14.99,-6.49 -25.2,-16.42 -32.93,-27.64 -7.38,-11.44 -12.91,-27.12 -12.91,-48.24l0 -390.32 86.51 0z"/>
    <g>
     <g>
      <path class="fil2" d="M3434.02 3376.29c11.97,-4 24.76,-6.15 38.08,-6.15 58.09,0 106.59,41.26 117.7,96.11l82.35 -16.8c-18.9,-93.2 -101.27,-163.34 -200.05,-163.34 -22.63,0 -44.38,3.68 -64.72,10.48l26.64 79.7z"/>
      <path class="fil3" d="M3336.83 3643.16l55.69 -62.95c-24.86,-22.03 -40.54,-54.17 -40.54,-89.97 0,-35.78 15.66,-67.91 40.51,-89.91l-55.7 -62.96c-42.22,37.4 -68.86,92.03 -68.86,152.87 0,60.87 26.65,115.52 68.9,152.92z"/>
      <path class="fil4" d="M3589.78 3514.34c-11.16,54.81 -59.61,96 -117.68,96 -13.33,0 -26.16,-2.15 -38.12,-6.17l-26.67 79.73c20.34,6.79 42.13,10.47 64.79,10.47 98.69,0 181.04,-70.03 200.01,-163.15l-82.33 -16.88z"/>
     </g>
    </g>
   </g>
  </g>
 </g>
</svg>
