<?xml version="1.0" encoding="UTF-8"?>
<!DOCTYPE svg PUBLIC "-//W3C//DTD SVG 1.1//EN" "http://www.w3.org/Graphics/SVG/1.1/DTD/svg11.dtd">
<!-- Creator: CorelDRAW -->
<svg xmlns="http://www.w3.org/2000/svg" xml:space="preserve" width="66.1458mm" height="66.1458mm" version="1.1" style="shape-rendering:geometricPrecision; text-rendering:geometricPrecision; image-rendering:optimizeQuality; fill-rule:evenodd; clip-rule:evenodd"
viewBox="0 0 6614.58 6614.58"
 xmlns:xlink="http://www.w3.org/1999/xlink"
 xmlns:xodm="http://www.corel.com/coreldraw/odm/2003">
 <defs>
  <style type="text/css">
   <![CDATA[
    .fil0 {fill:#9B3234}
    .fil1 {fill:#FEFEFE}
   ]]>
  </style>
 </defs>
 <g id="Camada_x0020_1">
  <metadata id="CorelCorpID_0Corel-Layer"/>
  <path class="fil0" d="M2556 2824.49c-95.83,0 -287.76,0 -287.76,0 -127.15,6.01 -231.08,57.22 -261.09,162.83 -15.65,55.07 -24.26,115.56 -36.49,172.65 -62.21,290.31 -117.36,588.6 -176.87,873.1l2240.31 0c173.19,0 292.11,-36.6 324.25,-174.06 14.93,-63.85 29.23,-136.18 43.52,-206.34 55.68,-273.54 111.41,-547.07 168.44,-828.18l-2014.31 0z"/>
  <path class="fil1" d="M3714.05 3545.99c-31.1,30.45 -118.42,39.1 -109.49,-33.69 7.42,-60.45 73.24,-73.3 144.58,-64.57 -5.3,33.07 -11.39,75.06 -35.09,98.26zm-98.26 -235.82c-2.97,16.68 -7.53,31.77 -11.23,47.72 35.62,-8.93 146.53,-36.31 157.22,11.23 3.55,15.79 -2.57,32.58 -7.02,44.92 -100.3,-9.5 -182.04,7.16 -203.54,78.61 -14.4,47.85 1.62,94.94 32.29,108.09 59.08,25.31 130.93,-3.69 155.81,-43.52 -2.58,13.79 -5.03,27.72 -4.21,44.92l51.93 0c0.55,-49.74 7.79,-90 15.44,-134.76 6.53,-38.11 18.8,-75.85 16.85,-109.49 -4.46,-77.04 -132.09,-49.79 -203.54,-47.72zm520.77 259.68c-40.63,0.87 -60.83,-24.28 -61.76,-65.97 -1.62,-73.02 30.41,-154.15 95.45,-161.43 30.28,-3.38 52.21,3.66 74.4,11.23 -20.37,82.03 -13.02,214.13 -108.09,216.17zm134.76 -386.01c-5.17,45.35 -12.09,88.97 -21.05,130.54 -148.06,-46.87 -238.86,62.07 -237.23,196.52 0.32,26 4.79,51.79 21.06,70.18 28.02,31.7 108.27,39.28 148.79,12.64 7.85,-5.16 15.86,-14.54 21.06,-21.06 3.9,-4.9 10.1,-17.73 11.22,-14.04 -2.13,14.25 -5.31,27.45 -5.61,43.52l54.74 0c10.55,-151.35 43.18,-280.62 67.38,-418.3l-60.36 0zm-1545.47 363.56c-32.3,34.2 -111.69,33.67 -117.91,-23.87 -2.72,-25.04 6.62,-51.29 11.23,-77.2 4.66,-26.22 8.02,-51.38 12.62,-74.4 31.81,-38.84 125.28,-43.53 134.77,21.06 8.23,56.07 -13.97,126.08 -40.71,154.41zm47.72 -237.23c-51.08,-19.19 -113.35,3.72 -140.34,25.51 0.1,0.96 -0.64,1.09 -1.44,1.16 0.47,-0.39 0.96,-0.78 1.44,-1.16 0,-0.09 -0.01,-0.16 -0.03,-0.24 0.46,-9.38 3.76,-15.9 4.22,-25.27l-51.94 0c-21.64,143.99 -47.31,283.96 -74.4,422.51l60.36 0c8.73,-53.96 14.51,-110.89 26.67,-161.42 13.78,53.15 103.79,42.99 141.77,22.46 78.37,-42.38 138.82,-244.06 33.69,-283.55zm286.36 101.07l-141.77 0c4.48,-32.6 33.81,-68.42 80,-70.19 43.49,-1.66 74.62,15.96 61.77,70.19zm-57.55 -106.68c-43.62,3.35 -80.48,15.9 -106.68,43.51 -32.14,33.85 -58.16,108.7 -50.54,176.86 10.88,97.25 131.96,93.76 228.81,70.19 1.64,-17.07 5.77,-31.66 8.42,-47.72 -39.9,14.93 -109.17,35.76 -150.2,9.82 -30.98,-19.59 -31.16,-69.19 -21.05,-112.3 65.09,-2.07 132.74,-1.67 197.92,0 4.13,-30.55 15.97,-63.86 5.61,-94.04 -13.66,-39.84 -62.54,-50.16 -112.29,-46.32zm-530.6 5.61c-1.64,0.23 -1.53,2.22 -1.41,4.21 -13.3,99.46 -31.29,194.23 -50.53,287.76l60.36 0c14.5,-100.14 31.11,-198.15 51.94,-291.97l-60.36 0zm1574.95 1.4c-53.35,-26.67 -97.76,18.08 -115.1,44.92 4.94,-13.77 5.22,-32.21 9.82,-46.32l-53.34 0c-14.38,100.25 -31.72,197.55 -51.94,291.97l61.77 0c0.39,-38.7 7.99,-67.32 14.03,-105.28 12.91,-81.03 31.86,-169.9 126.34,-143.18 3.13,-13.7 4.44,-29.25 8.42,-42.11zm-677.99 221.78c-5.56,-14.37 -7.01,-38.1 -5.61,-56.14 3.12,-40.57 17.89,-89.95 40.7,-112.3 31.48,-30.85 93.62,-25.75 143.18,-8.42 1.54,-16.71 4.89,-31.61 7.02,-47.72 -81.29,-13.28 -158.43,-5.02 -199.33,37.89 -40.03,42.02 -66.28,138.57 -47.73,199.33 21.73,71.09 119.09,74.96 197.94,47.73 3.48,-14.29 5.33,-30.23 8.42,-44.92 -43.08,22.38 -125.44,34.01 -144.59,-15.45zm-33.68 -223.18c-53.53,-21.62 -95.6,14.91 -115.11,49.13 4.42,-15.22 6.25,-33.05 9.83,-49.13l-53.35 0c-13.03,101.13 -32.26,196.08 -50.53,291.97l60.37 0c8.46,-56.92 12.11,-133.65 30.87,-188.1 15,-43.51 54.25,-80.58 110.9,-60.36 0.79,-16.05 5.39,-28.3 7.02,-43.51zm-972.77 -117.91c-8.62,55.94 -18.33,110.8 -28.08,165.63 -62.53,0.66 -126.37,3.09 -186.69,-1.4 11.4,-53.64 19.57,-110.51 30.88,-164.23l-67.37 0c-24.12,136.84 -46.06,275.86 -72.99,409.88l68.78 0c10.79,-68.76 20.88,-138.21 35.08,-203.54 58.65,-1.44 128.94,-3.96 185.3,1.41 -11.62,67.92 -25.66,133.42 -36.5,202.13l68.78 0c22.1,-138.86 45.39,-276.53 73,-409.88l-70.19 0zm171.25 61.76c12.03,-8.29 27.53,-46.05 9.83,-61.76 -5.61,-4.98 -15,-6.42 -28.08,-4.21 -12.13,2.05 -19.12,6.17 -23.86,12.63 -7.63,10.39 -14.62,41.7 -2.81,53.34 11.5,11.33 37.26,5.27 44.92,0z"/>
 </g>
</svg>
