<?xml version="1.0" encoding="UTF-8"?>
<!DOCTYPE svg PUBLIC "-//W3C//DTD SVG 1.1//EN" "http://www.w3.org/Graphics/SVG/1.1/DTD/svg11.dtd">
<!-- Creator: CorelDRAW -->
<svg xmlns="http://www.w3.org/2000/svg" xml:space="preserve" width="66.1458mm" height="66.1458mm" version="1.1" style="shape-rendering:geometricPrecision; text-rendering:geometricPrecision; image-rendering:optimizeQuality; fill-rule:evenodd; clip-rule:evenodd"
viewBox="0 0 6614.58 6614.58"
 xmlns:xlink="http://www.w3.org/1999/xlink"
 xmlns:xodm="http://www.corel.com/coreldraw/odm/2003">
 <defs>
  <style type="text/css">
   <![CDATA[
    .fil0 {fill:#EA5C14}
    .fil3 {fill:#F5AF8D}
    .fil2 {fill:#FCCE10}
    .fil1 {fill:#FFFAFF}
   ]]>
  </style>
 </defs>
 <g id="Camada_x0020_1">
  <metadata id="CorelCorpID_0Corel-Layer"/>
  <g id="_2619739567376">
   <path class="fil0" d="M3605.33 3751.51c-30.17,12.35 -75.38,20.8 -107.88,21.44 -35.8,0.71 -71.93,-6.51 -100.77,-28.75 -56.47,-43.54 -58.46,-133.58 -33.93,-194.68 12.12,-30.19 31.21,-54.04 60.71,-68.59 31.38,-15.47 76.66,-17.55 109.65,-6.5 50.28,16.86 73.37,63.35 80.9,112.57 1.92,12.47 5.18,49.95 1.99,60.92l-183.39 0.06c-1.45,11.96 12.26,28.4 21.61,34.63 12.24,8.16 28.12,11.92 42.69,13.48 24.51,2.62 53.2,-0.1 77.65,-4.72 4.62,-0.87 19.08,-4.58 22.44,-4.38 1.41,8.95 9.4,59.74 8.33,64.52zm-92.22 -973.14l4.61 0c88.76,0.89 171.37,52.39 208.85,134.27 10.29,22.48 15.97,46.17 21.81,70.07l54.38 218.82c48.22,195.15 96.82,390.31 145.67,585.3 6.14,24.5 12.02,49.05 18.33,73.5 6.87,26.54 12.5,50.08 12.8,77.74l0 5.79c-0.29,26.78 -4.58,47.19 -13.8,72.94 -7.34,20.48 -12.65,47.2 -34.92,56.09 -3.68,1.46 -8.1,2.49 -13.02,3.18l-58.28 0c-6.59,-0.3 -12.7,-0.53 -17.86,-0.47 -29.82,0.34 -59.37,0.47 -89.18,0.47l-1.43 0c-304.37,0 -608.73,0 -913.1,0l-165.07 0c-5.83,-0.13 -11.64,-0.28 -17.43,-0.45 -7.06,-0.22 -15.37,0.05 -24.1,0.45l-59.79 0c-2.5,-0.46 -4.74,-1.04 -6.66,-1.78 -23.94,-9.19 -22.33,-42.64 -26.91,-64.15 -2.65,-12.42 -7.01,-24.05 -10.06,-36.3 -3.03,-12.17 -5.83,-24.45 -8.88,-36.65l-54.42 -218.78c-24.3,-97.66 -48.47,-195.36 -72.91,-292.98 -6.14,-24.53 -12.25,-49.05 -18.28,-73.61 -5.95,-24.24 -13.61,-49.18 -17.44,-73.76 -1.42,-9.15 -2.31,-18.27 -2.66,-27.38l0 -18.04c1.42,-36.39 11.42,-71.82 29.62,-104.29 21.65,-38.58 53.16,-69.76 91.97,-90.99 38.88,-21.26 96.8,-31.6 140.49,-42.45l585.33 -145.64c48.83,-12.18 97.7,-24.21 146.51,-36.44 24.23,-6.07 48.77,-11.75 72.85,-18.22 23.98,-6.44 50.91,-13.35 75.63,-15.43 5.8,-0.49 11.59,-0.75 17.35,-0.81zm-392.61 731.23c0.98,-0.55 2.53,-5.83 3.26,-7.32 1.17,-2.34 3.19,-5.17 4.79,-7.27 3.51,-4.63 7.55,-7.98 12.33,-11.25 9.89,-6.79 22.97,-11.02 34.67,-13.26 89.68,-17.13 145.89,35.75 156.89,124.76 6.31,51.04 -0.13,111.69 -45.22,143.8 -20.62,14.68 -43.77,22.46 -68.33,27.64 -19.84,4.18 -43.7,6.49 -64.21,7.16 -6.23,0.2 -16.75,-0.88 -21.45,2.18l-0.03 96.03 -94.07 -0.33c-0.18,-12.98 1.25,-94.83 -0.76,-99.84 -2.72,-0.97 -26.07,-3.52 -45,-9.8 -38.12,-12.63 -70.95,-37.01 -84.99,-76.03 -10.41,-28.96 -7.21,-70.08 -7.21,-101.11 0,-16.56 -1.02,-97.89 0.39,-107.05l94.68 0.06c1.12,6.45 0.34,122.27 0.34,132.2 0,19.88 -2.18,42.42 5.68,60.9 6.22,14.62 24.19,28.63 40.67,25.32l0.01 -218.19c10.71,-1.25 27.59,-0.26 38.96,-0.26 6.8,0 33.33,-1.64 37.41,1.12 2.76,4.87 -0.38,23.56 1.19,30.54zm-494.16 254.24l-97.38 -0.04 -0.11 -393.55c0.17,-0.13 0.41,-0.3 0.56,-0.37 0.14,-0.06 0.4,-0.26 0.59,-0.33l4.67 -0.4c18.02,0.19 87.16,-0.9 92.69,0.59l0.01 143.88 138.1 0 0 -136c-0.08,-8.79 -0.51,-7.26 1.75,-7.94l96.73 0.14 -0.06 394.03 -97.4 0.06c-1.78,-1.95 -1.02,-6.7 -1.02,-9.83l0 -154.65 -138.1 0.04 0 144.86c0,3.68 1.72,17.92 -1.03,19.51zm1098.27 -251.67c1.38,-1.38 4.78,-8.34 6.33,-10.78 2.34,-3.7 4.88,-6.87 7.59,-10.29 4.72,-5.94 12.8,-11.79 19.47,-15.5 15.35,-8.53 47.87,-13.59 59.25,-7.62l-0.34 87.83c-6.99,1.27 -38.79,-9.56 -61.33,7.64 -18.8,14.34 -15.63,35.41 -15.63,56.47 0,24.12 0,48.24 0,72.37 0,23.49 0.75,48.18 -0.07,71.56l-100.55 0.01 0 -285.91c11.51,0 79.79,-0.8 85.1,0.43 1.84,6.55 -0.3,25.47 0.18,33.79zm-789.41 -160.56c27.48,-6.26 54.66,11.74 60.38,39.14 5.73,27.36 -11.9,54.83 -39.33,60.41 -65.35,13.31 -87.37,-84.44 -21.05,-99.55z"/>
   <path class="fil1" d="M3133.79 3696.39c-1.64,-3.93 -0.56,-55.54 -0.56,-64.27 0,-15 -2.17,-49.15 2.51,-61.64 11.52,-30.67 59.33,-40.24 83.02,-9.36 18.8,24.5 24.76,76.3 11.56,103.97 -7.38,15.45 -20.23,24.17 -36.47,28.52 -9.26,2.48 -52.75,5.13 -60.06,2.78zm-13.29 -186.79c-1.57,-6.98 1.57,-25.67 -1.19,-30.54 -4.08,-2.76 -30.61,-1.12 -37.41,-1.12 -11.37,0 -28.25,-0.99 -38.96,0.26l-0.01 218.19c-16.48,3.31 -34.45,-10.7 -40.67,-25.32 -7.86,-18.48 -5.68,-41.02 -5.68,-60.9 0,-9.93 0.78,-125.75 -0.34,-132.2l-94.68 -0.06c-1.41,9.16 -0.39,90.49 -0.39,107.05 0,31.03 -3.2,72.15 7.21,101.11 14.04,39.02 46.87,63.4 84.99,76.03 18.93,6.28 42.28,8.83 45,9.8 2.01,5.01 0.58,86.86 0.76,99.84l94.07 0.33 0.03 -96.03c4.7,-3.06 15.22,-1.98 21.45,-2.18 20.51,-0.67 44.37,-2.98 64.21,-7.16 24.56,-5.18 47.71,-12.96 68.33,-27.64 45.09,-32.11 51.53,-92.76 45.22,-143.8 -11,-89.01 -67.21,-141.89 -156.89,-124.76 -11.7,2.24 -24.78,6.47 -34.67,13.26 -4.78,3.27 -8.82,6.62 -12.33,11.25 -1.6,2.1 -3.62,4.93 -4.79,7.27 -0.73,1.49 -2.28,6.77 -3.26,7.32z"/>
   <path class="fil1" d="M2528.85 3370.25l0.11 393.55 97.38 0.04 0.54 -164.76c4.82,-1.29 135.87,-1 139.41,0.09l0.2 164.74 97.4 -0.06 0.06 -394.03 -96.73 -0.14c-3.87,8.68 1.31,125.03 -1.17,144.19 -3.48,1.14 -134.28,1.4 -139.52,0.08l0.01 -143.88 -97.69 0.18z"/>
   <path class="fil1" d="M3431.2 3584.41c-3.33,-11.74 5.46,-33.97 13.19,-43.5 17.66,-21.78 62.42,-22.7 81.19,0.42 7.41,9.14 16.17,32.01 12.83,43.37l-107.21 -0.29zm174.13 167.1c1.07,-4.78 -6.92,-55.57 -8.33,-64.52 -3.36,-0.2 -17.82,3.51 -22.44,4.38 -24.45,4.62 -53.14,7.34 -77.65,4.72 -14.57,-1.56 -30.45,-5.32 -42.69,-13.48 -9.35,-6.23 -23.06,-22.67 -21.61,-34.63l183.39 -0.06c3.19,-10.97 -0.07,-48.45 -1.99,-60.92 -7.53,-49.22 -30.62,-95.71 -80.9,-112.57 -32.99,-11.05 -78.27,-8.97 -109.65,6.5 -29.5,14.55 -48.59,38.4 -60.71,68.59 -24.53,61.1 -22.54,151.14 33.93,194.68 28.84,22.24 64.97,29.46 100.77,28.75 32.5,-0.64 77.71,-9.09 107.88,-21.44z"/>
   <path class="fil1" d="M3724.61 3512.17c-0.48,-8.32 1.66,-27.24 -0.18,-33.79 -5.31,-1.23 -73.59,-0.43 -85.1,-0.43l0 285.91 100.55 -0.01c0.82,-23.38 0.07,-48.07 0.07,-71.56 0,-24.13 0,-48.25 0,-72.37 0,-21.06 -3.17,-42.13 15.63,-56.47 22.54,-17.2 54.34,-6.37 61.33,-7.64l0.34 -87.83c-11.38,-5.97 -43.9,-0.91 -59.25,7.62 -6.67,3.71 -14.75,9.56 -19.47,15.5 -2.71,3.42 -5.25,6.59 -7.59,10.29 -1.55,2.44 -4.95,9.4 -6.33,10.78z"/>
   <path class="fil0" d="M3133.79 3696.39c7.31,2.35 50.8,-0.3 60.06,-2.78 16.24,-4.35 29.09,-13.07 36.47,-28.52 13.2,-27.67 7.24,-79.47 -11.56,-103.97 -23.69,-30.88 -71.5,-21.31 -83.02,9.36 -4.68,12.49 -2.51,46.64 -2.51,61.64 0,8.73 -1.08,60.34 0.56,64.27z"/>
   <path class="fil2" d="M2935.2 3351.61c-66.32,15.11 -44.3,112.86 21.05,99.55 27.43,-5.58 45.06,-33.05 39.33,-60.41 -5.72,-27.4 -32.9,-45.4 -60.38,-39.14z"/>
   <path class="fil0" d="M3431.2 3584.41l107.21 0.29c3.34,-11.36 -5.42,-34.23 -12.83,-43.37 -18.77,-23.12 -63.53,-22.2 -81.19,-0.42 -7.73,9.53 -16.52,31.76 -13.19,43.5z"/>
   <path class="fil3" d="M2767.22 3369.68c-2.26,0.68 -1.83,-0.85 -1.75,7.94l0 136 -138.1 0 -0.01 -143.88c-5.53,-1.49 -74.67,-0.4 -92.69,-0.59l-4.67 0.4c-0.19,0.07 -0.45,0.27 -0.59,0.33 -0.15,0.07 -0.39,0.24 -0.56,0.37l97.69 -0.18 -0.01 143.88c5.24,1.32 136.04,1.06 139.52,-0.08 2.48,-19.16 -2.7,-135.51 1.17,-144.19z"/>
   <path class="fil3" d="M2626.34 3763.84c2.75,-1.59 1.03,-15.83 1.03,-19.51l0 -144.86 138.1 -0.04 0 154.65c0,3.13 -0.76,7.88 1.02,9.83l-0.2 -164.74c-3.54,-1.09 -134.59,-1.38 -139.41,-0.09l-0.54 164.76z"/>
  </g>
 </g>
</svg>
