<?xml version="1.0" encoding="UTF-8"?>
<!DOCTYPE svg PUBLIC "-//W3C//DTD SVG 1.1//EN" "http://www.w3.org/Graphics/SVG/1.1/DTD/svg11.dtd">
<!-- Creator: CorelDRAW -->
<svg xmlns="http://www.w3.org/2000/svg" xml:space="preserve" width="66.1458mm" height="66.1458mm" version="1.1" style="shape-rendering:geometricPrecision; text-rendering:geometricPrecision; image-rendering:optimizeQuality; fill-rule:evenodd; clip-rule:evenodd"
viewBox="0 0 6614.58 6614.58"
 xmlns:xlink="http://www.w3.org/1999/xlink"
 xmlns:xodm="http://www.corel.com/coreldraw/odm/2003">
 <defs>
  <style type="text/css">
   <![CDATA[
    .fil1 {fill:black}
    .fil0 {fill:#A6DBD8}
    .fil2 {fill:#DCE35F}
    .fil3 {fill:#F5DE3E}
   ]]>
  </style>
 </defs>
 <g id="Camada_x0020_1">
  <metadata id="CorelCorpID_0Corel-Layer"/>
  <g id="_2619739567280">
   <path class="fil0" d="M2059.17 3750.62c-6.41,-4.16 -24.53,-10.32 -33.14,-14.75 -29.98,-15.43 -56.33,-37.59 -76.24,-64.58 -100.63,-136.46 -14.55,-323.74 130.06,-349.46 -8.16,-17.08 -46.29,-47.52 -63.52,-59.66 -83.3,-58.7 -190.9,-70.8 -288.14,-36.5 -104.77,36.95 -198.6,141.32 -207.47,277.93 -9.88,151.97 82.36,260.39 178.35,307.11 59.91,29.15 131.11,40.07 204.22,24.92 54.41,-11.26 122.98,-46.28 155.88,-85.01z"/>
   <path class="fil1" d="M1937.69 3561.07c-14.15,-112.25 70.84,-200.5 166.53,-212.63 112.43,-14.23 201.47,70.7 212.79,167.52 13.21,112.95 -70.18,201.42 -167.14,212.85 -113.5,13.36 -199.88,-70.35 -212.18,-167.74zm-21.07 328.66l-25.1 0c-62.74,-1.76 -123,-16.68 -187.5,-42.23 -44.2,-17.5 -74.58,-41.47 -108.85,-70.26 -15.34,-12.89 -33.73,-28.71 -46.16,-44.27 -13.64,-17.11 -24.36,-26.09 -39.56,-49.13 -4.6,-6.96 -7.45,-10.43 -11.87,-17.69 -12.02,-19.7 -16.66,-26.89 -26.63,-48.14 -33.45,-71.22 -49.14,-129.23 -49.14,-222.14 0,-38.82 6.33,-75.85 14.27,-107.47 2.03,-8.14 4.26,-16.23 6.79,-24.5 11.03,-35.86 26.58,-71.89 45.78,-103.78 42.41,-70.49 108.69,-140.42 182.43,-177.53 47.3,-23.81 29.9,-15.46 83.39,-36.61 100.51,-39.76 203.15,-35.92 303.54,1.49 74.09,27.6 129.46,58.5 185.89,114.94 26.76,26.76 72.29,84.4 89.64,122.53l5.17 10.48c62.28,131.61 64.5,277.95 4.78,410.89 -12.91,28.75 -26.28,52.22 -43.49,76.49 -4.51,6.36 -7.37,10.87 -12.42,17.14 -15.06,18.75 -39.71,49.4 -56.89,63.11 -25.23,20.12 -54.61,46.54 -85.46,62.35 -47.69,24.43 -73.05,37.91 -128.24,50.86 -34.92,8.2 -68.08,12.58 -100.37,13.47zm142.55 -139.11c-32.9,38.73 -101.47,73.75 -155.88,85.01 -73.11,15.15 -144.31,4.23 -204.22,-24.92 -95.99,-46.72 -188.23,-155.14 -178.35,-307.11 8.87,-136.61 102.7,-240.98 207.47,-277.93 97.24,-34.3 204.84,-22.2 288.14,36.5 17.23,12.14 55.36,42.58 63.52,59.66 -144.61,25.72 -230.69,213 -130.06,349.46 19.91,26.99 46.26,49.15 76.24,64.58 8.61,4.43 26.73,10.59 33.14,14.75zm-536.78 -374.09c-7.55,-13.8 -1.97,-76.83 0.62,-95.16 4.06,-28.72 11.5,-56.2 20.95,-81.59 33.8,-90.72 108.1,-173.33 195.92,-212.77 54.17,-24.32 99.07,-35.35 167.1,-37.45 59.64,-1.83 121.35,17.31 166.89,39.44 51.65,25.11 78.67,50.15 115.58,87.89 61.93,63.33 112.45,181.67 97.13,305.4 -8.34,-3.85 -25.61,-28.01 -71.32,-47.76 -34.4,-14.84 -59.45,-17.67 -100.12,-18.1 -4.74,-11.05 -31.3,-37.99 -41.06,-47.66 -4.93,-4.86 -9.1,-7.61 -15.01,-12.81 -17.61,-15.47 -44.95,-33.3 -70.92,-45.6 -180.81,-85.64 -385.27,-5.16 -465.76,166.17z"/>
   <path class="fil2" d="M1522.39 3376.53c80.49,-171.33 284.95,-251.81 465.76,-166.17 25.97,12.3 53.31,30.13 70.92,45.6 5.91,5.2 10.08,7.95 15.01,12.81 9.76,9.67 36.32,36.61 41.06,47.66 40.67,0.43 65.72,3.26 100.12,18.1 45.71,19.75 62.98,43.91 71.32,47.76 15.32,-123.73 -35.2,-242.07 -97.13,-305.4 -36.91,-37.74 -63.93,-62.78 -115.58,-87.89 -45.54,-22.13 -107.25,-41.27 -166.89,-39.44 -68.03,2.1 -112.93,13.13 -167.1,37.45 -87.82,39.44 -162.12,122.05 -195.92,212.77 -9.45,25.39 -16.89,52.87 -20.95,81.59 -2.59,18.33 -8.17,81.36 -0.62,95.16z"/>
   <path class="fil3" d="M1937.69 3561.07c12.3,97.39 98.68,181.1 212.18,167.74 96.96,-11.43 180.35,-99.9 167.14,-212.85 -11.32,-96.82 -100.36,-181.75 -212.79,-167.52 -95.69,12.13 -180.68,100.38 -166.53,212.63z"/>
   <path class="fil1" d="M3701.6 3493.25l-45.21 0 18.12 -87.96c2.07,-9.33 5.47,-21.23 6.23,-30.29 30.99,0 76.82,-4.14 97.85,16.91 8.31,8.32 13.44,13.73 13.44,28.29 0,52.76 -42.94,73.05 -90.43,73.05zm10.44 -170.43l-19.13 0c0,-14.26 19.61,-92.75 20.86,-107.81 24.42,0 46.19,-3.39 69.5,1.81 54.52,12.16 42.34,71.47 3.52,93.81 -16.87,9.7 -47.86,12.19 -74.75,12.19zm-149.56 224.33c54.21,0 167.4,4.5 214.97,-7.62 34.81,-8.87 66.27,-23.48 85.91,-53.22 27.85,-42.16 26.64,-110.62 -31.56,-133.69l-10.84 -4.81c-0.24,-0.13 -0.76,-0.4 -1.11,-0.63 10.63,-2.49 24.6,-8.33 33.62,-13.35 13.48,-7.52 22.12,-14.8 31.27,-26.1 44.58,-55 24.71,-146.63 -82.28,-146.63l-159.98 0c-0.21,9.03 -7.39,36.74 -9.44,47.96l-61.53 287.99c-1.96,8.37 -3.36,17.07 -5.21,24.36 -2.22,8.77 -3.82,15.06 -3.82,25.74z"/>
   <path class="fil1" d="M3359.02 3496.72c-32.52,0 -43.64,-21.81 -39.02,-52.91 6.48,-43.63 10.07,-57.38 38.27,-93.93l22.62 -20.83c28.22,-19.43 50.81,-28.32 85.95,-20.13 0,15.75 -23.38,97.6 -31.03,116.77 -8.77,21.99 -27.07,50.05 -47.25,62.31 -6.29,3.81 -19.38,8.72 -29.54,8.72zm-125.2 -48.69c0,29.21 0.9,54.07 22.97,76.16 30.93,30.92 92.84,27.97 129.51,8.51l37.07 -32.49c0,9.18 -8.54,38.64 -11.51,47.61 -23.74,71.44 -87.65,84.86 -154.75,68.2 -20.37,-5.05 -27.9,-11.05 -37.2,-13.22 -0.86,10.24 -12.37,45.02 -15.66,59.12 21.01,1.75 30.05,15.66 118.25,15.66 52.34,0 109.44,-18.34 139.86,-61.88 28.03,-40.14 33.78,-75.54 44.46,-118.99l52.19 -233.01c-14.62,-7.74 -71.51,-13.91 -95.65,-13.91 -43.78,0 -91.39,14.36 -125.3,34.68 -15.5,9.28 -32.75,21.63 -45.55,34.43 -11.18,11.19 -27.17,31.13 -34.91,45.08 -11.42,20.6 -23.78,52.97 -23.78,84.05z"/>
   <path class="fil1" d="M2687.79 3347.18l-6.96 0c0,-9.81 10.05,-50.97 12.61,-63.9 2.01,-10.13 4.35,-20.75 6.88,-31.39 2.29,-9.61 4.23,-21.52 6.6,-31.67 20.32,0 54.52,-5.79 81.18,7.51 35.4,17.64 30.67,63.35 14.73,84.95 -24.58,33.3 -68.37,34.5 -115.04,34.5zm-53.92 -186.08c-7.33,31.49 -13.19,64.94 -20.51,95.99l-20.52 96c-6.92,32.49 -14.34,62.83 -20.84,95.67 -3.34,16.91 -6.7,31.93 -10.44,48.69l-9.42 49.7 81.73 0c7.09,0 7.03,-16.81 10.78,-32.69 3.73,-15.73 22.26,-99.74 22.26,-109.9 16.45,0 25.85,1.74 41.74,1.74 56.3,0 103.17,-6.39 136.39,-30.56 5.28,-3.84 7.25,-4.46 11.89,-8.96 27.77,-26.97 46.49,-56.25 46.49,-101.34 0,-54.88 -34.5,-92.67 -85.66,-102.15 -27.32,-5.06 -146.92,-2.19 -183.89,-2.19z"/>
   <path class="fil1" d="M4684.12 3369.78zm0 0zm215.63 -113.04l0 0.01 -63 58.7c-11.32,10.47 -73.63,64.56 -79.58,73.46 3.82,16.4 87.54,144.59 88.68,158.24l-92.17 0 -5.11 -10.53c-12.33,-22.01 -65.8,-131.9 -73.14,-137.28 0,10.49 -11.38,58.58 -14.13,74.57l-15.43 73.24 -81.74 0c0,-8.48 3.25,-21.29 4.87,-28.16l82.09 -389.19 81.72 0c-0.38,17.51 -48.69,225.2 -48.69,239.98l85.48 -79.73c29.56,-23.6 20.54,-33.64 48.39,-33.33 27.2,0.29 54.54,0.02 81.76,0.02z"/>
   <path class="fil1" d="M2985.14 3456.73c0,-48.46 11.44,-72.77 38.25,-107.84 5.72,-7.5 25.3,-23.61 35.36,-28.98 39.54,-21.1 49.43,-13.25 72.48,-12.74 0,20.14 -20.82,91.93 -28.8,112.08 -4.22,10.66 -11.91,21.7 -17.84,30.85 -10.38,16.03 -22.64,38.56 -48.34,45.57 -30.48,8.29 -51.11,-8.77 -51.11,-38.94zm-86.95 1.73c0,38.93 14.13,73.29 48.15,87.51 25.34,10.61 50.76,9.59 76.38,2.23 10.79,-3.09 21.71,-9.66 29.92,-15.28 12.71,-8.69 25.13,-21.3 33.72,-34.1 2.67,-4.01 6.71,-10.06 10.08,-12.53 -2.41,10.33 -4.44,20.33 -6.23,32.03 -2.97,19.55 -7.13,27.14 0.93,28.8 10.55,2.17 63.47,0.03 78.34,0.03 6.88,-82.6 20.63,-133.73 38.94,-213.21 2.82,-12.26 4.27,-22.45 7.32,-34.41l7.64 -35.83c-17.28,-9.14 -71.21,-13.91 -99.11,-13.91 -49.19,0 -87.62,13.23 -125.77,35.95 -6.44,3.84 -10.96,6.99 -16.6,11.23 -4.93,3.72 -10.94,8.16 -15.47,12.36 -36.5,33.81 -68.24,79.56 -68.24,149.13z"/>
   <path class="fil1" d="M4000.71 3463.68c0,-35.04 -0.95,-41.68 12.4,-74.54 7.16,-17.6 15.19,-26.47 26.1,-39.99 42.63,-52.81 107.57,-46.76 107.57,-38.5l-17.75 74.41c-9.67,38.06 -36.21,95.94 -74.98,109.36 -30.57,10.59 -53.34,-7.56 -53.34,-30.74zm-88.69 -5.22c0,25.99 8.39,49.39 22.8,67.62 29.91,37.85 96.89,33.62 132.24,7.45 27.01,-20 38.72,-42.22 43.2,-45.51 -0.29,13.04 -8.7,39.39 -8.7,59.13l83.48 0 8.23 -75.23c11.6,-59.89 31.57,-147.68 45.68,-208.22 -16.96,-8.97 -69.59,-13.91 -97.38,-13.91 -56.56,0 -120,21.42 -159.53,59.59 -8.17,7.89 -9.99,7.91 -19.85,20.14 -12.46,15.48 -17.98,20.21 -28.42,41.15 -5.76,11.54 -11.85,26.06 -14.69,39.21 -2.69,12.4 -7.06,34.76 -7.06,48.58z"/>
   <path class="fil1" d="M4367.63 3301.96c1.26,-15.27 6.96,-29.99 6.96,-45.22l-76.52 0c-3.33,14.33 -4.57,30.89 -7.68,46.24l-28.11 133.61c-6.83,30.7 -11.97,58.68 -18.54,89.27 -6.07,28.23 -19.01,21.29 78.67,21.29 0.85,-10.08 4.91,-25.87 7.09,-36.39l22.82 -107.6c9.07,-38.37 11.51,-63.64 42.82,-87.59 19.9,-15.22 69.87,-16.24 69.87,22.91 0,23.72 -23.69,124.5 -30,156.07 -2.29,11.5 -9.99,43.16 -9.99,52.6l81.73 0 22.44 -109.71c6.68,-33.2 21.03,-84.99 21.03,-118.09 0,-82.04 -113.56,-87.75 -163.03,-37.82l-19.56 20.43z"/>
  </g>
 </g>
</svg>
