<?xml version="1.0" encoding="UTF-8"?>
<!DOCTYPE svg PUBLIC "-//W3C//DTD SVG 1.1//EN" "http://www.w3.org/Graphics/SVG/1.1/DTD/svg11.dtd">
<!-- Creator: CorelDRAW -->
<svg xmlns="http://www.w3.org/2000/svg" xml:space="preserve" width="66.1458mm" height="66.1458mm" version="1.1" style="shape-rendering:geometricPrecision; text-rendering:geometricPrecision; image-rendering:optimizeQuality; fill-rule:evenodd; clip-rule:evenodd"
viewBox="0 0 6614.58 6614.58"
 xmlns:xlink="http://www.w3.org/1999/xlink"
 xmlns:xodm="http://www.corel.com/coreldraw/odm/2003">
 <defs>
  <style type="text/css">
   <![CDATA[
    .fil0 {fill:#0B5FA2}
    .fil1 {fill:#FAA831}
   ]]>
  </style>
 </defs>
 <g id="Camada_x0020_1">
  <metadata id="CorelCorpID_0Corel-Layer"/>
  <polygon class="fil0" points="2731.57,3872.18 2870.33,3014.19 3092.16,3014.19 2953.39,3872.18 "/>
  <path class="fil0" d="M3757.61 3035.19c-43.81,-17.35 -113.18,-36.5 -198.99,-36.5 -219.08,0 -373.35,116.82 -374.27,283.85 -1.82,123.22 110.45,191.68 194.43,232.76 85.81,42 115.03,69.36 115.03,106.8 -0.91,57.5 -69.39,83.97 -133.27,83.97 -88.56,0 -136.02,-13.7 -208.14,-45.64l-29.21 -13.7 -31.03 192.6c52.03,23.73 147.87,44.73 247.38,45.64 232.77,0 384.3,-115.01 386.13,-293 0.93,-97.67 -58.42,-172.51 -186.22,-233.67 -77.59,-39.24 -125.05,-65.71 -125.05,-105.87 0.91,-36.52 40.15,-73.93 127.78,-73.93 72.12,-1.82 125.07,15.51 165.24,32.85l20.08 9.13 30.11 -185.29z"/>
  <path class="fil0" d="M4052.48 3568.23c18.25,-49.28 88.55,-240.04 88.55,-240.04 -0.92,1.82 18.24,-50.21 29.21,-82.15l15.51 73.93c0,0 42,205.37 51.13,248.26 -34.71,0 -140.59,0 -184.4,0zm273.85 -554.04l-171.62 0c-52.94,0 -93.11,15.52 -115.93,71.2l-329.53 786.79 232.76 0c0,0 38.35,-105.88 46.57,-128.69 25.55,0 251.94,0 284.8,0 6.38,30.12 26.49,128.69 26.49,128.69l205.37 0 -178.91 -857.99z"/>
  <path class="fil0" d="M2546.27 3014.19l-217.27 585.08 -23.73 -118.66c-40.17,-136.9 -166.14,-285.69 -306.71,-359.62l199 750.29 234.6 0 348.71 -857.09 -234.6 0z"/>
  <path class="fil1" d="M2127.27 3014.19l-356.93 0 -3.65 17.35c278.41,71.2 462.81,242.79 538.58,449.07l-77.6 -394.31c-12.77,-54.76 -52.02,-70.28 -100.4,-72.11z"/>
 </g>
</svg>
