<?xml version="1.0" encoding="UTF-8"?>
<!DOCTYPE svg PUBLIC "-//W3C//DTD SVG 1.1//EN" "http://www.w3.org/Graphics/SVG/1.1/DTD/svg11.dtd">
<!-- Creator: CorelDRAW -->
<svg xmlns="http://www.w3.org/2000/svg" xml:space="preserve" width="13mm" height="13mm" version="1.1" shape-rendering="geometricPrecision" text-rendering="geometricPrecision" image-rendering="optimizeQuality" fill-rule="evenodd" clip-rule="evenodd"
viewBox="0 0 1300 1300"
 xmlns:xlink="http://www.w3.org/1999/xlink"
 xmlns:xodm="http://www.corel.com/coreldraw/odm/2003">
 <g id="Camada_x0020_1">
  <metadata id="CorelCorpID_0Corel-Layer"/>
  <rect fill="white" x="36.35" y="456.16" width="1218.29" height="446.26"/>
  <g id="_1454325175072">
   <g>
    <path fill="#0077A6" d="M1262.81 828.9c0,30.64 -19.4,44.92 -54.13,44.92l-66.36 0 0 -30.64 66.36 0c6.13,0 11.24,-1.01 13.29,-3.05 2.03,-2.05 4.08,-5.12 4.08,-9.19 0,-4.1 -2.04,-8.18 -4.08,-10.21 -2.05,-2.05 -6.13,-3.07 -12.26,-3.07 -31.65,-1.03 -71.48,1.02 -71.48,-43.91 0,-20.43 13.27,-42.9 49.01,-42.9l68.42 0 0 30.64 -63.32 0c-6.11,0 -10.2,0 -13.27,2.04 -3.06,3.06 -5.1,6.13 -5.1,11.23 0,5.11 3.06,8.18 7.14,10.23 4.1,1.01 8.18,2.03 13.29,2.03l18.37 0c19.41,0 31.67,4.08 39.84,11.24 6.11,7.14 10.2,16.35 10.2,30.64l0 0zm-143.99 -30.64c-8.17,-7.16 -20.43,-11.24 -39.83,-11.24l-18.38 0c-5.1,0 -9.19,-1.03 -13.27,-2.03 -4.09,-2.05 -7.14,-5.12 -7.14,-10.23 0,-5.1 1.01,-8.17 5.1,-11.23 3.06,-2.04 7.14,-2.04 13.27,-2.04l63.31 0 0 -30.64 -68.41 0c-36.77,0 -49.03,22.47 -49.03,42.9 0,44.92 39.84,42.88 71.5,43.91 6.11,0 10.2,1.02 12.24,3.07 2.04,2.03 4.09,6.11 4.09,10.21 0,4.07 -2.05,7.14 -4.09,9.19 -3.06,2.04 -7.14,3.05 -13.27,3.05l-66.38 0 0 30.64 66.38 0c34.71,0 54.12,-14.29 54.12,-44.92 0,-14.29 -4.08,-23.5 -10.21,-30.64l0 0zm-130.72 45.96l-80.66 0 0 -28.6 78.63 0 0 -28.58 -78.63 0 0 -26.56 80.66 0 0 -29.61 -114.36 0 0 142.96 114.36 0 0 -29.61zm-151.13 -106.2c-11.24,-6.13 -24.51,-7.16 -41.87,-7.16l-78.62 0 0 142.96 34.71 0 0 -52.08 36.77 0c12.24,0 19.4,1.03 24.51,6.13 6.13,7.14 6.13,19.4 6.13,28.6l0 17.35 33.69 0 0 -27.58c0,-13.27 -1.02,-19.4 -5.1,-26.54 -3.07,-4.1 -9.18,-9.2 -17.36,-12.26 9.18,-3.05 24.51,-15.31 24.51,-37.78 0,-16.33 -6.13,-25.53 -17.37,-31.64zm-194.02 -7.16l-109.27 0 -43.92 46.98 -41.87 -46.98 -137.86 0 0 142.96 135.83 0 43.91 -46.98 41.87 46.98 66.38 0 0 -47.98 42.89 0c29.61,0 59.24,-8.18 59.24,-48 -0.01,-38.81 -30.65,-46.98 -57.2,-46.98zm166.45 59.23c-5.1,2.04 -10.21,2.04 -16.34,2.04l-41.87 1.03 0 -32.69 41.87 0c6.13,0 12.26,0 16.34,3.06 4.09,2.05 7.14,6.13 7.14,12.26 0,6.13 -3.05,11.24 -7.14,14.3zm-166.45 7.15l-44.94 0 0 -36.77 44.94 0c12.26,0 20.42,5.11 20.42,17.37 0,12.25 -8.17,19.4 -20.42,19.4l0 0zm-131.74 5.1l53.1 -56.16 0 115.4 -53.1 -59.24zm-82.72 41.88l-84.76 0 0 -28.6 75.57 0 0 -28.58 -75.57 0 0 -26.56 85.78 0 37.79 41.87 -38.81 41.87 0 0zm739.34 -216.5l-49.01 0 -64.34 -107.23 0 107.23 -69.43 0 -13.28 -31.66 -71.48 0 -13.28 31.66 -39.83 0c-16.34,0 -37.78,-4.09 -50.03,-16.35 -11.24,-12.25 -17.36,-28.59 -17.36,-54.12 0,-21.45 3.06,-40.85 18.37,-56.16 10.21,-11.24 28.6,-16.34 52.08,-16.34l32.67 0 0 30.64 -32.67 0c-12.25,0 -19.41,2.04 -26.55,8.17 -6.13,6.13 -9.19,17.36 -9.19,32.68 0,15.31 3.06,26.55 9.19,33.7 5.1,5.1 14.3,7.14 23.48,7.14l15.33 0 49.01 -112.32 51.06 0 57.19 134.79 0 -134.8 53.1 0 60.25 99.05 0 -99.05 34.72 0 0 142.97 0 0zm-405.4 -142.97l-34.72 0 0 142.97 34.72 0 0 -142.97zm-72.51 6.13c-11.24,-6.13 -23.48,-6.13 -40.84,-6.13l-78.64 0 0 142.97 33.69 0 0 -52.09 36.77 0c12.26,0 20.43,1.02 25.53,6.13 6.13,7.15 5.1,19.41 5.1,27.58l0 18.38 34.71 0 0 -28.6c0,-12.25 -1.01,-18.38 -6.11,-25.53 -3.07,-4.09 -9.2,-9.2 -16.34,-12.25 9.18,-4.09 24.51,-15.32 24.51,-37.79 0,-16.33 -7.15,-25.53 -18.38,-32.67l0 0zm-143.99 107.23l-79.66 0 0 -28.6 78.64 0 0 -29.61 -78.64 0 0 -25.53 79.66 0 0 -29.61 -114.37 0 0 142.96 114.37 0 0 -29.61zm-139.91 -113.36l-56.16 0 -41.87 97.01 -44.93 -97.01 -55.15 0 0 134.79 -58.2 -134.79 -51.06 0 -61.27 142.97 36.76 0 13.27 -31.66 71.48 0 13.28 31.66 69.44 0 0 -112.33 50.04 112.33 29.61 0 50.04 -112.33 0 112.33 34.72 0 0 -142.97 0 0zm553.5 80.67l-23.49 -56.16 -23.49 56.16 46.98 0zm-296.15 -22.46c-5.1,3.07 -10.21,3.07 -17.36,3.07l-41.88 0 0 -31.66 41.87 0c6.13,0 13.27,0 17.36,2.05 4.08,3.06 6.13,7.15 6.13,13.27 0,6.12 -2.04,11.22 -6.12,13.27l0 0zm-563.71 22.46l23.49 -56.16 23.49 56.16 -46.98 0zm1154.98 -528.98l-1218.29 0 0 514.69 41.87 -94.97 88.84 0 12.26 23.49 0 -23.49 104.16 0 23.49 51.06 22.47 -51.06 331.89 0c15.31,0 28.58,3.06 38.8,11.23l0 -11.23 90.89 0 0 11.23c15.3,-8.17 34.71,-11.23 57.18,-11.23l131.73 0 12.26 23.49 0 -23.49 97.01 0 14.3 23.49 0 -23.49 94.97 0 0 200.15 -95.99 0 -18.37 -30.63 0 30.63 -119.49 0 -13.27 -32.67 -29.63 0 -13.27 32.67 -62.29 0c-24.51,0 -42.89,-6.13 -55.14,-12.25l0 12.25 -148.07 0 0 -45.95c0,-6.13 -1.02,-7.15 -5.11,-7.15l-5.1 0 0 53.1 -285.94 0 0 -25.54 -10.21 25.54 -60.25 0 -10.21 -24.51 0 24.51 -115.4 0 -12.25 -32.68 -29.62 0 -13.27 32.68 -59.24 0 0 603.53 1218.29 0 0 -366.62c-13.27,6.13 -31.66,9.2 -50.04,9.2l-88.84 0 0 -12.26c-10.21,8.18 -28.6,12.26 -45.95,12.26l-279.82 0 0 -45.95c0,-6.13 -1.01,-6.13 -6.13,-6.13l-5.1 0 0 52.08 -91.91 0 0 -54.12c-15.31,7.14 -32.67,7.14 -47.99,7.14l-10.22 0 0 46.98 -112.32 0 -26.55 -30.64 -29.61 30.64 -180.77 0 0 -200.15 183.82 0 26.55 30.62 28.6 -30.62 123.57 0c14.28,0 37.78,2.03 47.99,12.24l0 -12.24 110.28 0c11.24,0 32.69,2.03 46.98,12.24l0 -12.24 166.46 0 0 12.25c9.19,-8.17 26.56,-12.24 41.86,-12.24l92.93 0 0 12.24c10.22,-7.14 24.51,-12.24 42.9,-12.24l63.31 0 0 -665.84z"/>
   </g>
  </g>
 </g>
</svg>
