<?xml version="1.0" encoding="UTF-8"?>
<!DOCTYPE svg PUBLIC "-//W3C//DTD SVG 1.1//EN" "http://www.w3.org/Graphics/SVG/1.1/DTD/svg11.dtd">
<!-- Creator: CorelDRAW -->
<svg xmlns="http://www.w3.org/2000/svg" xml:space="preserve" width="17mm" height="13mm" version="1.1" shape-rendering="geometricPrecision" text-rendering="geometricPrecision" image-rendering="optimizeQuality" fill-rule="evenodd" clip-rule="evenodd"
viewBox="0 0 1700 1300"
 xmlns:xlink="http://www.w3.org/1999/xlink"
 xmlns:xodm="http://www.corel.com/coreldraw/odm/2003">
 <g id="Camada_x0020_1">
  <metadata id="CorelCorpID_0Corel-Layer"/>
  <image x="31.93" y="30.94" width="1624.54" height="1237.9" xlink:href="diners-club_Images\diners-club_ImgID1.png"/>
  <g id="_1490214150640">
   <path fill="#2E3192" d="M383.05 506.4c-2.07,-1.93 -3.46,-5.18 -4.83,-7.85l-10.87 -24.02c-25.5,-63.92 -30.16,-131.66 -12.53,-198.66 1.96,-7.44 18.97,-59.73 26.68,-66.26 1.09,-10.83 33.49,-51.1 40.86,-60.35 6.61,-8.29 17.93,-18.4 25.05,-25.32 41.7,-40.57 108.47,-72.29 175.04,-80.1 103.09,-12.09 208.33,29.28 272.65,104.34l10.35 12.37c0.93,1.53 0.57,0.57 0.92,1.99 3.07,2.04 3.15,3.22 5.86,6.69 1.84,2.35 3.13,4.19 4.82,6.55 20.95,29.37 45.09,79.67 50.01,114.27 4.56,12.27 7.2,48.61 7.22,63.36 0.08,61.18 -15.74,118.91 -47.02,168.36 -34.62,54.72 -84.81,102.03 -157.13,129.65 -75.54,28.85 -167.35,26.18 -238.8,-7.05 -47.81,-22.25 -90.41,-54.78 -120.24,-94.22 -4.21,-5.57 -27.76,-37.47 -28.04,-43.75zm288.14 175.98l398.01 0c54.91,0 89.85,-7.11 137.15,-26.12l27.48 -13.13c4.55,-2.27 8.53,-4.77 12.9,-7.4 13.94,-8.38 40.82,-27.38 52.55,-39.24 1.84,-1.87 3.36,-3.59 5.28,-5.28 13.86,-12.21 26.9,-28.4 38.03,-43.2 12.83,-17.08 21.13,-32.31 30.67,-51.37 14.69,-29.36 23.38,-60.82 28.52,-93.32l3.74 -47.44c-0.16,-3.71 -0.89,-5 -0.87,-9.76 0.03,-7.3 -0.22,-12.6 -0.92,-19.38 -1.2,-11.54 -2.65,-24.5 -5.24,-35.36 -4.81,-20.12 -10.69,-44.14 -19.54,-62.52 -18.64,-38.67 -20.83,-44.09 -50.17,-81.42l-35.74 -36.56c-14.61,-11.34 -18.9,-15.25 -34.58,-26.34 -25.72,-18.19 -68.75,-36.32 -99.75,-44.02 -20.49,-5.09 -46.79,-9.58 -72.45,-9.58l-433.75 0c-30.06,0 -74.73,7.83 -102.93,18.92 -10.46,4.12 -19.49,7.35 -29.2,12.22 -32.03,16.04 -40.15,21.46 -68.05,43.23 -7.2,5.63 -26.98,23.96 -31.89,29.84l-14.24 16.63c-6.32,7.73 -11.37,15.09 -17.34,23.27l-7.71 12.5c-23.15,34.17 -43.71,96.81 -46.24,138.24 -0.38,6.14 -0.44,12.6 -0.81,19.5 -0.35,6.52 -1.51,12.17 -0.35,19.84 0.9,5.93 0.22,13.92 0.93,19.38 4.58,35.39 9.2,64.53 24.06,97.78 16.91,37.83 26.18,51.81 50.42,82.78l9.62 10.69c4.4,4.33 7.32,9.41 15.46,16.22 18.73,15.65 20.52,19.46 45.25,35.98 55.46,37.05 116.73,54.42 191.7,54.42z"/>
   <path fill="white" d="M381.5 209.61c-0.27,2.5 -0.29,8.22 -0.29,12.21 0,2.04 -1.22,11.74 1.6,12.43l83.69 0.57c8.33,0 20.57,2.01 27.59,-1.62 1.76,-0.71 3.55,-3.87 4.97,-5.63 12.04,-14.88 24.7,-27.04 40.97,-38.63 12.48,-8.89 45.34,-27.57 60.26,-29.29l-0.05 393.47c-17.8,-1.59 -64.66,-29.03 -79.67,-45.05l-3.85 -3.09c-0.06,-0.2 -0.31,-0.14 -0.48,-0.18 -6.87,-2.94 -102.68,-0.45 -126.96,-1.18 -5.15,-0.15 -5.29,-1.12 -6.23,2.78 0.28,6.28 23.83,38.18 28.04,43.75 29.83,39.44 72.43,71.97 120.24,94.22 71.45,33.23 163.26,35.9 238.8,7.05 72.32,-27.62 122.51,-74.93 157.13,-129.65 31.28,-49.45 47.1,-107.18 47.02,-168.36 -0.02,-14.75 -2.66,-51.09 -7.22,-63.36l-2.64 -2.43c-15.33,0 -103.73,-1.07 -110.96,0.59 1.28,6.46 4.16,13.76 5.88,20.83 5.65,23.24 6.85,48.33 4.12,71.92 -3.47,29.89 -13.19,55.28 -25.93,77.87 -25,44.34 -66.55,77.16 -114.97,93.17l0.21 -390.98 12 3.57c6.75,1.33 138.19,0.08 163.05,0.38 9.45,0.11 7.92,0.72 8.55,-2.43 -0.35,-1.42 0.01,-0.46 -0.92,-1.99l-10.35 -12.37c-64.32,-75.06 -169.56,-116.43 -272.65,-104.34 -66.57,7.81 -133.34,39.53 -175.04,80.1 -7.12,6.92 -18.44,17.03 -25.05,25.32 -7.37,9.25 -39.77,49.52 -40.86,60.35z"/>
   <path fill="#2E3192" d="M494.09 233.2l-17.79 29.29c-18.33,33.94 -26.01,76.95 -21.69,116.49 8.81,80.58 58.5,119.18 61.63,125.82 0.17,0.04 0.42,-0.02 0.48,0.18l3.85 3.09c15.01,16.02 61.87,43.46 79.67,45.05l0.05 -393.47c-14.92,1.72 -47.78,20.4 -60.26,29.29 -16.27,11.59 -28.93,23.75 -40.97,38.63 -1.42,1.76 -3.21,4.92 -4.97,5.63z"/>
   <path fill="#2E3192" d="M853.46 288.21c-1.09,-1.48 -6.97,-16.55 -9.15,-21.03 -3.47,-7.15 -6.81,-13.12 -10.63,-19.4 -6.95,-11.43 -12.05,-17.09 -19.8,-26.5 -2.48,-3.01 -4.52,-4.74 -7.09,-7.53 -14.18,-15.4 -32.4,-28.75 -51.81,-39.18 -3.9,-2.09 -18.28,-7.93 -20.21,-9.98l-12 -3.57 -0.21 390.98c48.42,-16.01 89.97,-48.83 114.97,-93.17 12.74,-22.59 22.46,-47.98 25.93,-77.87 2.73,-23.59 1.53,-48.68 -4.12,-71.92 -1.72,-7.07 -4.6,-14.37 -5.88,-20.83z"/>
   <path fill="#FEFEFF" d="M383.05 506.4c0.94,-3.9 1.08,-2.93 6.23,-2.78 24.28,0.73 120.09,-1.76 126.96,1.18 -3.13,-6.64 -52.82,-45.24 -61.63,-125.82 -4.32,-39.54 3.36,-82.55 21.69,-116.49l17.79 -29.29c-7.02,3.63 -19.26,1.62 -27.59,1.62l-83.69 -0.57c-2.82,-0.69 -1.6,-10.39 -1.6,-12.43 0,-3.99 0.02,-9.71 0.29,-12.21 -7.71,6.53 -24.72,58.82 -26.68,66.26 -17.63,67 -12.97,134.74 12.53,198.66l10.87 24.02c1.37,2.67 2.76,5.92 4.83,7.85z"/>
   <path fill="#FEFEFF" d="M734.77 164.59c1.93,2.05 16.31,7.89 20.21,9.98 19.41,10.43 37.63,23.78 51.81,39.18 2.57,2.79 4.61,4.52 7.09,7.53 7.75,9.41 12.85,15.07 19.8,26.5 3.82,6.28 7.16,12.25 10.63,19.4 2.18,4.48 8.06,19.55 9.15,21.03 7.23,-1.66 95.63,-0.59 110.96,-0.59l2.64 2.43c-4.92,-34.6 -29.06,-84.9 -50.01,-114.27 -1.69,-2.36 -2.98,-4.2 -4.82,-6.55 -2.71,-3.47 -2.79,-4.65 -5.86,-6.69 -0.63,3.15 0.9,2.54 -8.55,2.43 -24.86,-0.3 -156.3,0.95 -163.05,-0.38z"/>
   <path fill="black" d="M198.45 1002.42c-7.79,0 -27.06,-1.34 -30.91,-8.14 -3.14,-5.56 2.56,-24.61 3.92,-30.22l15.45 -59.28c4.95,-19.94 10.56,-39.67 15.43,-59.3 2.52,-10.15 5.27,-19.28 7.79,-29.58 3.38,-13.83 10.02,-17.36 23.24,-17.36 10.66,0 21.7,2.16 29.61,5.32 25.18,10.06 35.38,45.19 35.38,73.47 0,22.44 -7.28,48.3 -16.94,66.72 -4.15,7.92 -10.86,18.85 -16.98,25.27 -9.55,10.02 -9.85,11.32 -22.45,19.78 -10.18,6.84 -26.9,13.32 -43.54,13.32zm-39.8 -206.32c15.7,0 23.65,1.24 20.79,20.79 -3.1,21.2 -18.47,71.97 -24.1,97.74l-5.79 22.64c-2.42,9.68 -5.07,19.46 -7.64,29.73 -7.22,28.9 -8.66,41.1 -34.44,41.1 -0.57,2.44 -1.4,4.63 -1.62,7.31 26.04,0 85.89,1.48 108.71,-1.76 21.64,-3.06 40.02,-9.27 57.96,-20.01 9.86,-5.92 23.54,-16.93 30.37,-25.68 3.72,-4.76 6.17,-8.02 9.6,-13.14 13.45,-20.08 20.79,-45.17 20.79,-75.06 0,-19.79 -7.17,-43.49 -17.74,-57.8 -2.02,-2.75 -3.88,-4.69 -5.8,-7.19 -1.93,-2.52 -4.29,-4.02 -6.71,-6.28 -17.22,-16.09 -48.8,-19.7 -81.84,-19.7l-59.3 0c-3.08,0 -3.24,4.09 -3.24,7.31z"/>
   <path fill="black" d="M976.6 930.12c0,32.48 11.79,57.2 32.3,74.11 27.12,22.38 74.32,20.38 101.96,0.05 12.17,-8.96 24.19,-19.84 31.44,-33.54 -1.61,-2.41 -4.22,-6.24 -7.31,-6.5 -3.06,11.48 -36.79,41.42 -61.73,41.42 -12.73,0 -18.16,-0.19 -30.03,-7.33 -18.38,-11.07 -30.89,-34.77 -30.89,-59.27 0,-36.88 6.74,-65.68 25.52,-96.32 5.68,-9.26 16.62,-23.5 24.64,-30.59 19.05,-16.83 49.48,-23.89 70.89,-8.76 12.93,9.15 14.6,33.26 14.6,50.38l7.31 0 5.79 -33.2c1.26,-7.49 5.58,-28.62 5.58,-34.22 -12.89,0 -5.53,7.31 -17.06,7.31 -11.17,0 -9.09,-9.75 -48.73,-9.75 -18.38,0 -36.69,7.49 -51.22,16.2 -35.49,21.26 -59.64,59.78 -69.17,99.79 -1.75,7.37 -3.89,21.11 -3.89,30.22z"/>
   <path fill="black" d="M1440.41 1010.54c-21.6,0 -21.12,-7.91 -21.12,-17.06 0,-4.41 2.44,-12.86 3.61,-17.51l6.47 -25.2c3.74,-17.35 9.75,-41.26 20.65,-54.9 12.02,-15.05 33.22,-23.28 44.49,-4.41 14.36,24.07 0.54,62.12 -11.58,84.44 -7.35,13.55 -25.52,34.64 -42.52,34.64zm2.43 -120.22zm0 0zm0 0c0.09,-4.09 8.32,-34.89 9.91,-41.26l15.44 -61.73c0.61,-2.45 2.77,-7.95 1.2,-9.66 -2.48,-2.7 -7.44,0.03 -9.84,1.02 -9.43,3.88 -28.26,11.72 -40.26,11.72 0,12.22 1.08,4.4 11.83,7.66 6.32,1.91 6.78,7.7 5.6,15.46 -1.94,12.74 -20.96,91.88 -24.41,105.55 -2.99,11.81 -5.6,23.35 -8.29,34.77l-8.17 34.88c-3.19,24.82 13.02,29.98 33.18,29.93 7.17,-0.01 15.09,0.55 20.98,-0.95 26.61,-6.8 41.14,-21.93 55.5,-41.16 1.61,-2.14 2.68,-4.1 4.1,-6.46 1.44,-2.38 2.33,-4.43 3.76,-6.81 5.47,-9.14 12.35,-30.08 13.11,-42.12 0.99,-15.61 1.37,-24.92 -4.29,-37.08 -4.07,-8.74 -13.34,-17.59 -22.65,-20.4 -19.58,-5.91 -38.87,7.85 -51.23,20.74 -2.09,2.17 -3.07,4.3 -5.47,5.9z"/>
   <path fill="black" d="M464.06 925.25c3.6,-15.45 11.11,-40.41 15.51,-56.88 2.23,-8.36 -2.67,-5.66 -9.48,-4.51l-30.62 5.93c-7.82,1.35 -10.14,-0.75 -10.34,8.35 20.49,0 23.76,0.58 14.91,33.59l-11.02 40.15c-0.81,2.87 -16.8,59.66 -16.88,63.53l24.36 0c0.28,-3.32 1.98,-7.07 2.92,-10.89 1.12,-4.5 2.12,-6.8 3.25,-11.37 1.81,-7.3 4.4,-15.27 6.73,-21.7 8.41,-23.29 19.36,-45.93 34.55,-65.36l7.06 -7.56c4.85,-4.65 9.61,-9.07 16.6,-11.83 8.05,-3.19 16.62,-5.13 16.62,6.87 0,10.57 -15.25,66.66 -18.85,81.06 -2.18,8.73 -10.3,31.59 -1.83,40.34 11.76,12.15 30.26,-2.41 38.31,-11.98 10.25,-12.19 11.38,-17.83 17.3,-29 -2.52,-1.69 -1.81,-2.43 -4.88,-3.25 -1.78,1.3 -7.5,11.37 -10.21,14.97 -2.74,3.63 -8.01,11.83 -13.34,11.83 -10.01,0 1.17,-32.27 2.11,-36.06 4.57,-18.47 18.19,-61.68 18.19,-76.84 0,-11.44 -4.24,-22.75 -15.43,-22.75 -12.07,0 -17.53,3.03 -27.95,10.23 -24.68,17.05 -46.06,52.01 -47.59,53.13z"/>
   <path fill="black" d="M1334 943.93l0.45 -1.74 -0.45 1.74zm0 0c-0.27,3.28 -1.51,6.47 -2.34,9.04 -0.96,2.99 -1.71,5.89 -2.53,8.83 -1.7,6.06 -3.52,12.41 -4.83,18.74 -1.34,6.52 -4.24,23.82 -1.38,30.52 4.55,10.68 16.87,8.73 24.9,5.17 7.39,-3.27 11.3,-8.36 15.67,-13.56 1.13,-1.34 1.51,-1.56 2.67,-3.03l14.14 -21.59c-2.66,-1.78 -2.53,-3.22 -5.69,-4.06 -0.75,2.81 -3.31,5.43 -5.03,7.96 -1.85,2.71 -3.65,5.02 -5.51,7.49 -7.67,10.16 -23.07,17.87 -14.15,-17.41l26.32 -106.89 -23.56 0c-0.08,3.83 -3.63,14.59 -4.7,18.86 -9.3,36.87 -31.5,84.92 -60.02,108.11 -2.98,2.42 -10.94,8.89 -16.34,5.29 -10,-6.69 2.67,-46.24 5.98,-57.88l14.81 -57.49c1.49,-6.02 4.7,-13.78 3.41,-19.33 -5.72,-1.33 -6.57,-0.41 -12.02,0.98 -3.7,0.94 -7.52,1.71 -12.01,2.61 -4.45,0.9 -7.93,1.47 -12.4,2.22 -3.37,0.56 -9.59,1.01 -12.3,2.32l0 5.68c29.5,0 15.02,25.4 7.77,58.95 -2.56,11.84 -5.65,23.45 -8.43,34.62 -2.6,10.45 -5.99,27.27 -1.23,38.28 9.32,21.58 35.12,6.73 48.4,-6.55l10.23 -11.69c1.61,-2.18 3.01,-3.72 4.65,-5.91 6.85,-9.14 25.21,-39.93 25.52,-40.28z"/>
   <path fill="black" d="M650.88 1173.8l7.62 -25.68c1.73,-5.31 7,-22.24 7,-27.11 -6.16,-1.44 -42.3,6.64 -50.36,7.31 0,3.88 -0.55,3.37 -0.81,6.5 4.3,0 8.18,0.14 11.82,1.17 13.48,3.79 4.31,22.04 0.03,39.1 -2.55,10.16 -23.6,83.63 -24.04,88.88 4.06,0 8.18,-0.09 12.22,-0.04 4.68,0.06 6.13,0.85 11.34,0.85 5.99,-25.72 11.18,-41.98 21.95,-65.78 4.03,-8.91 13.02,-23.08 19.13,-31.23 10.64,-14.2 42.58,-42.35 42.58,-15.9 0,9.6 -2.91,16.64 -4.88,24.36 -1.06,4.12 -1.75,7.44 -2.96,11.66 -3.09,10.68 -14.09,51.65 -14.09,59.02 0,15.5 -0.71,21.12 16.25,21.12 5.14,0 11.58,-3.82 14.96,-6.16 9.17,-6.35 23.94,-26.07 26.46,-36.89 -2.41,-1.28 -2.71,-2.19 -5.68,-2.44 -0.83,3.11 -6.92,10.77 -9.19,13.56 -3.59,4.41 -7.61,10.81 -13.56,10.81 -9.43,0 1.5,-31.28 3.6,-38.65l13.15 -47.77c1.4,-5.49 1.89,-12.31 2.56,-17.81 0.98,-7.99 -2.47,-24.92 -15.24,-24.92 -15.73,0 -23.31,5.85 -35.05,15.31 -5.36,4.31 -10.31,10.07 -15.13,14.93l-19.68 25.8z"/>
   <path fill="black" d="M1260.08 1172.18c0.43,-5.09 14.62,-48.24 14.62,-51.17 0,-4.81 -6.89,-2.28 -10.48,-1.56 -4.12,0.83 -9.03,1.48 -13.15,2.29 -8.83,1.76 -18.21,2.97 -26.73,4.95l0 6.5c21.94,0 19.24,5.05 14.97,24.71 -1.26,5.78 -2.3,9.53 -3.76,14.92l-20.24 73.18c-1.14,3.9 -3.61,11.23 -3.96,15.53l23.55 0.81 5.35 -19.84c2.05,-7.25 3.07,-12.8 5.68,-19.49 5.16,-13.26 8.15,-21.68 15.52,-34.84 8.22,-14.7 19.67,-32.27 33.71,-41.84 33.12,-22.57 22.71,12.06 18.53,29.1l-13.17 48.56c-2.78,10.84 -12.12,41.6 7.49,41.6 14.81,0 19.54,-4.92 30.27,-16.02 3.98,-4.12 14.64,-20.29 16.03,-26.22 -2.14,-1.43 -2.28,-1.87 -4.88,-3.25 -4.17,6.24 -15.54,24.37 -23.55,24.37 -7.06,0 -2.82,-15.24 -1.98,-18.22 4.08,-14.32 20.66,-70.99 20.66,-80.88 0,-13.71 1.81,-30.05 -17.87,-30.05 -24.67,0 -51.99,35.44 -65.58,55.45 -1.15,1.71 -0.22,0.48 -1.03,1.41z"/>
   <path fill="black" d="M195.2 1172.99l-0.45 1.75 0.45 -1.75zm0 0l7.03 -25.46c1.34,-4.65 2.44,-7.99 3.7,-12.54 1.17,-4.19 3.08,-8.48 3.08,-13.98 -5.34,-1.25 -30.26,4.34 -37.59,5.46 -5.1,0.77 -8.98,0.84 -12.77,2.66l0 5.69c7.86,0 16.42,0.68 18.26,6.95 1.62,5.57 -7.09,33.58 -8.84,40.65l-16.64 60.53c-6.96,23.67 -6.65,21.02 -1.02,21.09 2.15,0.03 4.46,-0.1 6.64,-0.1 5.11,0 6.75,0.84 12.16,0.84 3.98,-17.09 10.05,-39.87 17.58,-55.52 4.22,-8.75 13.33,-26.63 18.38,-33.61 8.41,-11.63 12.27,-17.71 24.39,-27.6 3.42,-2.79 14.92,-9.46 19.95,-8.68 7.38,1.15 3.75,18.33 2.4,23.73 -3.9,15.55 -8.39,30.9 -12.36,46.94 -2.68,10.84 -11.63,37.29 -8.43,48.86 4.18,15.09 23.41,11.13 37.79,-3.26 4.41,-4.41 21.55,-25.25 20.32,-30.47 -0.42,-1.79 -2.66,-2.9 -4.68,-3.44 -3.23,6.1 -11.71,16.07 -16.84,21.34 -3.15,3.22 -3.11,3.84 -9.16,3.84 -2.83,-5.35 -2.43,-7.8 -0.99,-13.99 4.9,-21.03 15.97,-54.45 19.63,-72.16 3.89,-18.85 6.13,-51.46 -24.64,-41.7 -20.24,6.43 -41.05,30.77 -53.3,48.24 -1.54,2.2 -2.03,4.21 -4.05,5.69z"/>
   <path fill="black" d="M800.34 1248.53c-12.94,0 -14.62,-6.67 -14.62,-20.3 0,-12.88 2.52,-22.69 5.78,-32.39 3.07,-9.12 6.05,-19.43 10.18,-28 7.34,-15.24 21.99,-37.9 40.9,-37.9 7.03,0 12.99,8.9 12.99,16.25 0,30.48 -12.26,49.43 -25.71,74.19 -4.49,8.27 -18.59,28.15 -29.52,28.15zm-40.62 -16.24c0,10.29 2.03,24.45 10.05,30.56 13.42,10.23 32.47,2.94 43.39,-7.99 8.02,-8.02 18.93,-24.05 25.52,-32.96 0.69,-0.93 0.87,-1.12 1.46,-1.8 -0.42,5.06 -10.7,34.34 -3.07,43.69 13.77,16.86 44.94,-20.87 50.99,-32.31 -1.11,-1.52 -3.59,-3.51 -5.68,-4.07 -2.73,11.7 -24.37,26.12 -24.37,16.25 0,-8.64 11.4,-50.25 14.52,-60.21l16.35 -59.19 -23.56 0c-0.11,4.86 -2.06,6.08 -2.44,10.56l-2.64 -4.67c-2.87,-3.64 -9.24,-8.33 -14.41,-8.33 -12.25,0 -15.75,-0.41 -27.62,4.88 -5.67,2.52 -9.46,5.62 -14.06,9.49 -7.2,6.05 -11.24,10.85 -16.48,18.45 -15.18,21.98 -27.95,49.77 -27.95,77.65z"/>
   <path fill="black" d="M1450.97 1220.92zm-40.62 27.61l40.62 -27.61zm-40.62 27.61l-3.25 0c-14.08,0 -10.65,-28.98 -8.44,-38.49 2.41,-10.36 5.15,-19.38 9.02,-29.16 2.12,-5.37 3.12,-8.82 5.65,-13.85 5.66,-11.26 14.26,-24.84 24.63,-32.22 13.72,-9.77 28.44,-4.1 28.44,9.75 0,20.55 -3.75,34.34 -12.45,51.73 -4.84,9.68 -14.78,28.26 -21.18,36.48 -4.13,5.29 -13.96,15.76 -22.42,15.76zm40.62 -27.61c-0.49,5.82 -18.19,55.34 11.68,45.8 12.97,-4.14 34.46,-28.57 36.24,-35.24l-3.88 -4.25 -9.73 12.57c-4.7,5.39 -8.24,7.11 -14.82,7.11 -3.27,-6.82 1.3,-19.27 3.26,-26.8 0.82,-3.18 1.57,-5.88 2.43,-8.94l23.17 -83.37c0.71,-2.3 1.23,-2.87 0.39,-3.72 -1.58,-1.57 -18.16,-0.64 -21.94,-0.64 -1.44,2.72 -2.93,6.75 -3.25,10.56l-1.62 0c-0.44,-5.26 -8.82,-10.74 -11.87,-11.69 -7,-2.17 -14.8,-1.27 -21.28,0.47 -16.5,4.44 -31.36,18.03 -40.62,31.68 -17.31,25.54 -33.47,61.08 -26.77,92.27 6.59,30.69 39.16,23.23 54.68,4.69l18.71 -23.53c1.77,-2.45 3.11,-5.43 5.22,-6.97z"/>
   <path fill="black" d="M82.29 1056.84c7.9,0 21.12,0.36 21.12,11.37 0,11.3 -8.03,41.51 -11.2,52.97 -2.38,8.6 -3.89,16.69 -6.39,25.29 -6.65,22.87 -20.69,89.91 -28.1,100.24 -7.33,10.23 -16.38,8.45 -20.73,9.31 -3.28,0.66 -4.52,0.64 -5.06,7.13l82.85 0c0.82,-9.81 4.49,-5.65 -7.68,-7.75 -19.35,-3.34 -14.81,-14.12 -8.73,-36.28 5.53,-20.12 10,-40.48 15.43,-60.11 5.55,-20.04 17.93,-74.06 24.05,-88.85 5.55,-13.43 15.57,-12.51 25.67,-12.51 0.74,-1.55 1.44,-4.34 1.62,-6.5 -3.67,-0.08 -3.22,-0.81 -7.31,-0.81l-72.29 0c-2.9,0 -3.18,3.56 -3.25,6.5z"/>
   <path fill="black" d="M1088.69 1229.85c0,-29.38 16.54,-72.47 40.05,-91.54 1.8,-1.46 4.44,-3.24 6.27,-4.29 9.83,-5.66 24.78,-6.08 32.01,4.5 13.91,20.36 5,51.48 -3.62,71 -7.46,16.91 -15.76,35.35 -32.73,44.44 -12.56,6.72 -26.55,9.4 -35.83,-4.26 -3.04,-4.47 -6.15,-12.84 -6.15,-19.85zm-25.18 -15.43c0,15.05 0.19,28.51 11.17,40.82 11.73,13.15 20.87,13.59 35.86,13.6l2.52 0c20.55,0 34.99,-9.67 48.05,-20.18 31.18,-25.11 54.52,-78.35 25.63,-112.8 -3.69,-4.41 -8.79,-7.43 -14.6,-9.76 -25.79,-10.31 -48.72,0.21 -68.37,14.85 -4.6,3.43 -7.64,7.17 -11.63,11.12 -3.54,3.49 -7.28,8.42 -10.12,12.63 -7.98,11.85 -18.51,35.29 -18.51,49.72z"/>
   <path fill="black" d="M608.64 937.43c0.09,-3.69 2.4,-10.03 3.56,-13.5 1.7,-5.1 3.06,-8.14 5.02,-12.85l9.97 -16.83c6.65,-8.27 25.17,-26.74 36.55,-23.34 7.57,2.26 6.64,12.36 6.64,18.6 0,7.78 -5.12,18.4 -9.56,23.75 -5.42,6.54 -2.84,4.25 -10.74,10.38 -9.09,7.05 -30.1,13.54 -41.44,13.79zm8.13 81.23c19.53,0 26.46,-0.81 43.52,-14.15 7.39,-5.77 16.24,-17.04 21.46,-24.84 -1.02,-1.93 -1.88,-2.77 -2.44,-4.87 -4.62,1.23 -4.32,4.84 -9.74,8.94 -2.13,1.6 -2.69,2.47 -4.68,4.26 -23.03,20.7 -58.68,21.99 -58.68,-19.7l0.62 -16.44c0.53,-5.33 -0.75,-5.07 4.64,-5.91 6.46,-1 11.86,-1.61 17.56,-2.75 23.17,-4.61 38.14,-12.94 53.75,-29.1 16.44,-17.03 22.03,-52.21 -16.47,-52.21 -8.99,0 -21.84,3.78 -27.88,7.04l-15.79 10.21c-20.93,17.15 -37.6,45.75 -41.49,73.04 -3.29,23.11 -1.59,51.4 21.51,62.72 3.46,1.69 9.38,3.76 14.11,3.76z"/>
   <path fill="black" d="M416.14 1191.67c3.99,-17.16 7.56,-26.88 16.81,-39.22 6.94,-9.26 19.86,-24.13 32.73,-24.13 16.54,0 8.98,32.98 -8.58,46.65 -12.13,9.45 -24.85,15.36 -40.96,16.7zm-30.06 21.12c0,12.34 -0.55,17.17 3.73,29.57 10.59,30.66 49.05,30.65 74.14,11.75 5.7,-4.29 18.73,-16.38 22.04,-22.63l-3.88 -4.25c-3.03,0.95 -2.39,1.25 -4.46,3.22 -10.04,9.55 -24.27,21.33 -38.77,21.33 -8.32,0 -16.47,-3.5 -20.53,-7.9 -7.2,-7.79 -6.28,-22.2 -6.28,-33.52 0,-4.09 0.73,-3.64 0.82,-7.31 14.55,0 42.98,-8.88 55.71,-16.58 13,-7.85 30.39,-22.66 30.39,-42.72 0,-28.81 -31.38,-28.99 -54.16,-17.6 -12.95,6.48 -15.86,9.73 -25.57,17.48 -2.93,2.34 -4.74,4.65 -7.07,7.54 -5.14,6.37 -8.05,9.18 -12.03,17.22 -5.42,10.94 -14.08,28.86 -14.08,44.4z"/>
   <path fill="black" d="M1192.66 785.54l0 6.5c17.05,0 19.5,3.91 19.5,13.81 0,7.73 -16.61,70.22 -20.14,83.83l-21.49 84.1c-1.73,8.21 -9.39,31.69 -0.87,40.27 9.63,9.71 23.61,1.49 31.69,-5.38l5.76 -4.81c5.68,-5.31 13.97,-18.11 18.05,-24.19 -0.83,-1.23 -3.78,-4.88 -4.88,-5.68 -1.47,1.08 -14.51,22.74 -24.37,22.74 -10.07,0 1.61,-36.05 3.08,-42.41l16.09 -63.51c4.77,-19.06 12.22,-46.29 16.11,-64.31 1.54,-7.16 12.54,-44.77 11.09,-47.52 -1.42,-2.68 -3.48,-2.18 -6.46,-1.55 -14.08,2.94 -30.33,5.12 -43.16,8.11z"/>
   <path fill="black" d="M820.64 897.63c0,21.61 7.75,27.55 19.03,45.96 6.87,11.21 33.14,46.77 7.8,62.91 -7.21,4.6 -14.88,4.79 -23.04,0.25 -6.84,-3.8 -10.64,-10.16 -13.43,-17.43 -1.96,-5.1 -3.43,-13.87 -3.98,-19.58 -0.46,-4.75 0.69,-5.5 -4.24,-5.5 -3.41,0 -2.64,4.86 -3.6,11.83l-5.34 42.59 6.5 0c6.46,-12.21 9.95,-1.28 31.75,0.74 38.99,3.63 58.49,-31.96 50.01,-58.13 -2.43,-7.5 -11.47,-22.47 -15.81,-29.68 -4.07,-6.74 -21.28,-31.17 -21.28,-38.83 0,-13.92 3.95,-20.31 18.69,-20.31 17.27,0 24.72,22.21 25.13,34.97 0.22,6.64 -1.38,6.46 6.54,6.46l6.5 -50.36 -6.5 0c-1.64,19.75 -33.49,-19.95 -64.39,9.52 -5.68,5.42 -10.34,13.86 -10.34,24.59z"/>
   <path fill="black" d="M1562.25 1070.65c0,10.81 -18.81,76.63 -21.93,88.54l-14.62 54.42c-3.1,10.97 -17.95,54.42 5.68,54.42 6.8,0 11.95,-0.78 17.41,-4.52 9.06,-6.21 24.54,-21.4 26.45,-29.6l-3.87 -4.24c-2.76,1.9 -3.24,3.99 -5.3,6.44l-5.23 6.14c-22.85,20.97 -18.67,0.69 -13.74,-16.17 2.59,-8.86 4.15,-16.91 6.74,-25.76l37.31 -143c3.91,-15.51 10.82,-15.69 -38.86,-6.38 -1.89,0.35 -3.48,0.51 -4.84,0.85 -3.1,0.76 -2.09,-0.5 -3.19,2.64 -3.1,8.86 8.32,1.83 14.57,7.44 1.66,1.49 3.42,5.91 3.42,8.78z"/>
   <path fill="black" d="M749.17 917.94l0.24 0.24c-0.02,-0.01 -0.33,-0.16 -0.24,-0.24zm-36.56 -40.61l0 2.43c23.91,0 20.88,14.62 16.7,31.32l-15.89 60.47c-1.25,5.08 -2.54,10.74 -3.96,15.53l-5.98 22.51c-1.97,7.32 -3.97,5.82 19.69,5.82 3.55,0 4.61,-11.14 6.01,-16.74 1.66,-6.62 3.23,-11.45 5.02,-17.72 1.05,-3.68 1.66,-5.54 2.78,-8.59 1.05,-2.83 1.72,-5.41 2.9,-8.47 7.29,-18.85 25.69,-63.34 40.96,-73.57 0.71,3.02 2.31,5.91 4.22,7.97 11.15,12 25.84,-4.82 25.84,-15.28l0 -6.5c0,-6.19 -5.25,-12.18 -14.62,-12.18 -13.13,0 -30.4,26.14 -36.91,37.01 -2.38,3.98 -7.84,14.65 -9.39,15.79 0.32,-3.83 2.3,-10.01 3.25,-13.81 1.67,-6.69 10.19,-35.22 8.93,-40.62 -5.27,-1.22 -19.88,3.93 -26.31,5.37l-20.94 4.29c-5.45,1.09 -2.3,0.83 -2.3,4.97z"/>
   <path fill="black" d="M317.85 1127.51c-0.08,3.67 -0.81,3.22 -0.81,7.31l18.68 0c-0.24,2.87 -1.15,5.52 -1.82,8.73l-10.64 42.16c-4.04,13.89 -16.79,59.63 -12.96,70.38 2.16,6.09 5.87,9.5 13.24,9.5 15.69,0 26.22,-12.04 33.79,-23.07 9.2,-13.42 10.13,-11.79 2.76,-16.73 -3.04,4.54 -15.29,21.12 -21.12,21.12 -9.47,0 1.78,-32.02 3.71,-40.96 3.51,-16.27 10.23,-39.99 14.49,-57 0.95,-3.81 2.43,-11.43 3.73,-14.13l23.56 0c0.79,-3.4 2.35,-7.62 2.43,-11.38l-23.55 0c1.26,-5.4 9.64,-35.22 9.74,-39.8 -10.03,0 -5.75,2.97 -19.02,19.97 -1.88,2.4 -3.5,4.59 -5.53,6.65 -4.06,4.12 -7.84,7.44 -13.34,10.22 -5.34,2.69 -11.19,5.59 -17.34,7.03z"/>
   <path fill="black" d="M515.23 1137.25c2.38,-1.14 6.79,0.25 10.49,0.88 8.26,1.43 7.38,5.34 7.38,9.68 0,13.61 -9.38,44.42 -13.46,58.83 -2.74,9.66 -5.11,19.03 -7.48,28.26 -1.57,6.12 -7.38,24.34 -7.49,29.07 27.11,0 23.55,2.01 25.51,-6.99 4.24,-19.43 10.4,-40.59 18.63,-57.72 4.55,-9.49 8.85,-19.99 14.83,-29.04 3.04,-4.61 5.5,-8.78 8.79,-13.14 1.43,-1.9 3.2,-4.17 4.73,-5.83 1.91,-2.07 3.39,-4.28 6.3,-5.06 3.5,15.02 15.35,13.53 23.39,5.52 7.29,-7.25 8.19,-29.08 -5.52,-29.08 -12.78,0 -22.53,12.68 -29.7,22.28l-20.66 31.33 9.92 -38.82c5.04,-18.38 4.95,-17.01 -8.63,-14.31 -5.32,1.05 -8.96,1.96 -14.08,2.98 -22.91,4.56 -22.95,2.54 -22.95,11.16z"/>
   <path fill="black" d="M918.93 1137.25l19.49 0c-0.34,4.19 -2.41,10.14 -3.53,14.34l-5.3 21.51c-0.7,2.48 -1.26,4.31 -1.89,7.03 -4.18,18.03 -16.08,58.03 -16.08,73.28 0,17.79 19.14,16.1 29.54,10.85 8.51,-4.29 25.19,-26.32 26.51,-31.97 -0.98,-1.33 -3.44,-3.1 -4.88,-4.06 -0.86,1.29 -1.09,1.38 -2.09,2.78 -0.95,1.31 -1.35,2.09 -2.31,3.38 -3.97,5.29 -20.78,25.68 -20.78,7.65 0,-7.24 5.12,-25.03 7.42,-33.2 4.74,-16.87 9.88,-41.4 14.79,-58.31 1.01,-3.46 2.89,-9.73 2.97,-13.28 33.54,0 21.03,1.49 26.81,-10.56l-23.56 0c0.08,-3.33 1.58,-7.07 2.28,-9.91 0.85,-3.45 1.68,-6.73 2.43,-9.75 1.76,-7.05 3.42,-13.18 5.04,-20.14l-7.31 0c-0.77,2.88 -7.17,12.45 -9.1,15.27 -3.73,5.47 -12.74,15.36 -18.55,18.81 -11.59,6.88 -19.01,7.17 -20.84,10.85 -0.71,1.45 -1.02,3.54 -1.06,5.43z"/>
   <path fill="black" d="M351.97 870.02c-3.34,14.3 6.43,1.18 14.48,9.07 6.46,6.33 2.11,15.45 0.48,22.95 -4.45,20.52 -12.35,46.7 -17.56,67.72 -2.44,9.85 -5.53,17.8 -5.53,30.22 0,22.57 22.83,21.6 37.58,8.33 4.76,-4.28 3.73,-2.18 8.26,-7.99 1.16,-1.49 1.5,-1.68 2.65,-3.03 1.81,-2.13 3.21,-4.2 4.9,-6.47 2.32,-3.1 7.47,-10.64 8.35,-14.4 -2.66,-1.77 -1.88,-2.36 -5.69,-3.25 -3.64,6.88 -13.48,20.62 -21.21,23.56 -14.05,5.34 -5.75,-22.48 -4.68,-25.89l12.72 -46.58c1.78,-6.32 16.42,-56.05 16.42,-63.18 -5.76,-1.34 -29.93,4.43 -38.52,6.16 -4.03,0.82 -9.78,1.39 -12.65,2.78z"/>
   <path fill="black" d="M996.91 1129.94c0,10.18 -3.29,6.5 8.93,6.5 4.75,0 8.4,5.13 8.74,9.07 0.85,10.08 -24.98,85.76 -24.98,101.4l0 9.75c0,6.41 6.78,12.18 15.43,12.18 17.99,0 37.99,-25.54 44.67,-38.18 -1.64,-1.1 -3.23,-2.15 -4.87,-3.25 -1.89,1.39 -6.3,8.38 -10.76,12.8 -3.1,3.08 -9.06,9.95 -14.42,9.95 -11.71,0 1.25,-35.19 2.9,-40.97l23.9 -83.44c2.54,-8.47 -6.32,-5.64 -14.29,-3.61l-35.25 7.8z"/>
   <path fill="black" d="M382.83 802.6l0 4.87c0,7.48 6.75,14.62 15.44,14.62 18.69,0 22.65,-32.49 -1.63,-32.49 -4.12,0 -6.87,1.71 -9.17,3.83 -1.83,1.7 -4.64,6.03 -4.64,9.17z"/>
   <path fill="black" d="M1625.6 1051.15l5.69 0c9.87,0 20.31,11.19 20.31,21.12 0,11.84 -2.4,20.65 -13.79,26.02 -17.25,8.12 -38.35,-9.05 -31.63,-30.82 2.24,-7.27 10.12,-16.32 19.42,-16.32zm-25.18 23.56c0,9.49 3.33,15.23 7.64,20.79 14.74,19.07 48.41,7.42 48.41,-19.17 0,-16.4 -12.49,-30.05 -25.18,-30.05 -8.99,0 -16.81,1.31 -23.34,9.15 -3.6,4.33 -7.53,11.69 -7.53,19.28z"/>
   <path fill="black" d="M1027.77 1069.83c0,24.01 28.43,20.12 28.43,3.25 0,-5.77 0.67,-9.18 -4.63,-14.04 -9.27,-8.49 -23.8,-1.41 -23.8,10.79z"/>
   <path fill="black" d="M1615.86 1092.58c7.06,0 5.68,1.68 5.68,-14.62l8.13 0c1.25,5.4 4.37,8.97 5.68,14.62l4.87 0c-0.23,-2.79 -1.49,-5.98 -2.45,-8.11 -1.13,-2.54 -2.08,-5.74 -3.23,-8.14 9.67,-2.25 7.06,-17.87 -2.44,-17.87l-16.24 0 0 34.12z"/>
  </g>
 </g>
</svg>
