<?xml version="1.0" encoding="UTF-8"?>
<!DOCTYPE svg PUBLIC "-//W3C//DTD SVG 1.1//EN" "http://www.w3.org/Graphics/SVG/1.1/DTD/svg11.dtd">
<!-- Creator: CorelDRAW -->
<svg xmlns="http://www.w3.org/2000/svg" xml:space="preserve" width="12mm" height="12mm" version="1.1" shape-rendering="geometricPrecision" text-rendering="geometricPrecision" image-rendering="optimizeQuality" fill-rule="evenodd" clip-rule="evenodd"
viewBox="0 0 1200 1200"
 xmlns:xlink="http://www.w3.org/1999/xlink"
 xmlns:xodm="http://www.corel.com/coreldraw/odm/2003">
 <g id="Camada_x0020_1">
  <metadata id="CorelCorpID_0Corel-Layer"/>
  <g id="_2619739541552">
   <ellipse fill="#373435" cx="597.78" cy="601.85" rx="579.67" ry="580.16"/>
   <g>
    <path fill="#FEFEFE" fill-rule="nonzero" d="M129.18 748.77c-4.4,-7.15 -10.38,-18.57 -13.99,-26.96 -21.28,-49.45 -22.3,-100.63 -4.33,-149.76 19.77,-53.88 57.52,-95.13 106.29,-116.13 61.32,-26.41 129.14,-21.21 187.92,13.69 37.33,21.44 63.8,54.54 83.9,101.35 2.56,5.98 4.81,12.39 7.01,17.82l-366.8 159.99zm122.48 -213.46l0 0c-43.54,18.72 -65.99,59.61 -61.38,107.55l184.48 -79.47c-31.72,-37.3 -73.01,-49.67 -123.1,-28.08zm146.1 172.89l0 0c-0.04,0.03 -0.07,0.07 -0.11,0.1l-3.82 -2.58c-11.01,17.88 -28.18,32.36 -49.86,41.77 -41.23,17.94 -79.44,13.33 -106.89,-10.76l-2.52 3.84c-0.03,-0.05 -0.04,-0.08 -0.08,-0.08l-46.8 70.07c11.62,8.09 24.09,14.93 37.19,20.4 51.7,21.49 104.6,20.51 156.7,-2.18 37.7,-16.35 67.27,-41.28 87.48,-72.87l-71.29 -47.71z"/>
    <path fill="#FEFEFE" fill-rule="nonzero" d="M624.19 352.71l0 389.58 60.51 24.56 -34.38 80.3 -66.8 -27.84c-14.99,-6.5 -25.2,-16.43 -32.93,-27.66 -7.38,-11.45 -12.91,-27.15 -12.91,-48.28l0 -390.66 86.51 0z"/>
    <g>
     <g>
      <path fill="#FFCC29" fill-rule="nonzero" d="M859.21 532.63c11.97,-4.01 24.76,-6.16 38.08,-6.16 58.09,0 106.59,41.3 117.7,96.19l82.35 -16.81c-18.9,-93.28 -101.27,-163.48 -200.05,-163.48 -22.63,0 -44.38,3.68 -64.72,10.49l26.64 79.77z"/>
      <path fill="#00A7E1" fill-rule="nonzero" d="M762.02 799.72l55.69 -63c-24.86,-22.05 -40.54,-54.22 -40.54,-90.05 0,-35.81 15.66,-67.96 40.51,-89.98l-55.7 -63.02c-42.22,37.43 -68.86,92.11 -68.86,153 0,60.93 26.65,115.62 68.9,153.05z"/>
      <path fill="#EF4C36" fill-rule="nonzero" d="M1014.97 670.79c-11.16,54.86 -59.61,96.09 -117.68,96.09 -13.33,0 -26.16,-2.16 -38.12,-6.18l-26.67 79.8c20.34,6.79 42.13,10.48 64.79,10.48 98.69,0 181.04,-70.09 200.01,-163.29l-82.33 -16.9z"/>
     </g>
    </g>
   </g>
  </g>
 </g>
</svg>
