<?xml version="1.0" encoding="UTF-8"?>
<!DOCTYPE svg PUBLIC "-//W3C//DTD SVG 1.1//EN" "http://www.w3.org/Graphics/SVG/1.1/DTD/svg11.dtd">
<!-- Creator: CorelDRAW -->
<svg xmlns="http://www.w3.org/2000/svg" xml:space="preserve" width="17mm" height="14mm" version="1.1" shape-rendering="geometricPrecision" text-rendering="geometricPrecision" image-rendering="optimizeQuality" fill-rule="evenodd" clip-rule="evenodd"
viewBox="0 0 1700 1400"
 xmlns:xlink="http://www.w3.org/1999/xlink"
 xmlns:xodm="http://www.corel.com/coreldraw/odm/2003">
 <g id="Camada_x0020_1">
  <metadata id="CorelCorpID_0Corel-Layer"/>
  <g id="_2619739567376">
   <path fill="#EA5C14" d="M1278.27 1025.57c-30.17,12.43 -75.38,20.94 -107.88,21.58 -35.8,0.71 -71.93,-6.55 -100.77,-28.94 -56.47,-43.82 -58.46,-134.43 -33.93,-195.93 12.12,-30.38 31.21,-54.39 60.71,-69.03 31.38,-15.57 76.66,-17.66 109.65,-6.54 50.28,16.97 73.37,63.76 80.9,113.29 1.92,12.55 5.18,50.27 1.99,61.32l-183.39 0.06c-1.45,12.03 12.26,28.58 21.61,34.85 12.24,8.21 28.12,11.99 42.69,13.57 24.51,2.63 53.2,-0.11 77.65,-4.76 4.62,-0.87 19.08,-4.6 22.44,-4.4 1.41,9 9.4,60.12 8.33,64.93zm-92.22 -979.4l4.61 0c88.76,0.9 171.37,52.73 208.85,135.13 10.29,22.63 15.97,46.47 21.81,70.52l54.38 220.23c48.22,196.41 96.82,392.82 145.67,589.07 6.14,24.66 12.02,49.36 18.33,73.97 6.87,26.71 12.5,50.4 12.8,78.24l0 5.83c-0.29,26.95 -4.58,47.49 -13.8,73.41 -7.34,20.61 -12.65,47.5 -34.92,56.45 -3.68,1.47 -8.1,2.51 -13.02,3.2l-58.28 0c-6.59,-0.3 -12.7,-0.53 -17.86,-0.47 -29.82,0.34 -59.37,0.47 -89.18,0.47l-1.43 0c-304.37,0 -608.73,0 -913.1,0l-165.07 0c-5.83,-0.13 -11.64,-0.28 -17.43,-0.45 -7.06,-0.22 -15.37,0.05 -24.1,0.45l-59.79 0c-2.5,-0.46 -4.74,-1.05 -6.66,-1.79 -23.94,-9.25 -22.33,-42.92 -26.91,-64.56 -2.65,-12.5 -7.01,-24.21 -10.06,-36.54 -3.03,-12.25 -5.83,-24.61 -8.88,-36.88l-54.42 -220.19c-24.3,-98.29 -48.47,-196.62 -72.91,-294.87 -6.14,-24.68 -12.25,-49.36 -18.28,-74.08 -5.95,-24.4 -13.61,-49.5 -17.44,-74.23 -1.42,-9.21 -2.31,-18.39 -2.66,-27.56l0 -18.16c1.42,-36.62 11.42,-72.28 29.62,-104.96 21.65,-38.83 53.16,-70.21 91.97,-91.57 38.88,-21.4 96.8,-31.81 140.49,-42.73l585.33 -146.57c48.83,-12.26 97.7,-24.37 146.51,-36.68 24.23,-6.11 48.77,-11.82 72.85,-18.34 23.98,-6.48 50.91,-13.43 75.63,-15.52 5.8,-0.5 11.59,-0.76 17.35,-0.82zm-392.61 735.94c0.98,-0.56 2.53,-5.87 3.26,-7.37 1.17,-2.36 3.19,-5.21 4.79,-7.32 3.51,-4.66 7.55,-8.03 12.33,-11.32 9.89,-6.83 22.97,-11.09 34.67,-13.35 89.68,-17.24 145.89,35.98 156.89,125.57 6.31,51.36 -0.13,112.4 -45.22,144.72 -20.62,14.78 -43.77,22.61 -68.33,27.82 -19.84,4.21 -43.7,6.53 -64.21,7.21 -6.23,0.2 -16.75,-0.89 -21.45,2.19l-0.03 96.65 -94.07 -0.33c-0.18,-13.07 1.25,-95.44 -0.76,-100.49 -2.72,-0.97 -26.07,-3.54 -45,-9.86 -38.12,-12.71 -70.95,-37.25 -84.99,-76.52 -10.41,-29.15 -7.21,-70.53 -7.21,-101.76 0,-16.67 -1.02,-98.52 0.39,-107.74l94.68 0.06c1.12,6.49 0.34,123.06 0.34,133.05 0,20.01 -2.18,42.7 5.68,61.29 6.22,14.72 24.19,28.82 40.67,25.49l0.01 -219.6c10.71,-1.26 27.59,-0.26 38.96,-0.26 6.8,0 33.33,-1.65 37.41,1.13 2.76,4.9 -0.38,23.71 1.19,30.74zm-494.16 255.87l-97.38 -0.04 -0.11 -396.08c0.17,-0.13 0.41,-0.3 0.56,-0.37 0.14,-0.06 0.4,-0.27 0.59,-0.34l4.67 -0.4c18.02,0.19 87.16,-0.9 92.69,0.6l0.01 144.8 138.1 0 0 -136.87c-0.08,-8.85 -0.51,-7.31 1.75,-8l96.73 0.15 -0.06 396.56 -97.4 0.06c-1.78,-1.96 -1.02,-6.74 -1.02,-9.89l0 -155.65 -138.1 0.04 0 145.8c0,3.7 1.72,18.03 -1.03,19.63zm1098.27 -253.29c1.38,-1.39 4.78,-8.39 6.33,-10.85 2.34,-3.72 4.88,-6.91 7.59,-10.35 4.72,-5.98 12.8,-11.87 19.47,-15.6 15.35,-8.59 47.87,-13.68 59.25,-7.67l-0.34 88.39c-6.99,1.28 -38.79,-9.62 -61.33,7.69 -18.8,14.43 -15.63,35.64 -15.63,56.83 0,24.28 0,48.56 0,72.84 0,23.64 0.75,48.49 -0.07,72.02l-100.55 0.01 0 -287.75c11.51,0 79.79,-0.8 85.1,0.43 1.84,6.6 -0.3,25.64 0.18,34.01zm-789.41 -161.59c27.48,-6.3 54.66,11.81 60.38,39.39 5.73,27.54 -11.9,55.18 -39.33,60.8 -65.35,13.39 -87.37,-84.98 -21.05,-100.19z"/>
   <path fill="#FFFAFF" d="M806.73 970.1c-1.64,-3.96 -0.56,-55.9 -0.56,-64.69 0,-15.09 -2.17,-49.46 2.51,-62.03 11.52,-30.87 59.33,-40.5 83.02,-9.42 18.8,24.65 24.76,76.79 11.56,104.64 -7.38,15.54 -20.23,24.32 -36.47,28.7 -9.26,2.5 -52.75,5.16 -60.06,2.8zm-13.29 -187.99c-1.57,-7.03 1.57,-25.84 -1.19,-30.74 -4.08,-2.78 -30.61,-1.13 -37.41,-1.13 -11.37,0 -28.25,-1 -38.96,0.26l-0.01 219.6c-16.48,3.33 -34.45,-10.77 -40.67,-25.49 -7.86,-18.59 -5.68,-41.28 -5.68,-61.29 0,-9.99 0.78,-126.56 -0.34,-133.05l-94.68 -0.06c-1.41,9.22 -0.39,91.07 -0.39,107.74 0,31.23 -3.2,72.61 7.21,101.76 14.04,39.27 46.87,63.81 84.99,76.52 18.93,6.32 42.28,8.89 45,9.86 2.01,5.05 0.58,87.42 0.76,100.49l94.07 0.33 0.03 -96.65c4.7,-3.08 15.22,-1.99 21.45,-2.19 20.51,-0.68 44.37,-3 64.21,-7.21 24.56,-5.21 47.71,-13.04 68.33,-27.82 45.09,-32.32 51.53,-93.36 45.22,-144.72 -11,-89.59 -67.21,-142.81 -156.89,-125.57 -11.7,2.26 -24.78,6.52 -34.67,13.35 -4.78,3.29 -8.82,6.66 -12.33,11.32 -1.6,2.11 -3.62,4.96 -4.79,7.32 -0.73,1.5 -2.28,6.81 -3.26,7.37z"/>
   <path fill="#FFFAFF" d="M201.79 641.86l0.11 396.08 97.38 0.04 0.54 -165.82c4.82,-1.3 135.87,-1.01 139.41,0.09l0.2 165.8 97.4 -0.06 0.06 -396.56 -96.73 -0.15c-3.87,8.74 1.31,125.84 -1.17,145.12 -3.48,1.15 -134.28,1.41 -139.52,0.08l0.01 -144.8 -97.69 0.18z"/>
   <path fill="#FFFAFF" d="M1104.14 857.4c-3.33,-11.82 5.46,-34.19 13.19,-43.78 17.66,-21.92 62.42,-22.85 81.19,0.42 7.41,9.2 16.17,32.22 12.83,43.65l-107.21 -0.29zm174.13 168.17c1.07,-4.81 -6.92,-55.93 -8.33,-64.93 -3.36,-0.2 -17.82,3.53 -22.44,4.4 -24.45,4.65 -53.14,7.39 -77.65,4.76 -14.57,-1.58 -30.45,-5.36 -42.69,-13.57 -9.35,-6.27 -23.06,-22.82 -21.61,-34.85l183.39 -0.06c3.19,-11.05 -0.07,-48.77 -1.99,-61.32 -7.53,-49.53 -30.62,-96.32 -80.9,-113.29 -32.99,-11.12 -78.27,-9.03 -109.65,6.54 -29.5,14.64 -48.59,38.65 -60.71,69.03 -24.53,61.5 -22.54,152.11 33.93,195.93 28.84,22.39 64.97,29.65 100.77,28.94 32.5,-0.64 77.71,-9.15 107.88,-21.58z"/>
   <path fill="#FFFAFF" d="M1397.55 784.69c-0.48,-8.37 1.66,-27.41 -0.18,-34.01 -5.31,-1.23 -73.59,-0.43 -85.1,-0.43l0 287.75 100.55 -0.01c0.82,-23.53 0.07,-48.38 0.07,-72.02 0,-24.28 0,-48.56 0,-72.84 0,-21.19 -3.17,-42.4 15.63,-56.83 22.54,-17.31 54.34,-6.41 61.33,-7.69l0.34 -88.39c-11.38,-6.01 -43.9,-0.92 -59.25,7.67 -6.67,3.73 -14.75,9.62 -19.47,15.6 -2.71,3.44 -5.25,6.63 -7.59,10.35 -1.55,2.46 -4.95,9.46 -6.33,10.85z"/>
   <path fill="#EA5C14" d="M806.73 970.1c7.31,2.36 50.8,-0.3 60.06,-2.8 16.24,-4.38 29.09,-13.16 36.47,-28.7 13.2,-27.85 7.24,-79.99 -11.56,-104.64 -23.69,-31.08 -71.5,-21.45 -83.02,9.42 -4.68,12.57 -2.51,46.94 -2.51,62.03 0,8.79 -1.08,60.73 0.56,64.69z"/>
   <path fill="#FCCE10" d="M608.14 623.1c-66.32,15.21 -44.3,113.58 21.05,100.19 27.43,-5.62 45.06,-33.26 39.33,-60.8 -5.72,-27.58 -32.9,-45.69 -60.38,-39.39z"/>
   <path fill="#EA5C14" d="M1104.14 857.4l107.21 0.29c3.34,-11.43 -5.42,-34.45 -12.83,-43.65 -18.77,-23.27 -63.53,-22.34 -81.19,-0.42 -7.73,9.59 -16.52,31.96 -13.19,43.78z"/>
   <path fill="#F5AF8D" d="M440.16 641.28c-2.26,0.69 -1.83,-0.85 -1.75,8l0 136.87 -138.1 0 -0.01 -144.8c-5.53,-1.5 -74.67,-0.41 -92.69,-0.6l-4.67 0.4c-0.19,0.07 -0.45,0.28 -0.59,0.34 -0.15,0.07 -0.39,0.24 -0.56,0.37l97.69 -0.18 -0.01 144.8c5.24,1.33 136.04,1.07 139.52,-0.08 2.48,-19.28 -2.7,-136.38 1.17,-145.12z"/>
   <path fill="#F5AF8D" d="M299.28 1037.98c2.75,-1.6 1.03,-15.93 1.03,-19.63l0 -145.8 138.1 -0.04 0 155.65c0,3.15 -0.76,7.93 1.02,9.89l-0.2 -165.8c-3.54,-1.1 -134.59,-1.39 -139.41,-0.09l-0.54 165.82z"/>
  </g>
 </g>
</svg>
