<?xml version="1.0" encoding="UTF-8"?>
<!DOCTYPE svg PUBLIC "-//W3C//DTD SVG 1.1//EN" "http://www.w3.org/Graphics/SVG/1.1/DTD/svg11.dtd">
<!-- Creator: CorelDRAW -->
<svg xmlns="http://www.w3.org/2000/svg" xml:space="preserve" width="10mm" height="10mm" version="1.1" shape-rendering="geometricPrecision" text-rendering="geometricPrecision" image-rendering="optimizeQuality" fill-rule="evenodd" clip-rule="evenodd"
viewBox="0 0 1000 1000"
 xmlns:xlink="http://www.w3.org/1999/xlink"
 xmlns:xodm="http://www.corel.com/coreldraw/odm/2003">
 <g id="Camada_x0020_1">
  <metadata id="CorelCorpID_0Corel-Layer"/>
 </g>
 <g id="Camada_x0020_1_0">
  <metadata id="CorelCorpID_1Corel-Layer"/>
  <path fill="#32BBAD" d="M15.29 502.94c0,15.54 1.35,28.03 5.09,40.83 4.42,15.11 6.87,19.4 13.55,32.36 17.51,34 120,122.64 132.03,140.62 43.59,-3.63 82.43,4.32 115.3,-12.41 22.14,-11.26 50.08,-43.2 68.01,-61.14l96.86 -96.85c12.72,-12.76 21.22,-17.76 43.5,-21.15 8.04,-1.22 20,0.8 27.01,3.02 8.96,2.83 14.85,6.28 21.62,11.38 21.79,16.41 142.26,146.2 163.2,159.66 40.74,26.2 85.23,11.33 111.66,17.49l44.12 -44.85c21.94,-21.93 71.65,-68.35 85.87,-92.07 27.34,-45.59 27.9,-103.21 0.68,-148.73 -20.35,-34.03 -119.61,-121.15 -130.67,-137.66 -45.54,3.78 -74.22,-5.57 -110.06,16.21l-57.13 53.36c-2.23,2.36 -1.13,1.79 -4.2,4.41 -2.71,2.33 -1.69,0.84 -4.49,4.12 -1.83,2.15 -0.6,1.39 -3.31,3.86 -2.54,2.32 -1.75,0.79 -4.66,3.95l-86.51 87.12c-11.75,10.05 -28.71,19.25 -45.33,19.25 -36.47,0 -51.41,-21.99 -69.95,-40.54 -21.67,-21.67 -121.92,-125.33 -139.61,-135.9 -33.32,-19.93 -55.23,-14.44 -96.08,-14.41 -31.66,0.02 -20.28,-6.27 -39.82,13.27 -18.77,18.77 -36.48,36.48 -55.25,55.25 -35.6,35.6 -81.43,69.52 -81.43,139.55z"/>
  <path fill="#32BBAD" d="M207.57 755.49c1.81,6.76 56.01,58.15 62.06,64.21 21.4,21.4 41.74,41.74 63.14,63.14 48.47,48.47 83.46,96.5 157.49,96.5 20.66,0 37.67,-4.47 52.91,-10.23 39.57,-14.93 73.14,-56.28 103.14,-86.27l110.49 -110.49c4.57,-4.58 13.03,-10.6 14.71,-16.86 -84.53,0 -101.58,-27.68 -153.9,-80l-87.53 -87.53c-9.17,-9.18 -18.33,-23.32 -35.52,-23.32 -14.37,0 -26.76,15.99 -34.8,24.04l-119.1 119.1c-45.09,45.09 -70.65,47.71 -133.09,47.71z"/>
  <path fill="#32BBAD" d="M207.57 254.69c20.73,0 39.53,-0.73 56.35,2.49 15.81,3.02 31.66,9.59 43.52,16.75 21.92,13.23 97.86,93.11 121.47,116.72 10.4,10.4 19.74,19.74 30.14,30.14 42.42,42.42 43.22,29.24 99.73,-27.27 22.2,-22.19 99.39,-102.52 118.58,-115.31 31.64,-21.09 55.32,-23.52 94.15,-23.52 -1.81,-6.76 -54.57,-56.72 -60.63,-62.78l-124.9 -124.77c-10.83,-9.11 -23.46,-18.37 -37.48,-24.22 -55.21,-23.03 -108.33,-13.68 -154.6,23.58 -10.13,8.15 -147.7,147.41 -171.62,171.33 -4.58,4.58 -13.03,10.6 -14.71,16.86z"/>
 </g>
</svg>
